  0
SECTION
  2
BLOCKS
  0
ENDSEC
  0
SECTION
  2
ENTITIES
  0
LINE
  8
0
 10
33
 20
11.5
 11
32
 21
11.5
  0
LINE
  8
0
 10
32
 20
11.5
 11
32
 21
10.75
  0
LINE
  8
0
 10
32
 20
10.75
 11
31
 21
10.75
  0
LINE
  8
0
 10
31
 20
10.75
 11
31
 21
10
  0
LINE
  8
0
 10
31
 20
10
 11
30
 21
10
  0
LINE
  8
0
 10
30
 20
10
 11
30
 21
9.25
  0
LINE
  8
0
 10
30
 20
9.25
 11
29
 21
9.25
  0
LINE
  8
0
 10
29
 20
9.25
 11
29
 21
8.5
  0
LINE
  8
0
 10
29
 20
8.5
 11
28
 21
8.5
  0
LINE
  8
0
 10
28
 20
8.5
 11
28
 21
7.75
  0
LINE
  8
0
 10
28
 20
7.75
 11
27
 21
7.75
  0
LINE
  8
0
 10
27
 20
7.75
 11
27
 21
7
  0
LINE
  8
0
 10
27
 20
7
 11
26
 21
7
  0
LINE
  8
0
 10
26
 20
7
 11
26
 21
6.25
  0
LINE
  8
0
 10
26
 20
6.25
 11
25
 21
6.25
  0
LINE
  8
0
 10
25
 20
6.25
 11
25
 21
5.5
  0
LINE
  8
0
 10
25
 20
5.5
 11
24
 21
5.5
  0
LINE
  8
0
 10
24
 20
5.5
 11
24
 21
4.75
  0
LINE
  8
0
 10
24
 20
4.75
 11
23
 21
4.75
  0
LINE
  8
0
 10
23
 20
4.75
 11
23
 21
4
  0
LINE
  8
0
 10
23
 20
4
 11
22
 21
4
  0
LINE
  8
0
 10
22
 20
4
 11
22
 21
3.25
  0
LINE
  8
0
 10
22
 20
3.25
 11
21
 21
3.25
  0
LINE
  8
0
 10
21
 20
3.25
 11
21
 21
2.5
  0
LINE
  8
0
 10
21
 20
2.5
 11
20
 21
2.5
  0
LINE
  8
0
 10
20
 20
2.5
 11
20
 21
0
  0
LINE
  8
0
 10
20
 20
0
 11
33
 21
0
  0
LINE
  8
0
 10
33
 20
0
 11
33
 21
11.5
  0
LINE
  8
0
 10
13
 20
11.25
 11
12
 21
11.25
  0
LINE
  8
0
 10
12
 20
11.25
 11
12
 21
10.5
  0
LINE
  8
0
 10
12
 20
10.5
 11
11
 21
10.5
  0
LINE
  8
0
 10
11
 20
10.5
 11
11
 21
9.75
  0
LINE
  8
0
 10
11
 20
9.75
 11
10
 21
9.75
  0
LINE
  8
0
 10
10
 20
9.75
 11
10
 21
9
  0
LINE
  8
0
 10
10
 20
9
 11
9
 21
9
  0
LINE
  8
0
 10
9
 20
9
 11
9
 21
8.25
  0
LINE
  8
0
 10
9
 20
8.25
 11
8
 21
8.25
  0
LINE
  8
0
 10
8
 20
8.25
 11
8
 21
7.5
  0
LINE
  8
0
 10
8
 20
7.5
 11
7
 21
7.5
  0
LINE
  8
0
 10
7
 20
7.5
 11
7
 21
6.75
  0
LINE
  8
0
 10
7
 20
6.75
 11
6
 21
6.75
  0
LINE
  8
0
 10
6
 20
6.75
 11
6
 21
6
  0
LINE
  8
0
 10
6
 20
6
 11
5
 21
6
  0
LINE
  8
0
 10
5
 20
6
 11
5
 21
5.25
  0
LINE
  8
0
 10
5
 20
5.25
 11
4
 21
5.25
  0
LINE
  8
0
 10
4
 20
5.25
 11
4
 21
4.5
  0
LINE
  8
0
 10
4
 20
4.5
 11
3
 21
4.5
  0
LINE
  8
0
 10
3
 20
4.5
 11
3
 21
3.75
  0
LINE
  8
0
 10
3
 20
3.75
 11
2
 21
3.75
  0
LINE
  8
0
 10
2
 20
3.75
 11
2
 21
3
  0
LINE
  8
0
 10
2
 20
3
 11
1
 21
3
  0
LINE
  8
0
 10
1
 20
3
 11
1
 21
2.25
  0
LINE
  8
0
 10
1
 20
2.25
 11
0
 21
2.25
  0
LINE
  8
0
 10
0
 20
2.25
 11
0
 21
0
  0
LINE
  8
0
 10
0
 20
0
 11
13
 21
0
  0
LINE
  8
0
 10
13
 20
0
 11
13
 21
11.25
  0
LINE
  8
0
 10
-7
 20
11
 11
-8
 21
11
  0
LINE
  8
0
 10
-8
 20
11
 11
-8
 21
10.25
  0
LINE
  8
0
 10
-8
 20
10.25
 11
-9
 21
10.25
  0
LINE
  8
0
 10
-9
 20
10.25
 11
-9
 21
9.5
  0
LINE
  8
0
 10
-9
 20
9.5
 11
-10
 21
9.5
  0
LINE
  8
0
 10
-10
 20
9.5
 11
-10
 21
8.75
  0
LINE
  8
0
 10
-10
 20
8.75
 11
-11
 21
8.75
  0
LINE
  8
0
 10
-11
 20
8.75
 11
-11
 21
8
  0
LINE
  8
0
 10
-11
 20
8
 11
-12
 21
8
  0
LINE
  8
0
 10
-12
 20
8
 11
-12
 21
7.25
  0
LINE
  8
0
 10
-12
 20
7.25
 11
-13
 21
7.25
  0
LINE
  8
0
 10
-13
 20
7.25
 11
-13
 21
6.5
  0
LINE
  8
0
 10
-13
 20
6.5
 11
-14
 21
6.5
  0
LINE
  8
0
 10
-14
 20
6.5
 11
-14
 21
5.75
  0
LINE
  8
0
 10
-14
 20
5.75
 11
-15
 21
5.75
  0
LINE
  8
0
 10
-15
 20
5.75
 11
-15
 21
5
  0
LINE
  8
0
 10
-15
 20
5
 11
-16
 21
5
  0
LINE
  8
0
 10
-16
 20
5
 11
-16
 21
4.25
  0
LINE
  8
0
 10
-16
 20
4.25
 11
-17
 21
4.25
  0
LINE
  8
0
 10
-17
 20
4.25
 11
-17
 21
3.5
  0
LINE
  8
0
 10
-17
 20
3.5
 11
-18
 21
3.5
  0
LINE
  8
0
 10
-18
 20
3.5
 11
-18
 21
2.75
  0
LINE
  8
0
 10
-18
 20
2.75
 11
-19
 21
2.75
  0
LINE
  8
0
 10
-19
 20
2.75
 11
-19
 21
2
  0
LINE
  8
0
 10
-19
 20
2
 11
-20
 21
2
  0
LINE
  8
0
 10
-20
 20
2
 11
-20
 21
0
  0
LINE
  8
0
 10
-20
 20
0
 11
-7
 21
0
  0
LINE
  8
0
 10
-7
 20
0
 11
-7
 21
11
  0
ENDSEC
  0
SECTION
  2
OBJECTS
  0
DICTIONARY
  0
ENDSEC
  0
EOF
