  0
SECTION
  2
BLOCKS
  0
ENDSEC
  0
SECTION
  2
ENTITIES
  0
LINE
  8
0
 10
0.392578
 20
-5.98438
 11
0.452148
 21
-5.61719
  0
LINE
  8
0
 10
0.452148
 20
-5.61719
 11
0.441406
 21
-5.47949
  0
LINE
  8
0
 10
0.441406
 20
-5.47949
 11
0.992188
 21
-5.40723
  0
LINE
  8
0
 10
0.992188
 20
-5.40723
 11
1.0166
 21
-5.54297
  0
LINE
  8
0
 10
1.0166
 20
-5.54297
 11
1.16992
 21
-5.88184
  0
LINE
  8
0
 10
1.16992
 20
-5.88184
 11
1.50781
 21
-6.31934
  0
LINE
  8
0
 10
1.50781
 20
-6.31934
 11
1.85352
 21
-6.22656
  0
LINE
  8
0
 10
1.85352
 20
-6.22656
 11
1.92773
 21
-5.67871
  0
LINE
  8
0
 10
1.92773
 20
-5.67871
 11
1.89062
 21
-5.30859
  0
LINE
  8
0
 10
1.89062
 20
-5.30859
 11
1.84473
 21
-5.17871
  0
LINE
  8
0
 10
1.84473
 20
-5.17871
 11
2.35742
 21
-4.96582
  0
LINE
  8
0
 10
2.35742
 20
-4.96582
 11
2.41699
 21
-5.09082
  0
LINE
  8
0
 10
2.41699
 20
-5.09082
 11
2.65234
 21
-5.37891
  0
LINE
  8
0
 10
2.65234
 20
-5.37891
 11
3.09277
 21
-5.71387
  0
LINE
  8
0
 10
3.09277
 20
-5.71387
 11
3.40234
 21
-5.53516
  0
LINE
  8
0
 10
3.40234
 20
-5.53516
 11
3.33203
 21
-4.98633
  0
LINE
  8
0
 10
3.33203
 20
-4.98633
 11
3.2002
 21
-4.63867
  0
LINE
  8
0
 10
3.2002
 20
-4.63867
 11
3.12207
 21
-4.52441
  0
LINE
  8
0
 10
3.12207
 20
-4.52441
 11
3.5625
 21
-4.18652
  0
LINE
  8
0
 10
3.5625
 20
-4.18652
 11
3.65234
 21
-4.29199
  0
LINE
  8
0
 10
3.65234
 20
-4.29199
 11
3.9541
 21
-4.50879
  0
LINE
  8
0
 10
3.9541
 20
-4.50879
 11
4.46582
 21
-4.71875
  0
LINE
  8
0
 10
4.46582
 20
-4.71875
 11
4.71875
 21
-4.46582
  0
LINE
  8
0
 10
4.71875
 20
-4.46582
 11
4.50879
 21
-3.9541
  0
LINE
  8
0
 10
4.50879
 20
-3.9541
 11
4.29199
 21
-3.65234
  0
LINE
  8
0
 10
4.29199
 20
-3.65234
 11
4.18652
 21
-3.5625
  0
LINE
  8
0
 10
4.18652
 20
-3.5625
 11
4.52441
 21
-3.12207
  0
LINE
  8
0
 10
4.52441
 20
-3.12207
 11
4.63867
 21
-3.2002
  0
LINE
  8
0
 10
4.63867
 20
-3.2002
 11
4.98633
 21
-3.33203
  0
LINE
  8
0
 10
4.98633
 20
-3.33203
 11
5.53516
 21
-3.40234
  0
LINE
  8
0
 10
5.53516
 20
-3.40234
 11
5.71387
 21
-3.09277
  0
LINE
  8
0
 10
5.71387
 20
-3.09277
 11
5.37891
 21
-2.65234
  0
LINE
  8
0
 10
5.37891
 20
-2.65234
 11
5.09082
 21
-2.41699
  0
LINE
  8
0
 10
5.09082
 20
-2.41699
 11
4.96582
 21
-2.35742
  0
LINE
  8
0
 10
4.96582
 20
-2.35742
 11
5.17871
 21
-1.84473
  0
LINE
  8
0
 10
5.17871
 20
-1.84473
 11
5.30859
 21
-1.89062
  0
LINE
  8
0
 10
5.30859
 20
-1.89062
 11
5.67871
 21
-1.92773
  0
LINE
  8
0
 10
5.67871
 20
-1.92773
 11
6.22656
 21
-1.85352
  0
LINE
  8
0
 10
6.22656
 20
-1.85352
 11
6.31934
 21
-1.50781
  0
LINE
  8
0
 10
6.31934
 20
-1.50781
 11
5.88184
 21
-1.16992
  0
LINE
  8
0
 10
5.88184
 20
-1.16992
 11
5.54297
 21
-1.0166
  0
LINE
  8
0
 10
5.54297
 20
-1.0166
 11
5.40723
 21
-0.992188
  0
LINE
  8
0
 10
5.40723
 20
-0.992188
 11
5.47949
 21
-0.441406
  0
LINE
  8
0
 10
5.47949
 20
-0.441406
 11
5.61719
 21
-0.452148
  0
LINE
  8
0
 10
5.61719
 20
-0.452148
 11
5.98438
 21
-0.392578
  0
LINE
  8
0
 10
5.98438
 20
-0.392578
 11
6.49414
 21
-0.178711
  0
LINE
  8
0
 10
6.49414
 20
-0.178711
 11
6.49414
 21
0.178711
  0
LINE
  8
0
 10
6.49414
 20
0.178711
 11
5.98438
 21
0.392578
  0
LINE
  8
0
 10
5.98438
 20
0.392578
 11
5.61719
 21
0.452148
  0
LINE
  8
0
 10
5.61719
 20
0.452148
 11
5.47949
 21
0.441406
  0
LINE
  8
0
 10
5.47949
 20
0.441406
 11
5.40723
 21
0.992188
  0
LINE
  8
0
 10
5.40723
 20
0.992188
 11
5.54297
 21
1.0166
  0
LINE
  8
0
 10
5.54297
 20
1.0166
 11
5.88184
 21
1.16992
  0
LINE
  8
0
 10
5.88184
 20
1.16992
 11
6.31934
 21
1.50781
  0
LINE
  8
0
 10
6.31934
 20
1.50781
 11
6.22656
 21
1.85352
  0
LINE
  8
0
 10
6.22656
 20
1.85352
 11
5.67871
 21
1.92773
  0
LINE
  8
0
 10
5.67871
 20
1.92773
 11
5.30859
 21
1.89062
  0
LINE
  8
0
 10
5.30859
 20
1.89062
 11
5.17871
 21
1.84473
  0
LINE
  8
0
 10
5.17871
 20
1.84473
 11
4.96582
 21
2.35742
  0
LINE
  8
0
 10
4.96582
 20
2.35742
 11
5.09082
 21
2.41699
  0
LINE
  8
0
 10
5.09082
 20
2.41699
 11
5.37891
 21
2.65234
  0
LINE
  8
0
 10
5.37891
 20
2.65234
 11
5.71387
 21
3.09277
  0
LINE
  8
0
 10
5.71387
 20
3.09277
 11
5.53516
 21
3.40234
  0
LINE
  8
0
 10
5.53516
 20
3.40234
 11
4.98633
 21
3.33203
  0
LINE
  8
0
 10
4.98633
 20
3.33203
 11
4.63867
 21
3.2002
  0
LINE
  8
0
 10
4.63867
 20
3.2002
 11
4.52441
 21
3.12207
  0
LINE
  8
0
 10
4.52441
 20
3.12207
 11
4.18652
 21
3.5625
  0
LINE
  8
0
 10
4.18652
 20
3.5625
 11
4.29199
 21
3.65234
  0
LINE
  8
0
 10
4.29199
 20
3.65234
 11
4.50879
 21
3.9541
  0
LINE
  8
0
 10
4.50879
 20
3.9541
 11
4.71875
 21
4.46582
  0
LINE
  8
0
 10
4.71875
 20
4.46582
 11
4.46582
 21
4.71875
  0
LINE
  8
0
 10
4.46582
 20
4.71875
 11
3.9541
 21
4.50879
  0
LINE
  8
0
 10
3.9541
 20
4.50879
 11
3.65234
 21
4.29199
  0
LINE
  8
0
 10
3.65234
 20
4.29199
 11
3.5625
 21
4.18652
  0
LINE
  8
0
 10
3.5625
 20
4.18652
 11
3.12207
 21
4.52441
  0
LINE
  8
0
 10
3.12207
 20
4.52441
 11
3.2002
 21
4.63867
  0
LINE
  8
0
 10
3.2002
 20
4.63867
 11
3.33203
 21
4.98633
  0
LINE
  8
0
 10
3.33203
 20
4.98633
 11
3.40234
 21
5.53516
  0
LINE
  8
0
 10
3.40234
 20
5.53516
 11
3.09277
 21
5.71387
  0
LINE
  8
0
 10
3.09277
 20
5.71387
 11
2.65234
 21
5.37891
  0
LINE
  8
0
 10
2.65234
 20
5.37891
 11
2.41699
 21
5.09082
  0
LINE
  8
0
 10
2.41699
 20
5.09082
 11
2.35742
 21
4.96582
  0
LINE
  8
0
 10
2.35742
 20
4.96582
 11
1.84473
 21
5.17871
  0
LINE
  8
0
 10
1.84473
 20
5.17871
 11
1.89062
 21
5.30859
  0
LINE
  8
0
 10
1.89062
 20
5.30859
 11
1.92773
 21
5.67871
  0
LINE
  8
0
 10
1.92773
 20
5.67871
 11
1.85352
 21
6.22656
  0
LINE
  8
0
 10
1.85352
 20
6.22656
 11
1.50781
 21
6.31934
  0
LINE
  8
0
 10
1.50781
 20
6.31934
 11
1.16992
 21
5.88184
  0
LINE
  8
0
 10
1.16992
 20
5.88184
 11
1.0166
 21
5.54297
  0
LINE
  8
0
 10
1.0166
 20
5.54297
 11
0.992188
 21
5.40723
  0
LINE
  8
0
 10
0.992188
 20
5.40723
 11
0.441406
 21
5.47949
  0
LINE
  8
0
 10
0.441406
 20
5.47949
 11
0.452148
 21
5.61719
  0
LINE
  8
0
 10
0.452148
 20
5.61719
 11
0.392578
 21
5.98438
  0
LINE
  8
0
 10
0.392578
 20
5.98438
 11
0.178711
 21
6.49414
  0
LINE
  8
0
 10
0.178711
 20
6.49414
 11
-0.178711
 21
6.49414
  0
LINE
  8
0
 10
-0.178711
 20
6.49414
 11
-0.392578
 21
5.98438
  0
LINE
  8
0
 10
-0.392578
 20
5.98438
 11
-0.452148
 21
5.61719
  0
LINE
  8
0
 10
-0.452148
 20
5.61719
 11
-0.441406
 21
5.47949
  0
LINE
  8
0
 10
-0.441406
 20
5.47949
 11
-0.992188
 21
5.40723
  0
LINE
  8
0
 10
-0.992188
 20
5.40723
 11
-1.0166
 21
5.54297
  0
LINE
  8
0
 10
-1.0166
 20
5.54297
 11
-1.16992
 21
5.88184
  0
LINE
  8
0
 10
-1.16992
 20
5.88184
 11
-1.50781
 21
6.31934
  0
LINE
  8
0
 10
-1.50781
 20
6.31934
 11
-1.85352
 21
6.22656
  0
LINE
  8
0
 10
-1.85352
 20
6.22656
 11
-1.92773
 21
5.67871
  0
LINE
  8
0
 10
-1.92773
 20
5.67871
 11
-1.89062
 21
5.30859
  0
LINE
  8
0
 10
-1.89062
 20
5.30859
 11
-1.84473
 21
5.17871
  0
LINE
  8
0
 10
-1.84473
 20
5.17871
 11
-2.35742
 21
4.96582
  0
LINE
  8
0
 10
-2.35742
 20
4.96582
 11
-2.41699
 21
5.09082
  0
LINE
  8
0
 10
-2.41699
 20
5.09082
 11
-2.65234
 21
5.37891
  0
LINE
  8
0
 10
-2.65234
 20
5.37891
 11
-3.09277
 21
5.71387
  0
LINE
  8
0
 10
-3.09277
 20
5.71387
 11
-3.40234
 21
5.53516
  0
LINE
  8
0
 10
-3.40234
 20
5.53516
 11
-3.33203
 21
4.98633
  0
LINE
  8
0
 10
-3.33203
 20
4.98633
 11
-3.2002
 21
4.63867
  0
LINE
  8
0
 10
-3.2002
 20
4.63867
 11
-3.12207
 21
4.52441
  0
LINE
  8
0
 10
-3.12207
 20
4.52441
 11
-3.5625
 21
4.18652
  0
LINE
  8
0
 10
-3.5625
 20
4.18652
 11
-3.65234
 21
4.29199
  0
LINE
  8
0
 10
-3.65234
 20
4.29199
 11
-3.9541
 21
4.50879
  0
LINE
  8
0
 10
-3.9541
 20
4.50879
 11
-4.46582
 21
4.71875
  0
LINE
  8
0
 10
-4.46582
 20
4.71875
 11
-4.71875
 21
4.46582
  0
LINE
  8
0
 10
-4.71875
 20
4.46582
 11
-4.50879
 21
3.9541
  0
LINE
  8
0
 10
-4.50879
 20
3.9541
 11
-4.29199
 21
3.65234
  0
LINE
  8
0
 10
-4.29199
 20
3.65234
 11
-4.18652
 21
3.5625
  0
LINE
  8
0
 10
-4.18652
 20
3.5625
 11
-4.52441
 21
3.12207
  0
LINE
  8
0
 10
-4.52441
 20
3.12207
 11
-4.63867
 21
3.2002
  0
LINE
  8
0
 10
-4.63867
 20
3.2002
 11
-4.98633
 21
3.33203
  0
LINE
  8
0
 10
-4.98633
 20
3.33203
 11
-5.53516
 21
3.40234
  0
LINE
  8
0
 10
-5.53516
 20
3.40234
 11
-5.71387
 21
3.09277
  0
LINE
  8
0
 10
-5.71387
 20
3.09277
 11
-5.37891
 21
2.65234
  0
LINE
  8
0
 10
-5.37891
 20
2.65234
 11
-5.09082
 21
2.41699
  0
LINE
  8
0
 10
-5.09082
 20
2.41699
 11
-4.96582
 21
2.35742
  0
LINE
  8
0
 10
-4.96582
 20
2.35742
 11
-5.17871
 21
1.84473
  0
LINE
  8
0
 10
-5.17871
 20
1.84473
 11
-5.30859
 21
1.89062
  0
LINE
  8
0
 10
-5.30859
 20
1.89062
 11
-5.67871
 21
1.92773
  0
LINE
  8
0
 10
-5.67871
 20
1.92773
 11
-6.22656
 21
1.85352
  0
LINE
  8
0
 10
-6.22656
 20
1.85352
 11
-6.31934
 21
1.50781
  0
LINE
  8
0
 10
-6.31934
 20
1.50781
 11
-5.88184
 21
1.16992
  0
LINE
  8
0
 10
-5.88184
 20
1.16992
 11
-5.54297
 21
1.0166
  0
LINE
  8
0
 10
-5.54297
 20
1.0166
 11
-5.40723
 21
0.992188
  0
LINE
  8
0
 10
-5.40723
 20
0.992188
 11
-5.47949
 21
0.441406
  0
LINE
  8
0
 10
-5.47949
 20
0.441406
 11
-5.61719
 21
0.452148
  0
LINE
  8
0
 10
-5.61719
 20
0.452148
 11
-5.98438
 21
0.392578
  0
LINE
  8
0
 10
-5.98438
 20
0.392578
 11
-6.49414
 21
0.178711
  0
LINE
  8
0
 10
-6.49414
 20
0.178711
 11
-6.49414
 21
-0.178711
  0
LINE
  8
0
 10
-6.49414
 20
-0.178711
 11
-5.98438
 21
-0.392578
  0
LINE
  8
0
 10
-5.98438
 20
-0.392578
 11
-5.61719
 21
-0.452148
  0
LINE
  8
0
 10
-5.61719
 20
-0.452148
 11
-5.47949
 21
-0.441406
  0
LINE
  8
0
 10
-5.47949
 20
-0.441406
 11
-5.40723
 21
-0.992188
  0
LINE
  8
0
 10
-5.40723
 20
-0.992188
 11
-5.54297
 21
-1.0166
  0
LINE
  8
0
 10
-5.54297
 20
-1.0166
 11
-5.88184
 21
-1.16992
  0
LINE
  8
0
 10
-5.88184
 20
-1.16992
 11
-6.31934
 21
-1.50781
  0
LINE
  8
0
 10
-6.31934
 20
-1.50781
 11
-6.22656
 21
-1.85352
  0
LINE
  8
0
 10
-6.22656
 20
-1.85352
 11
-5.67871
 21
-1.92773
  0
LINE
  8
0
 10
-5.67871
 20
-1.92773
 11
-5.30859
 21
-1.89062
  0
LINE
  8
0
 10
-5.30859
 20
-1.89062
 11
-5.17871
 21
-1.84473
  0
LINE
  8
0
 10
-5.17871
 20
-1.84473
 11
-4.96582
 21
-2.35742
  0
LINE
  8
0
 10
-4.96582
 20
-2.35742
 11
-5.09082
 21
-2.41699
  0
LINE
  8
0
 10
-5.09082
 20
-2.41699
 11
-5.37891
 21
-2.65234
  0
LINE
  8
0
 10
-5.37891
 20
-2.65234
 11
-5.71387
 21
-3.09277
  0
LINE
  8
0
 10
-5.71387
 20
-3.09277
 11
-5.53516
 21
-3.40234
  0
LINE
  8
0
 10
-5.53516
 20
-3.40234
 11
-4.98633
 21
-3.33203
  0
LINE
  8
0
 10
-4.98633
 20
-3.33203
 11
-4.63867
 21
-3.2002
  0
LINE
  8
0
 10
-4.63867
 20
-3.2002
 11
-4.52441
 21
-3.12207
  0
LINE
  8
0
 10
-4.52441
 20
-3.12207
 11
-4.18652
 21
-3.5625
  0
LINE
  8
0
 10
-4.18652
 20
-3.5625
 11
-4.29199
 21
-3.65234
  0
LINE
  8
0
 10
-4.29199
 20
-3.65234
 11
-4.50879
 21
-3.9541
  0
LINE
  8
0
 10
-4.50879
 20
-3.9541
 11
-4.71875
 21
-4.46582
  0
LINE
  8
0
 10
-4.71875
 20
-4.46582
 11
-4.46582
 21
-4.71875
  0
LINE
  8
0
 10
-4.46582
 20
-4.71875
 11
-3.9541
 21
-4.50879
  0
LINE
  8
0
 10
-3.9541
 20
-4.50879
 11
-3.65234
 21
-4.29199
  0
LINE
  8
0
 10
-3.65234
 20
-4.29199
 11
-3.5625
 21
-4.18652
  0
LINE
  8
0
 10
-3.5625
 20
-4.18652
 11
-3.12207
 21
-4.52441
  0
LINE
  8
0
 10
-3.12207
 20
-4.52441
 11
-3.2002
 21
-4.63867
  0
LINE
  8
0
 10
-3.2002
 20
-4.63867
 11
-3.33203
 21
-4.98633
  0
LINE
  8
0
 10
-3.33203
 20
-4.98633
 11
-3.40234
 21
-5.53516
  0
LINE
  8
0
 10
-3.40234
 20
-5.53516
 11
-3.09277
 21
-5.71387
  0
LINE
  8
0
 10
-3.09277
 20
-5.71387
 11
-2.65234
 21
-5.37891
  0
LINE
  8
0
 10
-2.65234
 20
-5.37891
 11
-2.41699
 21
-5.09082
  0
LINE
  8
0
 10
-2.41699
 20
-5.09082
 11
-2.35742
 21
-4.96582
  0
LINE
  8
0
 10
-2.35742
 20
-4.96582
 11
-1.84473
 21
-5.17871
  0
LINE
  8
0
 10
-1.84473
 20
-5.17871
 11
-1.89062
 21
-5.30859
  0
LINE
  8
0
 10
-1.89062
 20
-5.30859
 11
-1.92773
 21
-5.67871
  0
LINE
  8
0
 10
-1.92773
 20
-5.67871
 11
-1.85352
 21
-6.22656
  0
LINE
  8
0
 10
-1.85352
 20
-6.22656
 11
-1.50781
 21
-6.31934
  0
LINE
  8
0
 10
-1.50781
 20
-6.31934
 11
-1.16992
 21
-5.88184
  0
LINE
  8
0
 10
-1.16992
 20
-5.88184
 11
-1.0166
 21
-5.54297
  0
LINE
  8
0
 10
-1.0166
 20
-5.54297
 11
-0.992188
 21
-5.40723
  0
LINE
  8
0
 10
-0.992188
 20
-5.40723
 11
-0.441406
 21
-5.47949
  0
LINE
  8
0
 10
-0.441406
 20
-5.47949
 11
-0.452148
 21
-5.61719
  0
LINE
  8
0
 10
-0.452148
 20
-5.61719
 11
-0.392578
 21
-5.98438
  0
LINE
  8
0
 10
-0.392578
 20
-5.98438
 11
-0.178711
 21
-6.49414
  0
LINE
  8
0
 10
-0.178711
 20
-6.49414
 11
0.178711
 21
-6.49414
  0
LINE
  8
0
 10
0.178711
 20
-6.49414
 11
0.392578
 21
-5.98438
  0
LINE
  8
0
 10
-0.0558014
 20
3.20193
 11
-0.111328
 21
3.20778
  0
LINE
  8
0
 10
-0.111328
 20
3.20778
 11
-0.166321
 21
3.21747
  0
LINE
  8
0
 10
-0.166321
 20
3.21747
 11
-0.220505
 21
3.23099
  0
LINE
  8
0
 10
-0.220505
 20
3.23099
 11
-0.273605
 21
3.24825
  0
LINE
  8
0
 10
-0.273605
 20
3.24825
 11
-0.325378
 21
3.26915
  0
LINE
  8
0
 10
-0.325378
 20
3.26915
 11
-0.375565
 21
3.29364
  0
LINE
  8
0
 10
-0.375565
 20
3.29364
 11
-0.423935
 21
3.32155
  0
LINE
  8
0
 10
-0.423935
 20
3.32155
 11
-0.470215
 21
3.35278
  0
LINE
  8
0
 10
-0.470215
 20
3.35278
 11
-0.514221
 21
3.38716
  0
LINE
  8
0
 10
-0.514221
 20
3.38716
 11
-0.555725
 21
3.42451
  0
LINE
  8
0
 10
-0.555725
 20
3.42451
 11
-0.594513
 21
3.46469
  0
LINE
  8
0
 10
-0.594513
 20
3.46469
 11
-0.630402
 21
3.50746
  0
LINE
  8
0
 10
-0.630402
 20
3.50746
 11
-0.663223
 21
3.55264
  0
LINE
  8
0
 10
-0.663223
 20
3.55264
 11
-0.69281
 21
3.59999
  0
LINE
  8
0
 10
-0.69281
 20
3.59999
 11
-0.719025
 21
3.64929
  0
LINE
  8
0
 10
-0.719025
 20
3.64929
 11
-0.741745
 21
3.7003
  0
LINE
  8
0
 10
-0.741745
 20
3.7003
 11
-0.760834
 21
3.75278
  0
LINE
  8
0
 10
-0.760834
 20
3.75278
 11
-0.77623
 21
3.80646
  0
LINE
  8
0
 10
-0.77623
 20
3.80646
 11
-0.787842
 21
3.86107
  0
LINE
  8
0
 10
-0.787842
 20
3.86107
 11
-0.795609
 21
3.91637
  0
LINE
  8
0
 10
-0.795609
 20
3.91637
 11
-0.7995
 21
3.97208
  0
LINE
  8
0
 10
-0.7995
 20
3.97208
 11
-0.7995
 21
4.02791
  0
LINE
  8
0
 10
-0.7995
 20
4.02791
 11
-0.795609
 21
4.08362
  0
LINE
  8
0
 10
-0.795609
 20
4.08362
 11
-0.787842
 21
4.13892
  0
LINE
  8
0
 10
-0.787842
 20
4.13892
 11
-0.77623
 21
4.19353
  0
LINE
  8
0
 10
-0.77623
 20
4.19353
 11
-0.760834
 21
4.24721
  0
LINE
  8
0
 10
-0.760834
 20
4.24721
 11
-0.741745
 21
4.29968
  0
LINE
  8
0
 10
-0.741745
 20
4.29968
 11
-0.719025
 21
4.35069
  0
LINE
  8
0
 10
-0.719025
 20
4.35069
 11
-0.69281
 21
4.39999
  0
LINE
  8
0
 10
-0.69281
 20
4.39999
 11
-0.663223
 21
4.44734
  0
LINE
  8
0
 10
-0.663223
 20
4.44734
 11
-0.630402
 21
4.49252
  0
LINE
  8
0
 10
-0.630402
 20
4.49252
 11
-0.594513
 21
4.53529
  0
LINE
  8
0
 10
-0.594513
 20
4.53529
 11
-0.555725
 21
4.57547
  0
LINE
  8
0
 10
-0.555725
 20
4.57547
 11
-0.514221
 21
4.61282
  0
LINE
  8
0
 10
-0.514221
 20
4.61282
 11
-0.470215
 21
4.6472
  0
LINE
  8
0
 10
-0.470215
 20
4.6472
 11
-0.423935
 21
4.67844
  0
LINE
  8
0
 10
-0.423935
 20
4.67844
 11
-0.375565
 21
4.70634
  0
LINE
  8
0
 10
-0.375565
 20
4.70634
 11
-0.325378
 21
4.73083
  0
LINE
  8
0
 10
-0.325378
 20
4.73083
 11
-0.273605
 21
4.75174
  0
LINE
  8
0
 10
-0.273605
 20
4.75174
 11
-0.220505
 21
4.769
  0
LINE
  8
0
 10
-0.220505
 20
4.769
 11
-0.166321
 21
4.78252
  0
LINE
  8
0
 10
-0.166321
 20
4.78252
 11
-0.111328
 21
4.79221
  0
LINE
  8
0
 10
-0.111328
 20
4.79221
 11
-0.0558014
 21
4.79805
  0
LINE
  8
0
 10
-0.0558014
 20
4.79805
 11
0
 21
4.79999
  0
LINE
  8
0
 10
0
 20
4.79999
 11
0.0558014
 21
4.79805
  0
LINE
  8
0
 10
0.0558014
 20
4.79805
 11
0.111328
 21
4.79221
  0
LINE
  8
0
 10
0.111328
 20
4.79221
 11
0.166321
 21
4.78252
  0
LINE
  8
0
 10
0.166321
 20
4.78252
 11
0.220505
 21
4.769
  0
LINE
  8
0
 10
0.220505
 20
4.769
 11
0.273605
 21
4.75174
  0
LINE
  8
0
 10
0.273605
 20
4.75174
 11
0.325378
 21
4.73083
  0
LINE
  8
0
 10
0.325378
 20
4.73083
 11
0.375565
 21
4.70634
  0
LINE
  8
0
 10
0.375565
 20
4.70634
 11
0.423935
 21
4.67844
  0
LINE
  8
0
 10
0.423935
 20
4.67844
 11
0.470215
 21
4.6472
  0
LINE
  8
0
 10
0.470215
 20
4.6472
 11
0.514221
 21
4.61282
  0
LINE
  8
0
 10
0.514221
 20
4.61282
 11
0.555725
 21
4.57547
  0
LINE
  8
0
 10
0.555725
 20
4.57547
 11
0.594513
 21
4.53529
  0
LINE
  8
0
 10
0.594513
 20
4.53529
 11
0.630402
 21
4.49252
  0
LINE
  8
0
 10
0.630402
 20
4.49252
 11
0.663223
 21
4.44734
  0
LINE
  8
0
 10
0.663223
 20
4.44734
 11
0.69281
 21
4.39999
  0
LINE
  8
0
 10
0.69281
 20
4.39999
 11
0.719025
 21
4.35069
  0
LINE
  8
0
 10
0.719025
 20
4.35069
 11
0.741745
 21
4.29968
  0
LINE
  8
0
 10
0.741745
 20
4.29968
 11
0.760834
 21
4.24721
  0
LINE
  8
0
 10
0.760834
 20
4.24721
 11
0.77623
 21
4.19353
  0
LINE
  8
0
 10
0.77623
 20
4.19353
 11
0.787842
 21
4.13892
  0
LINE
  8
0
 10
0.787842
 20
4.13892
 11
0.795609
 21
4.08362
  0
LINE
  8
0
 10
0.795609
 20
4.08362
 11
0.7995
 21
4.02791
  0
LINE
  8
0
 10
0.7995
 20
4.02791
 11
0.7995
 21
3.97208
  0
LINE
  8
0
 10
0.7995
 20
3.97208
 11
0.795609
 21
3.91637
  0
LINE
  8
0
 10
0.795609
 20
3.91637
 11
0.787842
 21
3.86107
  0
LINE
  8
0
 10
0.787842
 20
3.86107
 11
0.77623
 21
3.80646
  0
LINE
  8
0
 10
0.77623
 20
3.80646
 11
0.760834
 21
3.75278
  0
LINE
  8
0
 10
0.760834
 20
3.75278
 11
0.741745
 21
3.7003
  0
LINE
  8
0
 10
0.741745
 20
3.7003
 11
0.719025
 21
3.64929
  0
LINE
  8
0
 10
0.719025
 20
3.64929
 11
0.69281
 21
3.59999
  0
LINE
  8
0
 10
0.69281
 20
3.59999
 11
0.663223
 21
3.55264
  0
LINE
  8
0
 10
0.663223
 20
3.55264
 11
0.630402
 21
3.50746
  0
LINE
  8
0
 10
0.630402
 20
3.50746
 11
0.594513
 21
3.46469
  0
LINE
  8
0
 10
0.594513
 20
3.46469
 11
0.555725
 21
3.42451
  0
LINE
  8
0
 10
0.555725
 20
3.42451
 11
0.514221
 21
3.38716
  0
LINE
  8
0
 10
0.514221
 20
3.38716
 11
0.470215
 21
3.35278
  0
LINE
  8
0
 10
0.470215
 20
3.35278
 11
0.423935
 21
3.32155
  0
LINE
  8
0
 10
0.423935
 20
3.32155
 11
0.375565
 21
3.29364
  0
LINE
  8
0
 10
0.375565
 20
3.29364
 11
0.325378
 21
3.26915
  0
LINE
  8
0
 10
0.325378
 20
3.26915
 11
0.273605
 21
3.24825
  0
LINE
  8
0
 10
0.273605
 20
3.24825
 11
0.220505
 21
3.23099
  0
LINE
  8
0
 10
0.220505
 20
3.23099
 11
0.166321
 21
3.21747
  0
LINE
  8
0
 10
0.166321
 20
3.21747
 11
0.111328
 21
3.20778
  0
LINE
  8
0
 10
0.111328
 20
3.20778
 11
0.0558014
 21
3.20193
  0
LINE
  8
0
 10
0.0558014
 20
3.20193
 11
0
 21
3.2
  0
LINE
  8
0
 10
0
 20
3.2
 11
-0.0558014
 21
3.20193
  0
LINE
  8
0
 10
2.7587
 20
2.03146
 11
2.70328
 21
2.03827
  0
LINE
  8
0
 10
2.70328
 20
2.03827
 11
2.64845
 21
2.04892
  0
LINE
  8
0
 10
2.64845
 20
2.04892
 11
2.59453
 21
2.06337
  0
LINE
  8
0
 10
2.59453
 20
2.06337
 11
2.54172
 21
2.08156
  0
LINE
  8
0
 10
2.54172
 20
2.08156
 11
2.49033
 21
2.10338
  0
LINE
  8
0
 10
2.49033
 20
2.10338
 11
2.44057
 21
2.12872
  0
LINE
  8
0
 10
2.44057
 20
2.12872
 11
2.39272
 21
2.15749
  0
LINE
  8
0
 10
2.39272
 20
2.15749
 11
2.34697
 21
2.18951
  0
LINE
  8
0
 10
2.34697
 20
2.18951
 11
2.30357
 21
2.22466
  0
LINE
  8
0
 10
2.30357
 20
2.22466
 11
2.26274
 21
2.26274
  0
LINE
  8
0
 10
2.26274
 20
2.26274
 11
2.22466
 21
2.30357
  0
LINE
  8
0
 10
2.22466
 20
2.30357
 11
2.18951
 21
2.34697
  0
LINE
  8
0
 10
2.18951
 20
2.34697
 11
2.15749
 21
2.39272
  0
LINE
  8
0
 10
2.15749
 20
2.39272
 11
2.12872
 21
2.44057
  0
LINE
  8
0
 10
2.12872
 20
2.44057
 11
2.10338
 21
2.49033
  0
LINE
  8
0
 10
2.10338
 20
2.49033
 11
2.08156
 21
2.54172
  0
LINE
  8
0
 10
2.08156
 20
2.54172
 11
2.06337
 21
2.59453
  0
LINE
  8
0
 10
2.06337
 20
2.59453
 11
2.04892
 21
2.64845
  0
LINE
  8
0
 10
2.04892
 20
2.64845
 11
2.03827
 21
2.70328
  0
LINE
  8
0
 10
2.03827
 20
2.70328
 11
2.03146
 21
2.7587
  0
LINE
  8
0
 10
2.03146
 20
2.7587
 11
2.02853
 21
2.81445
  0
LINE
  8
0
 10
2.02853
 20
2.81445
 11
2.02951
 21
2.87029
  0
LINE
  8
0
 10
2.02951
 20
2.87029
 11
2.03438
 21
2.92592
  0
LINE
  8
0
 10
2.03438
 20
2.92592
 11
2.04312
 21
2.98106
  0
LINE
  8
0
 10
2.04312
 20
2.98106
 11
2.05568
 21
3.03548
  0
LINE
  8
0
 10
2.05568
 20
3.03548
 11
2.07201
 21
3.08887
  0
LINE
  8
0
 10
2.07201
 20
3.08887
 11
2.09201
 21
3.14101
  0
LINE
  8
0
 10
2.09201
 20
3.14101
 11
2.11562
 21
3.1916
  0
LINE
  8
0
 10
2.11562
 20
3.1916
 11
2.14268
 21
3.24045
  0
LINE
  8
0
 10
2.14268
 20
3.24045
 11
2.1731
 21
3.28728
  0
LINE
  8
0
 10
2.1731
 20
3.28728
 11
2.2067
 21
3.33188
  0
LINE
  8
0
 10
2.2067
 20
3.33188
 11
2.24333
 21
3.37402
  0
LINE
  8
0
 10
2.24333
 20
3.37402
 11
2.28282
 21
3.4135
  0
LINE
  8
0
 10
2.28282
 20
3.4135
 11
2.32497
 21
3.45013
  0
LINE
  8
0
 10
2.32497
 20
3.45013
 11
2.36955
 21
3.48373
  0
LINE
  8
0
 10
2.36955
 20
3.48373
 11
2.41638
 21
3.51416
  0
LINE
  8
0
 10
2.41638
 20
3.51416
 11
2.46523
 21
3.54123
  0
LINE
  8
0
 10
2.46523
 20
3.54123
 11
2.51584
 21
3.56482
  0
LINE
  8
0
 10
2.51584
 20
3.56482
 11
2.56796
 21
3.58484
  0
LINE
  8
0
 10
2.56796
 20
3.58484
 11
2.62137
 21
3.60117
  0
LINE
  8
0
 10
2.62137
 20
3.60117
 11
2.67577
 21
3.61372
  0
LINE
  8
0
 10
2.67577
 20
3.61372
 11
2.73093
 21
3.62245
  0
LINE
  8
0
 10
2.73093
 20
3.62245
 11
2.78654
 21
3.62732
  0
LINE
  8
0
 10
2.78654
 20
3.62732
 11
2.84238
 21
3.6283
  0
LINE
  8
0
 10
2.84238
 20
3.6283
 11
2.89815
 21
3.62538
  0
LINE
  8
0
 10
2.89815
 20
3.62538
 11
2.95357
 21
3.61858
  0
LINE
  8
0
 10
2.95357
 20
3.61858
 11
3.00838
 21
3.60791
  0
LINE
  8
0
 10
3.00838
 20
3.60791
 11
3.06232
 21
3.59346
  0
LINE
  8
0
 10
3.06232
 20
3.59346
 11
3.11511
 21
3.57529
  0
LINE
  8
0
 10
3.11511
 20
3.57529
 11
3.16652
 21
3.55347
  0
LINE
  8
0
 10
3.16652
 20
3.55347
 11
3.21626
 21
3.52812
  0
LINE
  8
0
 10
3.21626
 20
3.52812
 11
3.26413
 21
3.49936
  0
LINE
  8
0
 10
3.26413
 20
3.49936
 11
3.30988
 21
3.46733
  0
LINE
  8
0
 10
3.30988
 20
3.46733
 11
3.35327
 21
3.43219
  0
LINE
  8
0
 10
3.35327
 20
3.43219
 11
3.3941
 21
3.3941
  0
LINE
  8
0
 10
3.3941
 20
3.3941
 11
3.43219
 21
3.35327
  0
LINE
  8
0
 10
3.43219
 20
3.35327
 11
3.46733
 21
3.30988
  0
LINE
  8
0
 10
3.46733
 20
3.30988
 11
3.49936
 21
3.26413
  0
LINE
  8
0
 10
3.49936
 20
3.26413
 11
3.52812
 21
3.21626
  0
LINE
  8
0
 10
3.52812
 20
3.21626
 11
3.55347
 21
3.16652
  0
LINE
  8
0
 10
3.55347
 20
3.16652
 11
3.57529
 21
3.11511
  0
LINE
  8
0
 10
3.57529
 20
3.11511
 11
3.59346
 21
3.06232
  0
LINE
  8
0
 10
3.59346
 20
3.06232
 11
3.60791
 21
3.00838
  0
LINE
  8
0
 10
3.60791
 20
3.00838
 11
3.61858
 21
2.95357
  0
LINE
  8
0
 10
3.61858
 20
2.95357
 11
3.62538
 21
2.89815
  0
LINE
  8
0
 10
3.62538
 20
2.89815
 11
3.6283
 21
2.84238
  0
LINE
  8
0
 10
3.6283
 20
2.84238
 11
3.62732
 21
2.78654
  0
LINE
  8
0
 10
3.62732
 20
2.78654
 11
3.62245
 21
2.73093
  0
LINE
  8
0
 10
3.62245
 20
2.73093
 11
3.61372
 21
2.67577
  0
LINE
  8
0
 10
3.61372
 20
2.67577
 11
3.60117
 21
2.62137
  0
LINE
  8
0
 10
3.60117
 20
2.62137
 11
3.58484
 21
2.56796
  0
LINE
  8
0
 10
3.58484
 20
2.56796
 11
3.56482
 21
2.51584
  0
LINE
  8
0
 10
3.56482
 20
2.51584
 11
3.54123
 21
2.46523
  0
LINE
  8
0
 10
3.54123
 20
2.46523
 11
3.51416
 21
2.41638
  0
LINE
  8
0
 10
3.51416
 20
2.41638
 11
3.48373
 21
2.36955
  0
LINE
  8
0
 10
3.48373
 20
2.36955
 11
3.45013
 21
2.32497
  0
LINE
  8
0
 10
3.45013
 20
2.32497
 11
3.4135
 21
2.28282
  0
LINE
  8
0
 10
3.4135
 20
2.28282
 11
3.37402
 21
2.24333
  0
LINE
  8
0
 10
3.37402
 20
2.24333
 11
3.33188
 21
2.2067
  0
LINE
  8
0
 10
3.33188
 20
2.2067
 11
3.28728
 21
2.1731
  0
LINE
  8
0
 10
3.28728
 20
2.1731
 11
3.24045
 21
2.14268
  0
LINE
  8
0
 10
3.24045
 20
2.14268
 11
3.1916
 21
2.11562
  0
LINE
  8
0
 10
3.1916
 20
2.11562
 11
3.14101
 21
2.09201
  0
LINE
  8
0
 10
3.14101
 20
2.09201
 11
3.08887
 21
2.07201
  0
LINE
  8
0
 10
3.08887
 20
2.07201
 11
3.03548
 21
2.05568
  0
LINE
  8
0
 10
3.03548
 20
2.05568
 11
2.98106
 21
2.04312
  0
LINE
  8
0
 10
2.98106
 20
2.04312
 11
2.92592
 21
2.03438
  0
LINE
  8
0
 10
2.92592
 20
2.03438
 11
2.87029
 21
2.02951
  0
LINE
  8
0
 10
2.87029
 20
2.02951
 11
2.81445
 21
2.02853
  0
LINE
  8
0
 10
2.81445
 20
2.02853
 11
2.7587
 21
2.03146
  0
LINE
  8
0
 10
-2.87029
 20
2.02951
 11
-2.92592
 21
2.03438
  0
LINE
  8
0
 10
-2.92592
 20
2.03438
 11
-2.98106
 21
2.04312
  0
LINE
  8
0
 10
-2.98106
 20
2.04312
 11
-3.03548
 21
2.05568
  0
LINE
  8
0
 10
-3.03548
 20
2.05568
 11
-3.08887
 21
2.07201
  0
LINE
  8
0
 10
-3.08887
 20
2.07201
 11
-3.14101
 21
2.09201
  0
LINE
  8
0
 10
-3.14101
 20
2.09201
 11
-3.1916
 21
2.11562
  0
LINE
  8
0
 10
-3.1916
 20
2.11562
 11
-3.24045
 21
2.14268
  0
LINE
  8
0
 10
-3.24045
 20
2.14268
 11
-3.28728
 21
2.1731
  0
LINE
  8
0
 10
-3.28728
 20
2.1731
 11
-3.33188
 21
2.2067
  0
LINE
  8
0
 10
-3.33188
 20
2.2067
 11
-3.37402
 21
2.24333
  0
LINE
  8
0
 10
-3.37402
 20
2.24333
 11
-3.4135
 21
2.28282
  0
LINE
  8
0
 10
-3.4135
 20
2.28282
 11
-3.45013
 21
2.32497
  0
LINE
  8
0
 10
-3.45013
 20
2.32497
 11
-3.48373
 21
2.36955
  0
LINE
  8
0
 10
-3.48373
 20
2.36955
 11
-3.51416
 21
2.41638
  0
LINE
  8
0
 10
-3.51416
 20
2.41638
 11
-3.54123
 21
2.46523
  0
LINE
  8
0
 10
-3.54123
 20
2.46523
 11
-3.56482
 21
2.51584
  0
LINE
  8
0
 10
-3.56482
 20
2.51584
 11
-3.58484
 21
2.56796
  0
LINE
  8
0
 10
-3.58484
 20
2.56796
 11
-3.60117
 21
2.62137
  0
LINE
  8
0
 10
-3.60117
 20
2.62137
 11
-3.61372
 21
2.67577
  0
LINE
  8
0
 10
-3.61372
 20
2.67577
 11
-3.62245
 21
2.73093
  0
LINE
  8
0
 10
-3.62245
 20
2.73093
 11
-3.62732
 21
2.78654
  0
LINE
  8
0
 10
-3.62732
 20
2.78654
 11
-3.6283
 21
2.84238
  0
LINE
  8
0
 10
-3.6283
 20
2.84238
 11
-3.62538
 21
2.89815
  0
LINE
  8
0
 10
-3.62538
 20
2.89815
 11
-3.61858
 21
2.95357
  0
LINE
  8
0
 10
-3.61858
 20
2.95357
 11
-3.60791
 21
3.00838
  0
LINE
  8
0
 10
-3.60791
 20
3.00838
 11
-3.59346
 21
3.06232
  0
LINE
  8
0
 10
-3.59346
 20
3.06232
 11
-3.57529
 21
3.11511
  0
LINE
  8
0
 10
-3.57529
 20
3.11511
 11
-3.55347
 21
3.16652
  0
LINE
  8
0
 10
-3.55347
 20
3.16652
 11
-3.52812
 21
3.21626
  0
LINE
  8
0
 10
-3.52812
 20
3.21626
 11
-3.49936
 21
3.26413
  0
LINE
  8
0
 10
-3.49936
 20
3.26413
 11
-3.46733
 21
3.30988
  0
LINE
  8
0
 10
-3.46733
 20
3.30988
 11
-3.43219
 21
3.35327
  0
LINE
  8
0
 10
-3.43219
 20
3.35327
 11
-3.3941
 21
3.3941
  0
LINE
  8
0
 10
-3.3941
 20
3.3941
 11
-3.35327
 21
3.43219
  0
LINE
  8
0
 10
-3.35327
 20
3.43219
 11
-3.30988
 21
3.46733
  0
LINE
  8
0
 10
-3.30988
 20
3.46733
 11
-3.26413
 21
3.49936
  0
LINE
  8
0
 10
-3.26413
 20
3.49936
 11
-3.21626
 21
3.52812
  0
LINE
  8
0
 10
-3.21626
 20
3.52812
 11
-3.16652
 21
3.55347
  0
LINE
  8
0
 10
-3.16652
 20
3.55347
 11
-3.11511
 21
3.57529
  0
LINE
  8
0
 10
-3.11511
 20
3.57529
 11
-3.06232
 21
3.59346
  0
LINE
  8
0
 10
-3.06232
 20
3.59346
 11
-3.00838
 21
3.60791
  0
LINE
  8
0
 10
-3.00838
 20
3.60791
 11
-2.95357
 21
3.61858
  0
LINE
  8
0
 10
-2.95357
 20
3.61858
 11
-2.89815
 21
3.62538
  0
LINE
  8
0
 10
-2.89815
 20
3.62538
 11
-2.84238
 21
3.6283
  0
LINE
  8
0
 10
-2.84238
 20
3.6283
 11
-2.78654
 21
3.62732
  0
LINE
  8
0
 10
-2.78654
 20
3.62732
 11
-2.73093
 21
3.62245
  0
LINE
  8
0
 10
-2.73093
 20
3.62245
 11
-2.67577
 21
3.61372
  0
LINE
  8
0
 10
-2.67577
 20
3.61372
 11
-2.62137
 21
3.60117
  0
LINE
  8
0
 10
-2.62137
 20
3.60117
 11
-2.56796
 21
3.58484
  0
LINE
  8
0
 10
-2.56796
 20
3.58484
 11
-2.51584
 21
3.56482
  0
LINE
  8
0
 10
-2.51584
 20
3.56482
 11
-2.46523
 21
3.54123
  0
LINE
  8
0
 10
-2.46523
 20
3.54123
 11
-2.41638
 21
3.51416
  0
LINE
  8
0
 10
-2.41638
 20
3.51416
 11
-2.36955
 21
3.48373
  0
LINE
  8
0
 10
-2.36955
 20
3.48373
 11
-2.32497
 21
3.45013
  0
LINE
  8
0
 10
-2.32497
 20
3.45013
 11
-2.28282
 21
3.4135
  0
LINE
  8
0
 10
-2.28282
 20
3.4135
 11
-2.24333
 21
3.37402
  0
LINE
  8
0
 10
-2.24333
 20
3.37402
 11
-2.2067
 21
3.33188
  0
LINE
  8
0
 10
-2.2067
 20
3.33188
 11
-2.1731
 21
3.28728
  0
LINE
  8
0
 10
-2.1731
 20
3.28728
 11
-2.14268
 21
3.24045
  0
LINE
  8
0
 10
-2.14268
 20
3.24045
 11
-2.11562
 21
3.1916
  0
LINE
  8
0
 10
-2.11562
 20
3.1916
 11
-2.09201
 21
3.14101
  0
LINE
  8
0
 10
-2.09201
 20
3.14101
 11
-2.07201
 21
3.08887
  0
LINE
  8
0
 10
-2.07201
 20
3.08887
 11
-2.05568
 21
3.03548
  0
LINE
  8
0
 10
-2.05568
 20
3.03548
 11
-2.04312
 21
2.98106
  0
LINE
  8
0
 10
-2.04312
 20
2.98106
 11
-2.03438
 21
2.92592
  0
LINE
  8
0
 10
-2.03438
 20
2.92592
 11
-2.02951
 21
2.87029
  0
LINE
  8
0
 10
-2.02951
 20
2.87029
 11
-2.02853
 21
2.81445
  0
LINE
  8
0
 10
-2.02853
 20
2.81445
 11
-2.03146
 21
2.7587
  0
LINE
  8
0
 10
-2.03146
 20
2.7587
 11
-2.03827
 21
2.70328
  0
LINE
  8
0
 10
-2.03827
 20
2.70328
 11
-2.04892
 21
2.64845
  0
LINE
  8
0
 10
-2.04892
 20
2.64845
 11
-2.06337
 21
2.59453
  0
LINE
  8
0
 10
-2.06337
 20
2.59453
 11
-2.08156
 21
2.54172
  0
LINE
  8
0
 10
-2.08156
 20
2.54172
 11
-2.10338
 21
2.49033
  0
LINE
  8
0
 10
-2.10338
 20
2.49033
 11
-2.12872
 21
2.44057
  0
LINE
  8
0
 10
-2.12872
 20
2.44057
 11
-2.15749
 21
2.39272
  0
LINE
  8
0
 10
-2.15749
 20
2.39272
 11
-2.18951
 21
2.34697
  0
LINE
  8
0
 10
-2.18951
 20
2.34697
 11
-2.22466
 21
2.30357
  0
LINE
  8
0
 10
-2.22466
 20
2.30357
 11
-2.26274
 21
2.26274
  0
LINE
  8
0
 10
-2.26274
 20
2.26274
 11
-2.30357
 21
2.22466
  0
LINE
  8
0
 10
-2.30357
 20
2.22466
 11
-2.34697
 21
2.18951
  0
LINE
  8
0
 10
-2.34697
 20
2.18951
 11
-2.39272
 21
2.15749
  0
LINE
  8
0
 10
-2.39272
 20
2.15749
 11
-2.44057
 21
2.12872
  0
LINE
  8
0
 10
-2.44057
 20
2.12872
 11
-2.49033
 21
2.10338
  0
LINE
  8
0
 10
-2.49033
 20
2.10338
 11
-2.54172
 21
2.08156
  0
LINE
  8
0
 10
-2.54172
 20
2.08156
 11
-2.59453
 21
2.06337
  0
LINE
  8
0
 10
-2.59453
 20
2.06337
 11
-2.64845
 21
2.04892
  0
LINE
  8
0
 10
-2.64845
 20
2.04892
 11
-2.70328
 21
2.03827
  0
LINE
  8
0
 10
-2.70328
 20
2.03827
 11
-2.7587
 21
2.03146
  0
LINE
  8
0
 10
-2.7587
 20
2.03146
 11
-2.81445
 21
2.02853
  0
LINE
  8
0
 10
-2.81445
 20
2.02853
 11
-2.87029
 21
2.02951
  0
LINE
  8
0
 10
-1.67973
 20
1.85117
 11
-1.53914
 21
1.97002
  0
LINE
  8
0
 10
-1.53914
 20
1.97002
 11
-1.39798
 21
2.07259
  0
LINE
  8
0
 10
-1.39798
 20
2.07259
 11
-1.24998
 21
2.16505
  0
LINE
  8
0
 10
-1.24998
 20
2.16505
 11
-1.09592
 21
2.24698
  0
LINE
  8
0
 10
-1.09592
 20
2.24698
 11
-0.936508
 21
2.31795
  0
LINE
  8
0
 10
-0.936508
 20
2.31795
 11
-0.772537
 21
2.37764
  0
LINE
  8
0
 10
-0.772537
 20
2.37764
 11
-0.604797
 21
2.42574
  0
LINE
  8
0
 10
-0.604797
 20
2.42574
 11
-0.434113
 21
2.46201
  0
LINE
  8
0
 10
-0.434113
 20
2.46201
 11
-0.399994
 21
2.4668
  0
LINE
  8
0
 10
-0.399994
 20
2.4668
 11
-0.399994
 21
1.13065
  0
LINE
  8
0
 10
-0.399994
 20
1.13065
 11
-0.449524
 21
1.11261
  0
LINE
  8
0
 10
-0.449524
 20
1.11261
 11
-0.526031
 21
1.07855
  0
LINE
  8
0
 10
-0.526031
 20
1.07855
 11
-0.599991
 21
1.03923
  0
LINE
  8
0
 10
-0.599991
 20
1.03923
 11
-0.634537
 21
1.01764
  0
LINE
  8
0
 10
-0.634537
 20
1.01764
 11
-1.67973
 21
1.85117
  0
LINE
  8
0
 10
0.599991
 20
1.03923
 11
0.526031
 21
1.07855
  0
LINE
  8
0
 10
0.526031
 20
1.07855
 11
0.449524
 21
1.11261
  0
LINE
  8
0
 10
0.449524
 20
1.11261
 11
0.399994
 21
1.13065
  0
LINE
  8
0
 10
0.399994
 20
1.13065
 11
0.399994
 21
2.4668
  0
LINE
  8
0
 10
0.399994
 20
2.4668
 11
0.434113
 21
2.46201
  0
LINE
  8
0
 10
0.434113
 20
2.46201
 11
0.604797
 21
2.42574
  0
LINE
  8
0
 10
0.604797
 20
2.42574
 11
0.772537
 21
2.37764
  0
LINE
  8
0
 10
0.772537
 20
2.37764
 11
0.936508
 21
2.31795
  0
LINE
  8
0
 10
0.936508
 20
2.31795
 11
1.09592
 21
2.24698
  0
LINE
  8
0
 10
1.09592
 20
2.24698
 11
1.25
 21
2.16505
  0
LINE
  8
0
 10
1.25
 20
2.16505
 11
1.39798
 21
2.07259
  0
LINE
  8
0
 10
1.39798
 20
2.07259
 11
1.53914
 21
1.97002
  0
LINE
  8
0
 10
1.53914
 20
1.97002
 11
1.67973
 21
1.85117
  0
LINE
  8
0
 10
1.67973
 20
1.85117
 11
0.634537
 21
1.01764
  0
LINE
  8
0
 10
0.634537
 20
1.01764
 11
0.599991
 21
1.03923
  0
LINE
  8
0
 10
-2.5
 20
0
 11
-2.4939
 21
0.174377
  0
LINE
  8
0
 10
-2.4939
 20
0.174377
 11
-2.47566
 21
0.347931
  0
LINE
  8
0
 10
-2.47566
 20
0.347931
 11
-2.44536
 21
0.519775
  0
LINE
  8
0
 10
-2.44536
 20
0.519775
 11
-2.40315
 21
0.689087
  0
LINE
  8
0
 10
-2.40315
 20
0.689087
 11
-2.34923
 21
0.855042
  0
LINE
  8
0
 10
-2.34923
 20
0.855042
 11
-2.28386
 21
1.01683
  0
LINE
  8
0
 10
-2.28386
 20
1.01683
 11
-2.20737
 21
1.17368
  0
LINE
  8
0
 10
-2.20737
 20
1.17368
 11
-2.1777
 21
1.22504
  0
LINE
  8
0
 10
-2.1777
 20
1.22504
 11
-1.1335
 21
0.392319
  0
LINE
  8
0
 10
-1.1335
 20
0.392319
 11
-1.1535
 21
0.330765
  0
LINE
  8
0
 10
-1.1535
 20
0.330765
 11
-1.17377
 21
0.249481
  0
LINE
  8
0
 10
-1.17377
 20
0.249481
 11
-1.18831
 21
0.167007
  0
LINE
  8
0
 10
-1.18831
 20
0.167007
 11
-1.19131
 21
0.138367
  0
LINE
  8
0
 10
-1.19131
 20
0.138367
 11
-2.49443
 21
-0.159058
  0
LINE
  8
0
 10
-2.49443
 20
-0.159058
 11
-2.5
 21
0
  0
LINE
  8
0
 10
1.19131
 20
0.138367
 11
1.18831
 21
0.167007
  0
LINE
  8
0
 10
1.18831
 20
0.167007
 11
1.17377
 21
0.249481
  0
LINE
  8
0
 10
1.17377
 20
0.249481
 11
1.1535
 21
0.330765
  0
LINE
  8
0
 10
1.1535
 20
0.330765
 11
1.1335
 21
0.392319
  0
LINE
  8
0
 10
1.1335
 20
0.392319
 11
2.1777
 21
1.22504
  0
LINE
  8
0
 10
2.1777
 20
1.22504
 11
2.20737
 21
1.17368
  0
LINE
  8
0
 10
2.20737
 20
1.17368
 11
2.28386
 21
1.01683
  0
LINE
  8
0
 10
2.28386
 20
1.01683
 11
2.34923
 21
0.855042
  0
LINE
  8
0
 10
2.34923
 20
0.855042
 11
2.40315
 21
0.689087
  0
LINE
  8
0
 10
2.40315
 20
0.689087
 11
2.44536
 21
0.519775
  0
LINE
  8
0
 10
2.44536
 20
0.519775
 11
2.47566
 21
0.347931
  0
LINE
  8
0
 10
2.47566
 20
0.347931
 11
2.4939
 21
0.174377
  0
LINE
  8
0
 10
2.4939
 20
0.174377
 11
2.5
 21
0
  0
LINE
  8
0
 10
2.5
 20
0
 11
2.49443
 21
-0.159058
  0
LINE
  8
0
 10
2.49443
 20
-0.159058
 11
1.19131
 21
0.138367
  0
LINE
  8
0
 10
-4.02791
 20
-0.7995
 11
-4.08362
 21
-0.795609
  0
LINE
  8
0
 10
-4.08362
 20
-0.795609
 11
-4.13892
 21
-0.787842
  0
LINE
  8
0
 10
-4.13892
 20
-0.787842
 11
-4.19353
 21
-0.77623
  0
LINE
  8
0
 10
-4.19353
 20
-0.77623
 11
-4.24721
 21
-0.760834
  0
LINE
  8
0
 10
-4.24721
 20
-0.760834
 11
-4.29968
 21
-0.741745
  0
LINE
  8
0
 10
-4.29968
 20
-0.741745
 11
-4.35069
 21
-0.719025
  0
LINE
  8
0
 10
-4.35069
 20
-0.719025
 11
-4.39999
 21
-0.69281
  0
LINE
  8
0
 10
-4.39999
 20
-0.69281
 11
-4.44734
 21
-0.663223
  0
LINE
  8
0
 10
-4.44734
 20
-0.663223
 11
-4.49252
 21
-0.630402
  0
LINE
  8
0
 10
-4.49252
 20
-0.630402
 11
-4.53529
 21
-0.594513
  0
LINE
  8
0
 10
-4.53529
 20
-0.594513
 11
-4.57547
 21
-0.555725
  0
LINE
  8
0
 10
-4.57547
 20
-0.555725
 11
-4.61282
 21
-0.514221
  0
LINE
  8
0
 10
-4.61282
 20
-0.514221
 11
-4.6472
 21
-0.470215
  0
LINE
  8
0
 10
-4.6472
 20
-0.470215
 11
-4.67844
 21
-0.423935
  0
LINE
  8
0
 10
-4.67844
 20
-0.423935
 11
-4.70634
 21
-0.375565
  0
LINE
  8
0
 10
-4.70634
 20
-0.375565
 11
-4.73083
 21
-0.325378
  0
LINE
  8
0
 10
-4.73083
 20
-0.325378
 11
-4.75174
 21
-0.273605
  0
LINE
  8
0
 10
-4.75174
 20
-0.273605
 11
-4.769
 21
-0.220505
  0
LINE
  8
0
 10
-4.769
 20
-0.220505
 11
-4.78252
 21
-0.166321
  0
LINE
  8
0
 10
-4.78252
 20
-0.166321
 11
-4.79221
 21
-0.111328
  0
LINE
  8
0
 10
-4.79221
 20
-0.111328
 11
-4.79805
 21
-0.0558014
  0
LINE
  8
0
 10
-4.79805
 20
-0.0558014
 11
-4.79999
 21
0
  0
LINE
  8
0
 10
-4.79999
 20
0
 11
-4.79805
 21
0.0558014
  0
LINE
  8
0
 10
-4.79805
 20
0.0558014
 11
-4.79221
 21
0.111328
  0
LINE
  8
0
 10
-4.79221
 20
0.111328
 11
-4.78252
 21
0.166321
  0
LINE
  8
0
 10
-4.78252
 20
0.166321
 11
-4.769
 21
0.220505
  0
LINE
  8
0
 10
-4.769
 20
0.220505
 11
-4.75174
 21
0.273605
  0
LINE
  8
0
 10
-4.75174
 20
0.273605
 11
-4.73083
 21
0.325378
  0
LINE
  8
0
 10
-4.73083
 20
0.325378
 11
-4.70634
 21
0.375565
  0
LINE
  8
0
 10
-4.70634
 20
0.375565
 11
-4.67844
 21
0.423935
  0
LINE
  8
0
 10
-4.67844
 20
0.423935
 11
-4.6472
 21
0.470215
  0
LINE
  8
0
 10
-4.6472
 20
0.470215
 11
-4.61282
 21
0.514221
  0
LINE
  8
0
 10
-4.61282
 20
0.514221
 11
-4.57547
 21
0.555725
  0
LINE
  8
0
 10
-4.57547
 20
0.555725
 11
-4.53529
 21
0.594513
  0
LINE
  8
0
 10
-4.53529
 20
0.594513
 11
-4.49252
 21
0.630402
  0
LINE
  8
0
 10
-4.49252
 20
0.630402
 11
-4.44734
 21
0.663223
  0
LINE
  8
0
 10
-4.44734
 20
0.663223
 11
-4.39999
 21
0.69281
  0
LINE
  8
0
 10
-4.39999
 20
0.69281
 11
-4.35069
 21
0.719025
  0
LINE
  8
0
 10
-4.35069
 20
0.719025
 11
-4.29968
 21
0.741745
  0
LINE
  8
0
 10
-4.29968
 20
0.741745
 11
-4.24721
 21
0.760834
  0
LINE
  8
0
 10
-4.24721
 20
0.760834
 11
-4.19353
 21
0.77623
  0
LINE
  8
0
 10
-4.19353
 20
0.77623
 11
-4.13892
 21
0.787842
  0
LINE
  8
0
 10
-4.13892
 20
0.787842
 11
-4.08362
 21
0.795609
  0
LINE
  8
0
 10
-4.08362
 20
0.795609
 11
-4.02791
 21
0.7995
  0
LINE
  8
0
 10
-4.02791
 20
0.7995
 11
-3.97208
 21
0.7995
  0
LINE
  8
0
 10
-3.97208
 20
0.7995
 11
-3.91637
 21
0.795609
  0
LINE
  8
0
 10
-3.91637
 20
0.795609
 11
-3.86107
 21
0.787842
  0
LINE
  8
0
 10
-3.86107
 20
0.787842
 11
-3.80646
 21
0.77623
  0
LINE
  8
0
 10
-3.80646
 20
0.77623
 11
-3.75278
 21
0.760834
  0
LINE
  8
0
 10
-3.75278
 20
0.760834
 11
-3.7003
 21
0.741745
  0
LINE
  8
0
 10
-3.7003
 20
0.741745
 11
-3.64929
 21
0.719025
  0
LINE
  8
0
 10
-3.64929
 20
0.719025
 11
-3.59999
 21
0.69281
  0
LINE
  8
0
 10
-3.59999
 20
0.69281
 11
-3.55264
 21
0.663223
  0
LINE
  8
0
 10
-3.55264
 20
0.663223
 11
-3.50746
 21
0.630402
  0
LINE
  8
0
 10
-3.50746
 20
0.630402
 11
-3.46469
 21
0.594513
  0
LINE
  8
0
 10
-3.46469
 20
0.594513
 11
-3.42451
 21
0.555725
  0
LINE
  8
0
 10
-3.42451
 20
0.555725
 11
-3.38716
 21
0.514221
  0
LINE
  8
0
 10
-3.38716
 20
0.514221
 11
-3.35278
 21
0.470215
  0
LINE
  8
0
 10
-3.35278
 20
0.470215
 11
-3.32155
 21
0.423935
  0
LINE
  8
0
 10
-3.32155
 20
0.423935
 11
-3.29364
 21
0.375565
  0
LINE
  8
0
 10
-3.29364
 20
0.375565
 11
-3.26915
 21
0.325378
  0
LINE
  8
0
 10
-3.26915
 20
0.325378
 11
-3.24825
 21
0.273605
  0
LINE
  8
0
 10
-3.24825
 20
0.273605
 11
-3.23099
 21
0.220505
  0
LINE
  8
0
 10
-3.23099
 20
0.220505
 11
-3.21747
 21
0.166321
  0
LINE
  8
0
 10
-3.21747
 20
0.166321
 11
-3.20778
 21
0.111328
  0
LINE
  8
0
 10
-3.20778
 20
0.111328
 11
-3.20193
 21
0.0558014
  0
LINE
  8
0
 10
-3.20193
 20
0.0558014
 11
-3.2
 21
0
  0
LINE
  8
0
 10
-3.2
 20
0
 11
-3.20193
 21
-0.0558014
  0
LINE
  8
0
 10
-3.20193
 20
-0.0558014
 11
-3.20778
 21
-0.111328
  0
LINE
  8
0
 10
-3.20778
 20
-0.111328
 11
-3.21747
 21
-0.166321
  0
LINE
  8
0
 10
-3.21747
 20
-0.166321
 11
-3.23099
 21
-0.220505
  0
LINE
  8
0
 10
-3.23099
 20
-0.220505
 11
-3.24825
 21
-0.273605
  0
LINE
  8
0
 10
-3.24825
 20
-0.273605
 11
-3.26915
 21
-0.325378
  0
LINE
  8
0
 10
-3.26915
 20
-0.325378
 11
-3.29364
 21
-0.375565
  0
LINE
  8
0
 10
-3.29364
 20
-0.375565
 11
-3.32155
 21
-0.423935
  0
LINE
  8
0
 10
-3.32155
 20
-0.423935
 11
-3.35278
 21
-0.470215
  0
LINE
  8
0
 10
-3.35278
 20
-0.470215
 11
-3.38716
 21
-0.514221
  0
LINE
  8
0
 10
-3.38716
 20
-0.514221
 11
-3.42451
 21
-0.555725
  0
LINE
  8
0
 10
-3.42451
 20
-0.555725
 11
-3.46469
 21
-0.594513
  0
LINE
  8
0
 10
-3.46469
 20
-0.594513
 11
-3.50746
 21
-0.630402
  0
LINE
  8
0
 10
-3.50746
 20
-0.630402
 11
-3.55264
 21
-0.663223
  0
LINE
  8
0
 10
-3.55264
 20
-0.663223
 11
-3.59999
 21
-0.69281
  0
LINE
  8
0
 10
-3.59999
 20
-0.69281
 11
-3.64929
 21
-0.719025
  0
LINE
  8
0
 10
-3.64929
 20
-0.719025
 11
-3.7003
 21
-0.741745
  0
LINE
  8
0
 10
-3.7003
 20
-0.741745
 11
-3.75278
 21
-0.760834
  0
LINE
  8
0
 10
-3.75278
 20
-0.760834
 11
-3.80646
 21
-0.77623
  0
LINE
  8
0
 10
-3.80646
 20
-0.77623
 11
-3.86107
 21
-0.787842
  0
LINE
  8
0
 10
-3.86107
 20
-0.787842
 11
-3.91637
 21
-0.795609
  0
LINE
  8
0
 10
-3.91637
 20
-0.795609
 11
-3.97208
 21
-0.7995
  0
LINE
  8
0
 10
-3.97208
 20
-0.7995
 11
-4.02791
 21
-0.7995
  0
LINE
  8
0
 10
3.97208
 20
-0.7995
 11
3.91637
 21
-0.795609
  0
LINE
  8
0
 10
3.91637
 20
-0.795609
 11
3.86107
 21
-0.787842
  0
LINE
  8
0
 10
3.86107
 20
-0.787842
 11
3.80646
 21
-0.77623
  0
LINE
  8
0
 10
3.80646
 20
-0.77623
 11
3.75278
 21
-0.760834
  0
LINE
  8
0
 10
3.75278
 20
-0.760834
 11
3.7003
 21
-0.741745
  0
LINE
  8
0
 10
3.7003
 20
-0.741745
 11
3.64929
 21
-0.719025
  0
LINE
  8
0
 10
3.64929
 20
-0.719025
 11
3.59999
 21
-0.69281
  0
LINE
  8
0
 10
3.59999
 20
-0.69281
 11
3.55264
 21
-0.663223
  0
LINE
  8
0
 10
3.55264
 20
-0.663223
 11
3.50746
 21
-0.630402
  0
LINE
  8
0
 10
3.50746
 20
-0.630402
 11
3.46469
 21
-0.594513
  0
LINE
  8
0
 10
3.46469
 20
-0.594513
 11
3.42451
 21
-0.555725
  0
LINE
  8
0
 10
3.42451
 20
-0.555725
 11
3.38716
 21
-0.514221
  0
LINE
  8
0
 10
3.38716
 20
-0.514221
 11
3.35278
 21
-0.470215
  0
LINE
  8
0
 10
3.35278
 20
-0.470215
 11
3.32155
 21
-0.423935
  0
LINE
  8
0
 10
3.32155
 20
-0.423935
 11
3.29364
 21
-0.375565
  0
LINE
  8
0
 10
3.29364
 20
-0.375565
 11
3.26915
 21
-0.325378
  0
LINE
  8
0
 10
3.26915
 20
-0.325378
 11
3.24825
 21
-0.273605
  0
LINE
  8
0
 10
3.24825
 20
-0.273605
 11
3.23099
 21
-0.220505
  0
LINE
  8
0
 10
3.23099
 20
-0.220505
 11
3.21747
 21
-0.166321
  0
LINE
  8
0
 10
3.21747
 20
-0.166321
 11
3.20778
 21
-0.111328
  0
LINE
  8
0
 10
3.20778
 20
-0.111328
 11
3.20193
 21
-0.0558014
  0
LINE
  8
0
 10
3.20193
 20
-0.0558014
 11
3.2
 21
0
  0
LINE
  8
0
 10
3.2
 20
0
 11
3.20193
 21
0.0558014
  0
LINE
  8
0
 10
3.20193
 20
0.0558014
 11
3.20778
 21
0.111328
  0
LINE
  8
0
 10
3.20778
 20
0.111328
 11
3.21747
 21
0.166321
  0
LINE
  8
0
 10
3.21747
 20
0.166321
 11
3.23099
 21
0.220505
  0
LINE
  8
0
 10
3.23099
 20
0.220505
 11
3.24825
 21
0.273605
  0
LINE
  8
0
 10
3.24825
 20
0.273605
 11
3.26915
 21
0.325378
  0
LINE
  8
0
 10
3.26915
 20
0.325378
 11
3.29364
 21
0.375565
  0
LINE
  8
0
 10
3.29364
 20
0.375565
 11
3.32155
 21
0.423935
  0
LINE
  8
0
 10
3.32155
 20
0.423935
 11
3.35278
 21
0.470215
  0
LINE
  8
0
 10
3.35278
 20
0.470215
 11
3.38716
 21
0.514221
  0
LINE
  8
0
 10
3.38716
 20
0.514221
 11
3.42451
 21
0.555725
  0
LINE
  8
0
 10
3.42451
 20
0.555725
 11
3.46469
 21
0.594513
  0
LINE
  8
0
 10
3.46469
 20
0.594513
 11
3.50746
 21
0.630402
  0
LINE
  8
0
 10
3.50746
 20
0.630402
 11
3.55264
 21
0.663223
  0
LINE
  8
0
 10
3.55264
 20
0.663223
 11
3.59999
 21
0.69281
  0
LINE
  8
0
 10
3.59999
 20
0.69281
 11
3.64929
 21
0.719025
  0
LINE
  8
0
 10
3.64929
 20
0.719025
 11
3.7003
 21
0.741745
  0
LINE
  8
0
 10
3.7003
 20
0.741745
 11
3.75278
 21
0.760834
  0
LINE
  8
0
 10
3.75278
 20
0.760834
 11
3.80646
 21
0.77623
  0
LINE
  8
0
 10
3.80646
 20
0.77623
 11
3.86107
 21
0.787842
  0
LINE
  8
0
 10
3.86107
 20
0.787842
 11
3.91637
 21
0.795609
  0
LINE
  8
0
 10
3.91637
 20
0.795609
 11
3.97208
 21
0.7995
  0
LINE
  8
0
 10
3.97208
 20
0.7995
 11
4.02791
 21
0.7995
  0
LINE
  8
0
 10
4.02791
 20
0.7995
 11
4.08362
 21
0.795609
  0
LINE
  8
0
 10
4.08362
 20
0.795609
 11
4.13892
 21
0.787842
  0
LINE
  8
0
 10
4.13892
 20
0.787842
 11
4.19353
 21
0.77623
  0
LINE
  8
0
 10
4.19353
 20
0.77623
 11
4.24721
 21
0.760834
  0
LINE
  8
0
 10
4.24721
 20
0.760834
 11
4.29968
 21
0.741745
  0
LINE
  8
0
 10
4.29968
 20
0.741745
 11
4.35069
 21
0.719025
  0
LINE
  8
0
 10
4.35069
 20
0.719025
 11
4.39999
 21
0.69281
  0
LINE
  8
0
 10
4.39999
 20
0.69281
 11
4.44734
 21
0.663223
  0
LINE
  8
0
 10
4.44734
 20
0.663223
 11
4.49252
 21
0.630402
  0
LINE
  8
0
 10
4.49252
 20
0.630402
 11
4.53529
 21
0.594513
  0
LINE
  8
0
 10
4.53529
 20
0.594513
 11
4.57547
 21
0.555725
  0
LINE
  8
0
 10
4.57547
 20
0.555725
 11
4.61282
 21
0.514221
  0
LINE
  8
0
 10
4.61282
 20
0.514221
 11
4.6472
 21
0.470215
  0
LINE
  8
0
 10
4.6472
 20
0.470215
 11
4.67844
 21
0.423935
  0
LINE
  8
0
 10
4.67844
 20
0.423935
 11
4.70634
 21
0.375565
  0
LINE
  8
0
 10
4.70634
 20
0.375565
 11
4.73083
 21
0.325378
  0
LINE
  8
0
 10
4.73083
 20
0.325378
 11
4.75174
 21
0.273605
  0
LINE
  8
0
 10
4.75174
 20
0.273605
 11
4.769
 21
0.220505
  0
LINE
  8
0
 10
4.769
 20
0.220505
 11
4.78252
 21
0.166321
  0
LINE
  8
0
 10
4.78252
 20
0.166321
 11
4.79221
 21
0.111328
  0
LINE
  8
0
 10
4.79221
 20
0.111328
 11
4.79805
 21
0.0558014
  0
LINE
  8
0
 10
4.79805
 20
0.0558014
 11
4.79999
 21
0
  0
LINE
  8
0
 10
4.79999
 20
0
 11
4.79805
 21
-0.0558014
  0
LINE
  8
0
 10
4.79805
 20
-0.0558014
 11
4.79221
 21
-0.111328
  0
LINE
  8
0
 10
4.79221
 20
-0.111328
 11
4.78252
 21
-0.166321
  0
LINE
  8
0
 10
4.78252
 20
-0.166321
 11
4.769
 21
-0.220505
  0
LINE
  8
0
 10
4.769
 20
-0.220505
 11
4.75174
 21
-0.273605
  0
LINE
  8
0
 10
4.75174
 20
-0.273605
 11
4.73083
 21
-0.325378
  0
LINE
  8
0
 10
4.73083
 20
-0.325378
 11
4.70634
 21
-0.375565
  0
LINE
  8
0
 10
4.70634
 20
-0.375565
 11
4.67844
 21
-0.423935
  0
LINE
  8
0
 10
4.67844
 20
-0.423935
 11
4.6472
 21
-0.470215
  0
LINE
  8
0
 10
4.6472
 20
-0.470215
 11
4.61282
 21
-0.514221
  0
LINE
  8
0
 10
4.61282
 20
-0.514221
 11
4.57547
 21
-0.555725
  0
LINE
  8
0
 10
4.57547
 20
-0.555725
 11
4.53529
 21
-0.594513
  0
LINE
  8
0
 10
4.53529
 20
-0.594513
 11
4.49252
 21
-0.630402
  0
LINE
  8
0
 10
4.49252
 20
-0.630402
 11
4.44734
 21
-0.663223
  0
LINE
  8
0
 10
4.44734
 20
-0.663223
 11
4.39999
 21
-0.69281
  0
LINE
  8
0
 10
4.39999
 20
-0.69281
 11
4.35069
 21
-0.719025
  0
LINE
  8
0
 10
4.35069
 20
-0.719025
 11
4.29968
 21
-0.741745
  0
LINE
  8
0
 10
4.29968
 20
-0.741745
 11
4.24721
 21
-0.760834
  0
LINE
  8
0
 10
4.24721
 20
-0.760834
 11
4.19353
 21
-0.77623
  0
LINE
  8
0
 10
4.19353
 20
-0.77623
 11
4.13892
 21
-0.787842
  0
LINE
  8
0
 10
4.13892
 20
-0.787842
 11
4.08362
 21
-0.795609
  0
LINE
  8
0
 10
4.08362
 20
-0.795609
 11
4.02791
 21
-0.7995
  0
LINE
  8
0
 10
4.02791
 20
-0.7995
 11
3.97208
 21
-0.7995
  0
LINE
  8
0
 10
-0.0313568
 20
-0.298355
 11
-0.0725708
 21
-0.291077
  0
LINE
  8
0
 10
-0.0725708
 20
-0.291077
 11
-0.112381
 21
-0.278152
  0
LINE
  8
0
 10
-0.112381
 20
-0.278152
 11
-0.149994
 21
-0.259796
  0
LINE
  8
0
 10
-0.149994
 20
-0.259796
 11
-0.184692
 21
-0.236389
  0
LINE
  8
0
 10
-0.184692
 20
-0.236389
 11
-0.21579
 21
-0.208389
  0
LINE
  8
0
 10
-0.21579
 20
-0.208389
 11
-0.242691
 21
-0.176331
  0
LINE
  8
0
 10
-0.242691
 20
-0.176331
 11
-0.264877
 21
-0.140839
  0
LINE
  8
0
 10
-0.264877
 20
-0.140839
 11
-0.281906
 21
-0.1026
  0
LINE
  8
0
 10
-0.281906
 20
-0.1026
 11
-0.293442
 21
-0.0623627
  0
LINE
  8
0
 10
-0.293442
 20
-0.0623627
 11
-0.299255
 21
-0.0209198
  0
LINE
  8
0
 10
-0.299255
 20
-0.0209198
 11
-0.299255
 21
0.0209198
  0
LINE
  8
0
 10
-0.299255
 20
0.0209198
 11
-0.293442
 21
0.0623627
  0
LINE
  8
0
 10
-0.293442
 20
0.0623627
 11
-0.281906
 21
0.1026
  0
LINE
  8
0
 10
-0.281906
 20
0.1026
 11
-0.264877
 21
0.140839
  0
LINE
  8
0
 10
-0.264877
 20
0.140839
 11
-0.242691
 21
0.176331
  0
LINE
  8
0
 10
-0.242691
 20
0.176331
 11
-0.21579
 21
0.208389
  0
LINE
  8
0
 10
-0.21579
 20
0.208389
 11
-0.184692
 21
0.236389
  0
LINE
  8
0
 10
-0.184692
 20
0.236389
 11
-0.149994
 21
0.259796
  0
LINE
  8
0
 10
-0.149994
 20
0.259796
 11
-0.112381
 21
0.278152
  0
LINE
  8
0
 10
-0.112381
 20
0.278152
 11
-0.0725708
 21
0.291077
  0
LINE
  8
0
 10
-0.0725708
 20
0.291077
 11
-0.0313568
 21
0.298355
  0
LINE
  8
0
 10
-0.0313568
 20
0.298355
 11
0.0104675
 21
0.299805
  0
LINE
  8
0
 10
0.0104675
 20
0.299805
 11
0.0520935
 21
0.295441
  0
LINE
  8
0
 10
0.0520935
 20
0.295441
 11
0.0926971
 21
0.285309
  0
LINE
  8
0
 10
0.0926971
 20
0.285309
 11
0.1315
 21
0.269638
  0
LINE
  8
0
 10
0.1315
 20
0.269638
 11
0.167755
 21
0.248703
  0
LINE
  8
0
 10
0.167755
 20
0.248703
 11
0.200729
 21
0.222931
  0
LINE
  8
0
 10
0.200729
 20
0.222931
 11
0.229813
 21
0.192825
  0
LINE
  8
0
 10
0.229813
 20
0.192825
 11
0.25441
 21
0.158966
  0
LINE
  8
0
 10
0.25441
 20
0.158966
 11
0.274063
 21
0.122009
  0
LINE
  8
0
 10
0.274063
 20
0.122009
 11
0.288376
 21
0.0826874
  0
LINE
  8
0
 10
0.288376
 20
0.0826874
 11
0.297073
 21
0.041748
  0
LINE
  8
0
 10
0.297073
 20
0.041748
 11
0.299988
 21
0
  0
LINE
  8
0
 10
0.299988
 20
0
 11
0.297073
 21
-0.041748
  0
LINE
  8
0
 10
0.297073
 20
-0.041748
 11
0.288376
 21
-0.0826874
  0
LINE
  8
0
 10
0.288376
 20
-0.0826874
 11
0.274063
 21
-0.122009
  0
LINE
  8
0
 10
0.274063
 20
-0.122009
 11
0.25441
 21
-0.158966
  0
LINE
  8
0
 10
0.25441
 20
-0.158966
 11
0.229813
 21
-0.192825
  0
LINE
  8
0
 10
0.229813
 20
-0.192825
 11
0.200729
 21
-0.222931
  0
LINE
  8
0
 10
0.200729
 20
-0.222931
 11
0.167755
 21
-0.248703
  0
LINE
  8
0
 10
0.167755
 20
-0.248703
 11
0.1315
 21
-0.269638
  0
LINE
  8
0
 10
0.1315
 20
-0.269638
 11
0.0926971
 21
-0.285309
  0
LINE
  8
0
 10
0.0926971
 20
-0.285309
 11
0.0520935
 21
-0.295441
  0
LINE
  8
0
 10
0.0520935
 20
-0.295441
 11
0.0104675
 21
-0.299805
  0
LINE
  8
0
 10
0.0104675
 20
-0.299805
 11
-0.0313568
 21
-0.298355
  0
LINE
  8
0
 10
0.851044
 20
-0.845322
 11
0.91925
 21
-0.771332
  0
LINE
  8
0
 10
0.91925
 20
-0.771332
 11
0.97081
 21
-0.705338
  0
LINE
  8
0
 10
0.97081
 20
-0.705338
 11
1.01376
 21
-0.641678
  0
LINE
  8
0
 10
1.01376
 20
-0.641678
 11
2.3154
 21
-0.938766
  0
LINE
  8
0
 10
2.3154
 20
-0.938766
 11
2.28386
 21
-1.01683
  0
LINE
  8
0
 10
2.28386
 20
-1.01683
 11
2.20737
 21
-1.17368
  0
LINE
  8
0
 10
2.20737
 20
-1.17368
 11
2.12012
 21
-1.32478
  0
LINE
  8
0
 10
2.12012
 20
-1.32478
 11
2.02254
 21
-1.46945
  0
LINE
  8
0
 10
2.02254
 20
-1.46945
 11
1.9151
 21
-1.60696
  0
LINE
  8
0
 10
1.9151
 20
-1.60696
 11
1.79834
 21
-1.73663
  0
LINE
  8
0
 10
1.79834
 20
-1.73663
 11
1.67282
 21
-1.85785
  0
LINE
  8
0
 10
1.67282
 20
-1.85785
 11
1.53914
 21
-1.97002
  0
LINE
  8
0
 10
1.53914
 20
-1.97002
 11
1.43063
 21
-2.04886
  0
LINE
  8
0
 10
1.43063
 20
-2.04886
 11
0.851044
 21
-0.845322
  0
LINE
  8
0
 10
-1.53914
 20
-1.97002
 11
-1.67282
 21
-1.85785
  0
LINE
  8
0
 10
-1.67282
 20
-1.85785
 11
-1.79834
 21
-1.73663
  0
LINE
  8
0
 10
-1.79834
 20
-1.73663
 11
-1.9151
 21
-1.60696
  0
LINE
  8
0
 10
-1.9151
 20
-1.60696
 11
-2.02254
 21
-1.46945
  0
LINE
  8
0
 10
-2.02254
 20
-1.46945
 11
-2.12012
 21
-1.32478
  0
LINE
  8
0
 10
-2.12012
 20
-1.32478
 11
-2.20737
 21
-1.17368
  0
LINE
  8
0
 10
-2.20737
 20
-1.17368
 11
-2.28386
 21
-1.01683
  0
LINE
  8
0
 10
-2.28386
 20
-1.01683
 11
-2.3154
 21
-0.938766
  0
LINE
  8
0
 10
-2.3154
 20
-0.938766
 11
-1.01376
 21
-0.641678
  0
LINE
  8
0
 10
-1.01376
 20
-0.641678
 11
-0.97081
 21
-0.705338
  0
LINE
  8
0
 10
-0.97081
 20
-0.705338
 11
-0.91925
 21
-0.771332
  0
LINE
  8
0
 10
-0.91925
 20
-0.771332
 11
-0.851044
 21
-0.845322
  0
LINE
  8
0
 10
-0.851044
 20
-0.845322
 11
-1.43063
 21
-2.04886
  0
LINE
  8
0
 10
-1.43063
 20
-2.04886
 11
-1.53914
 21
-1.97002
  0
LINE
  8
0
 10
-0.0872345
 20
-2.49847
 11
-0.261307
 21
-2.4863
  0
LINE
  8
0
 10
-0.261307
 20
-2.4863
 11
-0.434113
 21
-2.46201
  0
LINE
  8
0
 10
-0.434113
 20
-2.46201
 11
-0.604797
 21
-2.42574
  0
LINE
  8
0
 10
-0.604797
 20
-2.42574
 11
-0.709717
 21
-2.39565
  0
LINE
  8
0
 10
-0.709717
 20
-2.39565
 11
-0.130417
 21
-1.19272
  0
LINE
  8
0
 10
-0.130417
 20
-1.19272
 11
-0.0418701
 21
-1.19926
  0
LINE
  8
0
 10
-0.0418701
 20
-1.19926
 11
0.0418701
 21
-1.19926
  0
LINE
  8
0
 10
0.0418701
 20
-1.19926
 11
0.130417
 21
-1.19272
  0
LINE
  8
0
 10
0.130417
 20
-1.19272
 11
0.709717
 21
-2.39565
  0
LINE
  8
0
 10
0.709717
 20
-2.39565
 11
0.604797
 21
-2.42574
  0
LINE
  8
0
 10
0.604797
 20
-2.42574
 11
0.434113
 21
-2.46201
  0
LINE
  8
0
 10
0.434113
 20
-2.46201
 11
0.261307
 21
-2.4863
  0
LINE
  8
0
 10
0.261307
 20
-2.4863
 11
0.0872345
 21
-2.49847
  0
LINE
  8
0
 10
0.0872345
 20
-2.49847
 11
-0.0872345
 21
-2.49847
  0
LINE
  8
0
 10
2.78654
 20
-3.62732
 11
2.73093
 21
-3.62245
  0
LINE
  8
0
 10
2.73093
 20
-3.62245
 11
2.67577
 21
-3.61372
  0
LINE
  8
0
 10
2.67577
 20
-3.61372
 11
2.62137
 21
-3.60117
  0
LINE
  8
0
 10
2.62137
 20
-3.60117
 11
2.56796
 21
-3.58484
  0
LINE
  8
0
 10
2.56796
 20
-3.58484
 11
2.51584
 21
-3.56482
  0
LINE
  8
0
 10
2.51584
 20
-3.56482
 11
2.46523
 21
-3.54123
  0
LINE
  8
0
 10
2.46523
 20
-3.54123
 11
2.41638
 21
-3.51416
  0
LINE
  8
0
 10
2.41638
 20
-3.51416
 11
2.36955
 21
-3.48373
  0
LINE
  8
0
 10
2.36955
 20
-3.48373
 11
2.32497
 21
-3.45013
  0
LINE
  8
0
 10
2.32497
 20
-3.45013
 11
2.28282
 21
-3.4135
  0
LINE
  8
0
 10
2.28282
 20
-3.4135
 11
2.24333
 21
-3.37402
  0
LINE
  8
0
 10
2.24333
 20
-3.37402
 11
2.2067
 21
-3.33188
  0
LINE
  8
0
 10
2.2067
 20
-3.33188
 11
2.1731
 21
-3.28728
  0
LINE
  8
0
 10
2.1731
 20
-3.28728
 11
2.14268
 21
-3.24045
  0
LINE
  8
0
 10
2.14268
 20
-3.24045
 11
2.11562
 21
-3.1916
  0
LINE
  8
0
 10
2.11562
 20
-3.1916
 11
2.09201
 21
-3.14101
  0
LINE
  8
0
 10
2.09201
 20
-3.14101
 11
2.07201
 21
-3.08887
  0
LINE
  8
0
 10
2.07201
 20
-3.08887
 11
2.05568
 21
-3.03548
  0
LINE
  8
0
 10
2.05568
 20
-3.03548
 11
2.04312
 21
-2.98106
  0
LINE
  8
0
 10
2.04312
 20
-2.98106
 11
2.03438
 21
-2.92592
  0
LINE
  8
0
 10
2.03438
 20
-2.92592
 11
2.02951
 21
-2.87029
  0
LINE
  8
0
 10
2.02951
 20
-2.87029
 11
2.02853
 21
-2.81445
  0
LINE
  8
0
 10
2.02853
 20
-2.81445
 11
2.03146
 21
-2.7587
  0
LINE
  8
0
 10
2.03146
 20
-2.7587
 11
2.03827
 21
-2.70328
  0
LINE
  8
0
 10
2.03827
 20
-2.70328
 11
2.04892
 21
-2.64845
  0
LINE
  8
0
 10
2.04892
 20
-2.64845
 11
2.06337
 21
-2.59453
  0
LINE
  8
0
 10
2.06337
 20
-2.59453
 11
2.08156
 21
-2.54172
  0
LINE
  8
0
 10
2.08156
 20
-2.54172
 11
2.10338
 21
-2.49033
  0
LINE
  8
0
 10
2.10338
 20
-2.49033
 11
2.12872
 21
-2.44057
  0
LINE
  8
0
 10
2.12872
 20
-2.44057
 11
2.15749
 21
-2.39272
  0
LINE
  8
0
 10
2.15749
 20
-2.39272
 11
2.18951
 21
-2.34697
  0
LINE
  8
0
 10
2.18951
 20
-2.34697
 11
2.22466
 21
-2.30357
  0
LINE
  8
0
 10
2.22466
 20
-2.30357
 11
2.26274
 21
-2.26274
  0
LINE
  8
0
 10
2.26274
 20
-2.26274
 11
2.30357
 21
-2.22466
  0
LINE
  8
0
 10
2.30357
 20
-2.22466
 11
2.34697
 21
-2.18951
  0
LINE
  8
0
 10
2.34697
 20
-2.18951
 11
2.39272
 21
-2.15749
  0
LINE
  8
0
 10
2.39272
 20
-2.15749
 11
2.44057
 21
-2.12872
  0
LINE
  8
0
 10
2.44057
 20
-2.12872
 11
2.49033
 21
-2.10338
  0
LINE
  8
0
 10
2.49033
 20
-2.10338
 11
2.54172
 21
-2.08156
  0
LINE
  8
0
 10
2.54172
 20
-2.08156
 11
2.59453
 21
-2.06337
  0
LINE
  8
0
 10
2.59453
 20
-2.06337
 11
2.64845
 21
-2.04892
  0
LINE
  8
0
 10
2.64845
 20
-2.04892
 11
2.70328
 21
-2.03827
  0
LINE
  8
0
 10
2.70328
 20
-2.03827
 11
2.7587
 21
-2.03146
  0
LINE
  8
0
 10
2.7587
 20
-2.03146
 11
2.81445
 21
-2.02853
  0
LINE
  8
0
 10
2.81445
 20
-2.02853
 11
2.87029
 21
-2.02951
  0
LINE
  8
0
 10
2.87029
 20
-2.02951
 11
2.92592
 21
-2.03438
  0
LINE
  8
0
 10
2.92592
 20
-2.03438
 11
2.98106
 21
-2.04312
  0
LINE
  8
0
 10
2.98106
 20
-2.04312
 11
3.03548
 21
-2.05568
  0
LINE
  8
0
 10
3.03548
 20
-2.05568
 11
3.08887
 21
-2.07201
  0
LINE
  8
0
 10
3.08887
 20
-2.07201
 11
3.14101
 21
-2.09201
  0
LINE
  8
0
 10
3.14101
 20
-2.09201
 11
3.1916
 21
-2.11562
  0
LINE
  8
0
 10
3.1916
 20
-2.11562
 11
3.24045
 21
-2.14268
  0
LINE
  8
0
 10
3.24045
 20
-2.14268
 11
3.28728
 21
-2.1731
  0
LINE
  8
0
 10
3.28728
 20
-2.1731
 11
3.33188
 21
-2.2067
  0
LINE
  8
0
 10
3.33188
 20
-2.2067
 11
3.37402
 21
-2.24333
  0
LINE
  8
0
 10
3.37402
 20
-2.24333
 11
3.4135
 21
-2.28282
  0
LINE
  8
0
 10
3.4135
 20
-2.28282
 11
3.45013
 21
-2.32497
  0
LINE
  8
0
 10
3.45013
 20
-2.32497
 11
3.48373
 21
-2.36955
  0
LINE
  8
0
 10
3.48373
 20
-2.36955
 11
3.51416
 21
-2.41638
  0
LINE
  8
0
 10
3.51416
 20
-2.41638
 11
3.54123
 21
-2.46523
  0
LINE
  8
0
 10
3.54123
 20
-2.46523
 11
3.56482
 21
-2.51584
  0
LINE
  8
0
 10
3.56482
 20
-2.51584
 11
3.58484
 21
-2.56796
  0
LINE
  8
0
 10
3.58484
 20
-2.56796
 11
3.60117
 21
-2.62137
  0
LINE
  8
0
 10
3.60117
 20
-2.62137
 11
3.61372
 21
-2.67577
  0
LINE
  8
0
 10
3.61372
 20
-2.67577
 11
3.62245
 21
-2.73093
  0
LINE
  8
0
 10
3.62245
 20
-2.73093
 11
3.62732
 21
-2.78654
  0
LINE
  8
0
 10
3.62732
 20
-2.78654
 11
3.6283
 21
-2.84238
  0
LINE
  8
0
 10
3.6283
 20
-2.84238
 11
3.62538
 21
-2.89815
  0
LINE
  8
0
 10
3.62538
 20
-2.89815
 11
3.61858
 21
-2.95357
  0
LINE
  8
0
 10
3.61858
 20
-2.95357
 11
3.60791
 21
-3.00838
  0
LINE
  8
0
 10
3.60791
 20
-3.00838
 11
3.59346
 21
-3.06232
  0
LINE
  8
0
 10
3.59346
 20
-3.06232
 11
3.57529
 21
-3.11511
  0
LINE
  8
0
 10
3.57529
 20
-3.11511
 11
3.55347
 21
-3.16652
  0
LINE
  8
0
 10
3.55347
 20
-3.16652
 11
3.52812
 21
-3.21626
  0
LINE
  8
0
 10
3.52812
 20
-3.21626
 11
3.49936
 21
-3.26413
  0
LINE
  8
0
 10
3.49936
 20
-3.26413
 11
3.46733
 21
-3.30988
  0
LINE
  8
0
 10
3.46733
 20
-3.30988
 11
3.43219
 21
-3.35327
  0
LINE
  8
0
 10
3.43219
 20
-3.35327
 11
3.3941
 21
-3.3941
  0
LINE
  8
0
 10
3.3941
 20
-3.3941
 11
3.35327
 21
-3.43219
  0
LINE
  8
0
 10
3.35327
 20
-3.43219
 11
3.30988
 21
-3.46733
  0
LINE
  8
0
 10
3.30988
 20
-3.46733
 11
3.26413
 21
-3.49936
  0
LINE
  8
0
 10
3.26413
 20
-3.49936
 11
3.21626
 21
-3.52812
  0
LINE
  8
0
 10
3.21626
 20
-3.52812
 11
3.16652
 21
-3.55347
  0
LINE
  8
0
 10
3.16652
 20
-3.55347
 11
3.11511
 21
-3.57529
  0
LINE
  8
0
 10
3.11511
 20
-3.57529
 11
3.06232
 21
-3.59346
  0
LINE
  8
0
 10
3.06232
 20
-3.59346
 11
3.00838
 21
-3.60791
  0
LINE
  8
0
 10
3.00838
 20
-3.60791
 11
2.95357
 21
-3.61858
  0
LINE
  8
0
 10
2.95357
 20
-3.61858
 11
2.89815
 21
-3.62538
  0
LINE
  8
0
 10
2.89815
 20
-3.62538
 11
2.84238
 21
-3.6283
  0
LINE
  8
0
 10
2.84238
 20
-3.6283
 11
2.78654
 21
-3.62732
  0
LINE
  8
0
 10
-2.89815
 20
-3.62538
 11
-2.95357
 21
-3.61858
  0
LINE
  8
0
 10
-2.95357
 20
-3.61858
 11
-3.00838
 21
-3.60791
  0
LINE
  8
0
 10
-3.00838
 20
-3.60791
 11
-3.06232
 21
-3.59346
  0
LINE
  8
0
 10
-3.06232
 20
-3.59346
 11
-3.11511
 21
-3.57529
  0
LINE
  8
0
 10
-3.11511
 20
-3.57529
 11
-3.16652
 21
-3.55347
  0
LINE
  8
0
 10
-3.16652
 20
-3.55347
 11
-3.21626
 21
-3.52812
  0
LINE
  8
0
 10
-3.21626
 20
-3.52812
 11
-3.26413
 21
-3.49936
  0
LINE
  8
0
 10
-3.26413
 20
-3.49936
 11
-3.30988
 21
-3.46733
  0
LINE
  8
0
 10
-3.30988
 20
-3.46733
 11
-3.35327
 21
-3.43219
  0
LINE
  8
0
 10
-3.35327
 20
-3.43219
 11
-3.3941
 21
-3.3941
  0
LINE
  8
0
 10
-3.3941
 20
-3.3941
 11
-3.43219
 21
-3.35327
  0
LINE
  8
0
 10
-3.43219
 20
-3.35327
 11
-3.46733
 21
-3.30988
  0
LINE
  8
0
 10
-3.46733
 20
-3.30988
 11
-3.49936
 21
-3.26413
  0
LINE
  8
0
 10
-3.49936
 20
-3.26413
 11
-3.52812
 21
-3.21626
  0
LINE
  8
0
 10
-3.52812
 20
-3.21626
 11
-3.55347
 21
-3.16652
  0
LINE
  8
0
 10
-3.55347
 20
-3.16652
 11
-3.57529
 21
-3.11511
  0
LINE
  8
0
 10
-3.57529
 20
-3.11511
 11
-3.59346
 21
-3.06232
  0
LINE
  8
0
 10
-3.59346
 20
-3.06232
 11
-3.60791
 21
-3.00838
  0
LINE
  8
0
 10
-3.60791
 20
-3.00838
 11
-3.61858
 21
-2.95357
  0
LINE
  8
0
 10
-3.61858
 20
-2.95357
 11
-3.62538
 21
-2.89815
  0
LINE
  8
0
 10
-3.62538
 20
-2.89815
 11
-3.6283
 21
-2.84238
  0
LINE
  8
0
 10
-3.6283
 20
-2.84238
 11
-3.62732
 21
-2.78654
  0
LINE
  8
0
 10
-3.62732
 20
-2.78654
 11
-3.62245
 21
-2.73093
  0
LINE
  8
0
 10
-3.62245
 20
-2.73093
 11
-3.61372
 21
-2.67577
  0
LINE
  8
0
 10
-3.61372
 20
-2.67577
 11
-3.60117
 21
-2.62137
  0
LINE
  8
0
 10
-3.60117
 20
-2.62137
 11
-3.58484
 21
-2.56796
  0
LINE
  8
0
 10
-3.58484
 20
-2.56796
 11
-3.56482
 21
-2.51584
  0
LINE
  8
0
 10
-3.56482
 20
-2.51584
 11
-3.54123
 21
-2.46523
  0
LINE
  8
0
 10
-3.54123
 20
-2.46523
 11
-3.51416
 21
-2.41638
  0
LINE
  8
0
 10
-3.51416
 20
-2.41638
 11
-3.48373
 21
-2.36955
  0
LINE
  8
0
 10
-3.48373
 20
-2.36955
 11
-3.45013
 21
-2.32497
  0
LINE
  8
0
 10
-3.45013
 20
-2.32497
 11
-3.4135
 21
-2.28282
  0
LINE
  8
0
 10
-3.4135
 20
-2.28282
 11
-3.37402
 21
-2.24333
  0
LINE
  8
0
 10
-3.37402
 20
-2.24333
 11
-3.33188
 21
-2.2067
  0
LINE
  8
0
 10
-3.33188
 20
-2.2067
 11
-3.28728
 21
-2.1731
  0
LINE
  8
0
 10
-3.28728
 20
-2.1731
 11
-3.24045
 21
-2.14268
  0
LINE
  8
0
 10
-3.24045
 20
-2.14268
 11
-3.1916
 21
-2.11562
  0
LINE
  8
0
 10
-3.1916
 20
-2.11562
 11
-3.14101
 21
-2.09201
  0
LINE
  8
0
 10
-3.14101
 20
-2.09201
 11
-3.08887
 21
-2.07201
  0
LINE
  8
0
 10
-3.08887
 20
-2.07201
 11
-3.03548
 21
-2.05568
  0
LINE
  8
0
 10
-3.03548
 20
-2.05568
 11
-2.98106
 21
-2.04312
  0
LINE
  8
0
 10
-2.98106
 20
-2.04312
 11
-2.92592
 21
-2.03438
  0
LINE
  8
0
 10
-2.92592
 20
-2.03438
 11
-2.87029
 21
-2.02951
  0
LINE
  8
0
 10
-2.87029
 20
-2.02951
 11
-2.81445
 21
-2.02853
  0
LINE
  8
0
 10
-2.81445
 20
-2.02853
 11
-2.7587
 21
-2.03146
  0
LINE
  8
0
 10
-2.7587
 20
-2.03146
 11
-2.70328
 21
-2.03827
  0
LINE
  8
0
 10
-2.70328
 20
-2.03827
 11
-2.64845
 21
-2.04892
  0
LINE
  8
0
 10
-2.64845
 20
-2.04892
 11
-2.59453
 21
-2.06337
  0
LINE
  8
0
 10
-2.59453
 20
-2.06337
 11
-2.54172
 21
-2.08156
  0
LINE
  8
0
 10
-2.54172
 20
-2.08156
 11
-2.49033
 21
-2.10338
  0
LINE
  8
0
 10
-2.49033
 20
-2.10338
 11
-2.44057
 21
-2.12872
  0
LINE
  8
0
 10
-2.44057
 20
-2.12872
 11
-2.39272
 21
-2.15749
  0
LINE
  8
0
 10
-2.39272
 20
-2.15749
 11
-2.34697
 21
-2.18951
  0
LINE
  8
0
 10
-2.34697
 20
-2.18951
 11
-2.30357
 21
-2.22466
  0
LINE
  8
0
 10
-2.30357
 20
-2.22466
 11
-2.26274
 21
-2.26274
  0
LINE
  8
0
 10
-2.26274
 20
-2.26274
 11
-2.22466
 21
-2.30357
  0
LINE
  8
0
 10
-2.22466
 20
-2.30357
 11
-2.18951
 21
-2.34697
  0
LINE
  8
0
 10
-2.18951
 20
-2.34697
 11
-2.15749
 21
-2.39272
  0
LINE
  8
0
 10
-2.15749
 20
-2.39272
 11
-2.12872
 21
-2.44057
  0
LINE
  8
0
 10
-2.12872
 20
-2.44057
 11
-2.10338
 21
-2.49033
  0
LINE
  8
0
 10
-2.10338
 20
-2.49033
 11
-2.08156
 21
-2.54172
  0
LINE
  8
0
 10
-2.08156
 20
-2.54172
 11
-2.06337
 21
-2.59453
  0
LINE
  8
0
 10
-2.06337
 20
-2.59453
 11
-2.04892
 21
-2.64845
  0
LINE
  8
0
 10
-2.04892
 20
-2.64845
 11
-2.03827
 21
-2.70328
  0
LINE
  8
0
 10
-2.03827
 20
-2.70328
 11
-2.03146
 21
-2.7587
  0
LINE
  8
0
 10
-2.03146
 20
-2.7587
 11
-2.02853
 21
-2.81445
  0
LINE
  8
0
 10
-2.02853
 20
-2.81445
 11
-2.02951
 21
-2.87029
  0
LINE
  8
0
 10
-2.02951
 20
-2.87029
 11
-2.03438
 21
-2.92592
  0
LINE
  8
0
 10
-2.03438
 20
-2.92592
 11
-2.04312
 21
-2.98106
  0
LINE
  8
0
 10
-2.04312
 20
-2.98106
 11
-2.05568
 21
-3.03548
  0
LINE
  8
0
 10
-2.05568
 20
-3.03548
 11
-2.07201
 21
-3.08887
  0
LINE
  8
0
 10
-2.07201
 20
-3.08887
 11
-2.09201
 21
-3.14101
  0
LINE
  8
0
 10
-2.09201
 20
-3.14101
 11
-2.11562
 21
-3.1916
  0
LINE
  8
0
 10
-2.11562
 20
-3.1916
 11
-2.14268
 21
-3.24045
  0
LINE
  8
0
 10
-2.14268
 20
-3.24045
 11
-2.1731
 21
-3.28728
  0
LINE
  8
0
 10
-2.1731
 20
-3.28728
 11
-2.2067
 21
-3.33188
  0
LINE
  8
0
 10
-2.2067
 20
-3.33188
 11
-2.24333
 21
-3.37402
  0
LINE
  8
0
 10
-2.24333
 20
-3.37402
 11
-2.28282
 21
-3.4135
  0
LINE
  8
0
 10
-2.28282
 20
-3.4135
 11
-2.32497
 21
-3.45013
  0
LINE
  8
0
 10
-2.32497
 20
-3.45013
 11
-2.36955
 21
-3.48373
  0
LINE
  8
0
 10
-2.36955
 20
-3.48373
 11
-2.41638
 21
-3.51416
  0
LINE
  8
0
 10
-2.41638
 20
-3.51416
 11
-2.46523
 21
-3.54123
  0
LINE
  8
0
 10
-2.46523
 20
-3.54123
 11
-2.51584
 21
-3.56482
  0
LINE
  8
0
 10
-2.51584
 20
-3.56482
 11
-2.56796
 21
-3.58484
  0
LINE
  8
0
 10
-2.56796
 20
-3.58484
 11
-2.62137
 21
-3.60117
  0
LINE
  8
0
 10
-2.62137
 20
-3.60117
 11
-2.67577
 21
-3.61372
  0
LINE
  8
0
 10
-2.67577
 20
-3.61372
 11
-2.73093
 21
-3.62245
  0
LINE
  8
0
 10
-2.73093
 20
-3.62245
 11
-2.78654
 21
-3.62732
  0
LINE
  8
0
 10
-2.78654
 20
-3.62732
 11
-2.84238
 21
-3.6283
  0
LINE
  8
0
 10
-2.84238
 20
-3.6283
 11
-2.89815
 21
-3.62538
  0
LINE
  8
0
 10
-0.0558014
 20
-4.79805
 11
-0.111328
 21
-4.79221
  0
LINE
  8
0
 10
-0.111328
 20
-4.79221
 11
-0.166321
 21
-4.78252
  0
LINE
  8
0
 10
-0.166321
 20
-4.78252
 11
-0.220505
 21
-4.769
  0
LINE
  8
0
 10
-0.220505
 20
-4.769
 11
-0.273605
 21
-4.75174
  0
LINE
  8
0
 10
-0.273605
 20
-4.75174
 11
-0.325378
 21
-4.73083
  0
LINE
  8
0
 10
-0.325378
 20
-4.73083
 11
-0.375565
 21
-4.70634
  0
LINE
  8
0
 10
-0.375565
 20
-4.70634
 11
-0.423935
 21
-4.67844
  0
LINE
  8
0
 10
-0.423935
 20
-4.67844
 11
-0.470215
 21
-4.6472
  0
LINE
  8
0
 10
-0.470215
 20
-4.6472
 11
-0.514221
 21
-4.61282
  0
LINE
  8
0
 10
-0.514221
 20
-4.61282
 11
-0.555725
 21
-4.57547
  0
LINE
  8
0
 10
-0.555725
 20
-4.57547
 11
-0.594513
 21
-4.53529
  0
LINE
  8
0
 10
-0.594513
 20
-4.53529
 11
-0.630402
 21
-4.49252
  0
LINE
  8
0
 10
-0.630402
 20
-4.49252
 11
-0.663223
 21
-4.44734
  0
LINE
  8
0
 10
-0.663223
 20
-4.44734
 11
-0.69281
 21
-4.39999
  0
LINE
  8
0
 10
-0.69281
 20
-4.39999
 11
-0.719025
 21
-4.35069
  0
LINE
  8
0
 10
-0.719025
 20
-4.35069
 11
-0.741745
 21
-4.29968
  0
LINE
  8
0
 10
-0.741745
 20
-4.29968
 11
-0.760834
 21
-4.24721
  0
LINE
  8
0
 10
-0.760834
 20
-4.24721
 11
-0.77623
 21
-4.19353
  0
LINE
  8
0
 10
-0.77623
 20
-4.19353
 11
-0.787842
 21
-4.13892
  0
LINE
  8
0
 10
-0.787842
 20
-4.13892
 11
-0.795609
 21
-4.08362
  0
LINE
  8
0
 10
-0.795609
 20
-4.08362
 11
-0.7995
 21
-4.02791
  0
LINE
  8
0
 10
-0.7995
 20
-4.02791
 11
-0.7995
 21
-3.97208
  0
LINE
  8
0
 10
-0.7995
 20
-3.97208
 11
-0.795609
 21
-3.91637
  0
LINE
  8
0
 10
-0.795609
 20
-3.91637
 11
-0.787842
 21
-3.86107
  0
LINE
  8
0
 10
-0.787842
 20
-3.86107
 11
-0.77623
 21
-3.80646
  0
LINE
  8
0
 10
-0.77623
 20
-3.80646
 11
-0.760834
 21
-3.75278
  0
LINE
  8
0
 10
-0.760834
 20
-3.75278
 11
-0.741745
 21
-3.7003
  0
LINE
  8
0
 10
-0.741745
 20
-3.7003
 11
-0.719025
 21
-3.64929
  0
LINE
  8
0
 10
-0.719025
 20
-3.64929
 11
-0.69281
 21
-3.59999
  0
LINE
  8
0
 10
-0.69281
 20
-3.59999
 11
-0.663223
 21
-3.55264
  0
LINE
  8
0
 10
-0.663223
 20
-3.55264
 11
-0.630402
 21
-3.50746
  0
LINE
  8
0
 10
-0.630402
 20
-3.50746
 11
-0.594513
 21
-3.46469
  0
LINE
  8
0
 10
-0.594513
 20
-3.46469
 11
-0.555725
 21
-3.42451
  0
LINE
  8
0
 10
-0.555725
 20
-3.42451
 11
-0.514221
 21
-3.38716
  0
LINE
  8
0
 10
-0.514221
 20
-3.38716
 11
-0.470215
 21
-3.35278
  0
LINE
  8
0
 10
-0.470215
 20
-3.35278
 11
-0.423935
 21
-3.32155
  0
LINE
  8
0
 10
-0.423935
 20
-3.32155
 11
-0.375565
 21
-3.29364
  0
LINE
  8
0
 10
-0.375565
 20
-3.29364
 11
-0.325378
 21
-3.26915
  0
LINE
  8
0
 10
-0.325378
 20
-3.26915
 11
-0.273605
 21
-3.24825
  0
LINE
  8
0
 10
-0.273605
 20
-3.24825
 11
-0.220505
 21
-3.23099
  0
LINE
  8
0
 10
-0.220505
 20
-3.23099
 11
-0.166321
 21
-3.21747
  0
LINE
  8
0
 10
-0.166321
 20
-3.21747
 11
-0.111328
 21
-3.20778
  0
LINE
  8
0
 10
-0.111328
 20
-3.20778
 11
-0.0558014
 21
-3.20193
  0
LINE
  8
0
 10
-0.0558014
 20
-3.20193
 11
0
 21
-3.2
  0
LINE
  8
0
 10
0
 20
-3.2
 11
0.0558014
 21
-3.20193
  0
LINE
  8
0
 10
0.0558014
 20
-3.20193
 11
0.111328
 21
-3.20778
  0
LINE
  8
0
 10
0.111328
 20
-3.20778
 11
0.166321
 21
-3.21747
  0
LINE
  8
0
 10
0.166321
 20
-3.21747
 11
0.220505
 21
-3.23099
  0
LINE
  8
0
 10
0.220505
 20
-3.23099
 11
0.273605
 21
-3.24825
  0
LINE
  8
0
 10
0.273605
 20
-3.24825
 11
0.325378
 21
-3.26915
  0
LINE
  8
0
 10
0.325378
 20
-3.26915
 11
0.375565
 21
-3.29364
  0
LINE
  8
0
 10
0.375565
 20
-3.29364
 11
0.423935
 21
-3.32155
  0
LINE
  8
0
 10
0.423935
 20
-3.32155
 11
0.470215
 21
-3.35278
  0
LINE
  8
0
 10
0.470215
 20
-3.35278
 11
0.514221
 21
-3.38716
  0
LINE
  8
0
 10
0.514221
 20
-3.38716
 11
0.555725
 21
-3.42451
  0
LINE
  8
0
 10
0.555725
 20
-3.42451
 11
0.594513
 21
-3.46469
  0
LINE
  8
0
 10
0.594513
 20
-3.46469
 11
0.630402
 21
-3.50746
  0
LINE
  8
0
 10
0.630402
 20
-3.50746
 11
0.663223
 21
-3.55264
  0
LINE
  8
0
 10
0.663223
 20
-3.55264
 11
0.69281
 21
-3.59999
  0
LINE
  8
0
 10
0.69281
 20
-3.59999
 11
0.719025
 21
-3.64929
  0
LINE
  8
0
 10
0.719025
 20
-3.64929
 11
0.741745
 21
-3.7003
  0
LINE
  8
0
 10
0.741745
 20
-3.7003
 11
0.760834
 21
-3.75278
  0
LINE
  8
0
 10
0.760834
 20
-3.75278
 11
0.77623
 21
-3.80646
  0
LINE
  8
0
 10
0.77623
 20
-3.80646
 11
0.787842
 21
-3.86107
  0
LINE
  8
0
 10
0.787842
 20
-3.86107
 11
0.795609
 21
-3.91637
  0
LINE
  8
0
 10
0.795609
 20
-3.91637
 11
0.7995
 21
-3.97208
  0
LINE
  8
0
 10
0.7995
 20
-3.97208
 11
0.7995
 21
-4.02791
  0
LINE
  8
0
 10
0.7995
 20
-4.02791
 11
0.795609
 21
-4.08362
  0
LINE
  8
0
 10
0.795609
 20
-4.08362
 11
0.787842
 21
-4.13892
  0
LINE
  8
0
 10
0.787842
 20
-4.13892
 11
0.77623
 21
-4.19353
  0
LINE
  8
0
 10
0.77623
 20
-4.19353
 11
0.760834
 21
-4.24721
  0
LINE
  8
0
 10
0.760834
 20
-4.24721
 11
0.741745
 21
-4.29968
  0
LINE
  8
0
 10
0.741745
 20
-4.29968
 11
0.719025
 21
-4.35069
  0
LINE
  8
0
 10
0.719025
 20
-4.35069
 11
0.69281
 21
-4.39999
  0
LINE
  8
0
 10
0.69281
 20
-4.39999
 11
0.663223
 21
-4.44734
  0
LINE
  8
0
 10
0.663223
 20
-4.44734
 11
0.630402
 21
-4.49252
  0
LINE
  8
0
 10
0.630402
 20
-4.49252
 11
0.594513
 21
-4.53529
  0
LINE
  8
0
 10
0.594513
 20
-4.53529
 11
0.555725
 21
-4.57547
  0
LINE
  8
0
 10
0.555725
 20
-4.57547
 11
0.514221
 21
-4.61282
  0
LINE
  8
0
 10
0.514221
 20
-4.61282
 11
0.470215
 21
-4.6472
  0
LINE
  8
0
 10
0.470215
 20
-4.6472
 11
0.423935
 21
-4.67844
  0
LINE
  8
0
 10
0.423935
 20
-4.67844
 11
0.375565
 21
-4.70634
  0
LINE
  8
0
 10
0.375565
 20
-4.70634
 11
0.325378
 21
-4.73083
  0
LINE
  8
0
 10
0.325378
 20
-4.73083
 11
0.273605
 21
-4.75174
  0
LINE
  8
0
 10
0.273605
 20
-4.75174
 11
0.220505
 21
-4.769
  0
LINE
  8
0
 10
0.220505
 20
-4.769
 11
0.166321
 21
-4.78252
  0
LINE
  8
0
 10
0.166321
 20
-4.78252
 11
0.111328
 21
-4.79221
  0
LINE
  8
0
 10
0.111328
 20
-4.79221
 11
0.0558014
 21
-4.79805
  0
LINE
  8
0
 10
0.0558014
 20
-4.79805
 11
0
 21
-4.79999
  0
LINE
  8
0
 10
0
 20
-4.79999
 11
-0.0558014
 21
-4.79805
  0
ENDSEC
  0
SECTION
  2
OBJECTS
  0
DICTIONARY
  0
ENDSEC
  0
EOF
