  0
SECTION
  2
HEADER
  9
$ACADVER
  1
AC1014
  9
$HANDSEED
  5
FFFF
  9
$MEASUREMENT
 70
     1
  0
ENDSEC
  0
SECTION
  2
TABLES
  0
TABLE
  2
VPORT
  5
8
330
0
100
AcDbSymbolTable
 70
     4
  0
VPORT
  5
2E
330
8
100
AcDbSymbolTableRecord
100
AcDbViewportTableRecord
  2
*ACTIVE
 70
     0
 10
0.0
 20
0.0
 11
1.0
 21
1.0
 12
210.0
 22
148.5
 13
0.0
 23
0.0
 14
10.0
 24
10.0
 15
10.0
 25
10.0
 16
0.0
 26
0.0
 36
1.0
 17
0.0
 27
0.0
 37
0.0
 40
341.0
 41
1.24
 42
50.0
 43
0.0
 44
0.0
 50
0.0
 51
0.0
 71
     0
 72
   100
 73
     1
 74
     3
 75
     0
 76
     0
 77
     0
 78
     0
  0
ENDTAB
  0
TABLE
  2
LTYPE
  5
5
330
0
100
AcDbSymbolTable
 70
     1
  0
LTYPE
  5
14
330
5
100
AcDbSymbolTableRecord
100
AcDbLinetypeTableRecord
  2
BYBLOCK
 70
     0
  3

 72
    65
 73
     0
 40
0.0
  0
LTYPE
  5
15
330
5
100
AcDbSymbolTableRecord
100
AcDbLinetypeTableRecord
  2
BYLAYER
 70
     0
  3

 72
    65
 73
     0
 40
0.0
  0
LTYPE
  5
16
330
5
100
AcDbSymbolTableRecord
100
AcDbLinetypeTableRecord
  2
CONTINUOUS
 70
     0
  3
Solid line
 72
    65
 73
     0
 40
0.0
  0
ENDTAB
  0
TABLE
  2
LAYER
  5
2
100
AcDbSymbolTable
 70
2
  0
LAYER
  5
50
100
AcDbSymbolTableRecord
100
AcDbLayerTableRecord
  2
0
 70
0
  6
CONTINUOUS
  0
LAYER
  5
51
100
AcDbSymbolTableRecord
100
AcDbLayerTableRecord
  2
Ebene_1
 70
0
  6
CONTINUOUS
  0
ENDTAB
  0
TABLE
  2
STYLE
  5
3
330
0
100
AcDbSymbolTable
 70
     1
  0
STYLE
  5
11
330
3
100
AcDbSymbolTableRecord
100
AcDbTextStyleTableRecord
  2
STANDARD
 70
     0
 40
0.0
 41
1.0
 50
0.0
 71
     0
 42
2.5
  3
txt
  4

  0
ENDTAB
  0
TABLE
  2
VIEW
  5
6
330
0
100
AcDbSymbolTable
 70
     0
  0
ENDTAB
  0
TABLE
  2
UCS
  5
7
330
0
100
AcDbSymbolTable
 70
     0
  0
ENDTAB
  0
TABLE
  2
APPID
  5
9
330
0
100
AcDbSymbolTable
 70
     2
  0
APPID
  5
12
330
9
100
AcDbSymbolTableRecord
100
AcDbRegAppTableRecord
  2
ACAD
 70
     0
  0
ENDTAB
  0
TABLE
  2
DIMSTYLE
  5
A
330
0
100
AcDbSymbolTable
 70
     1
  0
DIMSTYLE
105
27
330
A
100
AcDbSymbolTableRecord
100
AcDbDimStyleTableRecord
  2
ISO-25
 70
     0
  3

  4

  5

  6

  7

 40
1.0
 41
2.5
 42
0.625
 43
3.75
 44
1.25
 45
0.0
 46
0.0
 47
0.0
 48
0.0
140
2.5
141
2.5
142
0.0
143
0.03937007874016
144
1.0
145
0.0
146
1.0
147
0.625
 71
     0
 72
     0
 73
     0
 74
     0
 75
     0
 76
     0
 77
     1
 78
     8
170
     0
171
     3
172
     1
173
     0
174
     0
175
     0
176
     0
177
     0
178
     0
270
     2
271
     2
272
     2
273
     2
274
     3
340
11
275
     0
280
     0
281
     0
282
     0
283
     0
284
     8
285
     0
286
     0
287
     3
288
     0
  0
ENDTAB
  0
TABLE
  2
BLOCK_RECORD
  5
1
330
0
100
AcDbSymbolTable
 70
     1
  0
BLOCK_RECORD
  5
1F
330
1
100
AcDbSymbolTableRecord
100
AcDbBlockTableRecord
  2
*MODEL_SPACE
  0
BLOCK_RECORD
  5
1B
330
1
100
AcDbSymbolTableRecord
100
AcDbBlockTableRecord
  2
*PAPER_SPACE
  0
ENDTAB
  0
ENDSEC
  0
SECTION
  2
BLOCKS
  0
BLOCK
  5
20
330
1F
100
AcDbEntity
  8
0
100
AcDbBlockBegin
  2
*MODEL_SPACE
 70
     0
 10
0.0
 20
0.0
 30
0.0
  3
*MODEL_SPACE
  1

  0
ENDBLK
  5
21
330
1F
100
AcDbEntity
  8
0
100
AcDbBlockEnd
  0
BLOCK
  5
1C
330
1B
100
AcDbEntity
 67
     1
  8
0
100
AcDbBlockBegin
  2
*PAPER_SPACE
  1

  0
ENDBLK
  5
1D
330
1B
100
AcDbEntity
 67
     1
  8
0
100
AcDbBlockEnd
  0
ENDSEC
  0
SECTION
  2
ENTITIES
  0
LWPOLYLINE
  5
100
100
AcDbEntity
  8
Ebene_1
 62
7
100
AcDbPolyline
 90
161
 70
1
 10
4.478095
 20
0.419672
 30
0.0
 10
4.675592
 20
0.438181
 30
0.0
 10
4.982058
 20
0.392094
 30
0.0
 10
5.494468
 20
0.173600
 30
0.0
 10
5.494468
 20
-0.173606
 30
0.0
 10
4.982058
 20
-0.392099
 30
0.0
 10
4.675592
 20
-0.438186
 30
0.0
 10
4.478095
 20
-0.419677
 30
0.0
 10
4.388607
 20
-0.984677
 30
0.0
 10
4.582158
 20
-1.028104
 30
0.0
 10
4.859383
 20
-1.166638
 30
0.0
 10
5.279196
 20
-1.532781
 30
0.0
 10
5.171903
 20
-1.862994
 30
0.0
 10
4.617054
 20
-1.912450
 30
0.0
 10
4.311346
 20
-1.861577
 30
0.0
 10
4.129235
 20
-1.782945
 30
0.0
 10
3.869533
 20
-2.292638
 30
0.0
 10
4.040190
 20
-2.393750
 30
0.0
 10
4.261038
 20
-2.611171
 30
0.0
 10
4.547159
 20
-3.089123
 30
0.0
 10
4.343076
 20
-3.370019
 30
0.0
 10
3.800100
 20
-3.245597
 30
0.0
 10
3.525075
 20
-3.102745
 30
0.0
 10
3.376176
 20
-2.971685
 30
0.0
 10
2.971681
 20
-3.376180
 30
0.0
 10
3.102741
 20
-3.525080
 30
0.0
 10
3.245592
 20
-3.800105
 30
0.0
 10
3.370014
 20
-4.343081
 30
0.0
 10
3.089119
 20
-4.547163
 30
0.0
 10
2.611167
 20
-4.261042
 30
0.0
 10
2.393745
 20
-4.040195
 30
0.0
 10
2.292634
 20
-3.869537
 30
0.0
 10
1.782940
 20
-4.129239
 30
0.0
 10
1.861573
 20
-4.311350
 30
0.0
 10
1.912445
 20
-4.617058
 30
0.0
 10
1.862989
 20
-5.171908
 30
0.0
 10
1.532777
 20
-5.279200
 30
0.0
 10
1.166633
 20
-4.859388
 30
0.0
 10
1.028099
 20
-4.582162
 30
0.0
 10
0.984672
 20
-4.388612
 30
0.0
 10
0.419673
 20
-4.478099
 30
0.0
 10
0.438182
 20
-4.675596
 30
0.0
 10
0.392095
 20
-4.982062
 30
0.0
 10
0.173601
 20
-5.494473
 30
0.0
 10
-0.173605
 20
-5.494473
 30
0.0
 10
-0.392098
 20
-4.982062
 30
0.0
 10
-0.438185
 20
-4.675596
 30
0.0
 10
-0.419676
 20
-4.478099
 30
0.0
 10
-0.984676
 20
-4.388612
 30
0.0
 10
-1.028103
 20
-4.582162
 30
0.0
 10
-1.166637
 20
-4.859388
 30
0.0
 10
-1.532780
 20
-5.279200
 30
0.0
 10
-1.862993
 20
-5.171908
 30
0.0
 10
-1.912449
 20
-4.617058
 30
0.0
 10
-1.861576
 20
-4.311350
 30
0.0
 10
-1.782944
 20
-4.129239
 30
0.0
 10
-2.292637
 20
-3.869537
 30
0.0
 10
-2.393749
 20
-4.040195
 30
0.0
 10
-2.611170
 20
-4.261042
 30
0.0
 10
-3.089122
 20
-4.547163
 30
0.0
 10
-3.370018
 20
-4.343081
 30
0.0
 10
-3.245596
 20
-3.800105
 30
0.0
 10
-3.102744
 20
-3.525080
 30
0.0
 10
-2.971684
 20
-3.376180
 30
0.0
 10
-3.376179
 20
-2.971685
 30
0.0
 10
-3.525079
 20
-3.102745
 30
0.0
 10
-3.800104
 20
-3.245597
 30
0.0
 10
-4.343080
 20
-3.370019
 30
0.0
 10
-4.547162
 20
-3.089123
 30
0.0
 10
-4.261041
 20
-2.611171
 30
0.0
 10
-4.040194
 20
-2.393750
 30
0.0
 10
-3.869536
 20
-2.292638
 30
0.0
 10
-4.129238
 20
-1.782945
 30
0.0
 10
-4.311349
 20
-1.861577
 30
0.0
 10
-4.617057
 20
-1.912450
 30
0.0
 10
-5.171907
 20
-1.862994
 30
0.0
 10
-5.279199
 20
-1.532781
 30
0.0
 10
-4.859387
 20
-1.166638
 30
0.0
 10
-4.582161
 20
-1.028104
 30
0.0
 10
-4.388611
 20
-0.984677
 30
0.0
 10
-4.478098
 20
-0.419677
 30
0.0
 10
-4.675595
 20
-0.438186
 30
0.0
 10
-4.982061
 20
-0.392099
 30
0.0
 10
-5.494472
 20
-0.173606
 30
0.0
 10
-5.494472
 20
0.173600
 30
0.0
 10
-4.982061
 20
0.392094
 30
0.0
 10
-4.675595
 20
0.438181
 30
0.0
 10
-4.478098
 20
0.419672
 30
0.0
 10
-4.388611
 20
0.984671
 30
0.0
 10
-4.582161
 20
1.028098
 30
0.0
 10
-4.859387
 20
1.166632
 30
0.0
 10
-5.279199
 20
1.532776
 30
0.0
 10
-5.171907
 20
1.862988
 30
0.0
 10
-4.617057
 20
1.912444
 30
0.0
 10
-4.311349
 20
1.861572
 30
0.0
 10
-4.129238
 20
1.782939
 30
0.0
 10
-3.869536
 20
2.292633
 30
0.0
 10
-4.040194
 20
2.393744
 30
0.0
 10
-4.261041
 20
2.611166
 30
0.0
 10
-4.547162
 20
3.089118
 30
0.0
 10
-4.343080
 20
3.370013
 30
0.0
 10
-3.800104
 20
3.245591
 30
0.0
 10
-3.525079
 20
3.102740
 30
0.0
 10
-3.376179
 20
2.971680
 30
0.0
 10
-2.971684
 20
3.376175
 30
0.0
 10
-3.102744
 20
3.525074
 30
0.0
 10
-3.245596
 20
3.800099
 30
0.0
 10
-3.370018
 20
4.343075
 30
0.0
 10
-3.089122
 20
4.547158
 30
0.0
 10
-2.611170
 20
4.261037
 30
0.0
 10
-2.393749
 20
4.040189
 30
0.0
 10
-2.292637
 20
3.869532
 30
0.0
 10
-1.782944
 20
4.129234
 30
0.0
 10
-1.861576
 20
4.311345
 30
0.0
 10
-1.912449
 20
4.617053
 30
0.0
 10
-1.862993
 20
5.171902
 30
0.0
 10
-1.532780
 20
5.279195
 30
0.0
 10
-1.166637
 20
4.859382
 30
0.0
 10
-1.028103
 20
4.582157
 30
0.0
 10
-0.984676
 20
4.388606
 30
0.0
 10
-0.419676
 20
4.478094
 30
0.0
 10
-0.438185
 20
4.675591
 30
0.0
 10
-0.392098
 20
4.982057
 30
0.0
 10
-0.173605
 20
5.494467
 30
0.0
 10
0.173601
 20
5.494467
 30
0.0
 10
0.392095
 20
4.982057
 30
0.0
 10
0.438182
 20
4.675591
 30
0.0
 10
0.419673
 20
4.478094
 30
0.0
 10
0.984672
 20
4.388606
 30
0.0
 10
1.028099
 20
4.582157
 30
0.0
 10
1.166633
 20
4.859382
 30
0.0
 10
1.532777
 20
5.279195
 30
0.0
 10
1.862989
 20
5.171902
 30
0.0
 10
1.912445
 20
4.617053
 30
0.0
 10
1.861573
 20
4.311345
 30
0.0
 10
1.782940
 20
4.129234
 30
0.0
 10
2.292634
 20
3.869532
 30
0.0
 10
2.393745
 20
4.040189
 30
0.0
 10
2.611167
 20
4.261037
 30
0.0
 10
3.089119
 20
4.547158
 30
0.0
 10
3.370014
 20
4.343075
 30
0.0
 10
3.245592
 20
3.800099
 30
0.0
 10
3.102741
 20
3.525074
 30
0.0
 10
2.971681
 20
3.376175
 30
0.0
 10
3.376176
 20
2.971680
 30
0.0
 10
3.525075
 20
3.102740
 30
0.0
 10
3.800100
 20
3.245591
 30
0.0
 10
4.343076
 20
3.370013
 30
0.0
 10
4.547159
 20
3.089118
 30
0.0
 10
4.261038
 20
2.611166
 30
0.0
 10
4.040190
 20
2.393744
 30
0.0
 10
3.869533
 20
2.292633
 30
0.0
 10
4.129235
 20
1.782939
 30
0.0
 10
4.311346
 20
1.861572
 30
0.0
 10
4.617054
 20
1.912444
 30
0.0
 10
5.171903
 20
1.862988
 30
0.0
 10
5.279196
 20
1.532776
 30
0.0
 10
4.859383
 20
1.166632
 30
0.0
 10
4.582158
 20
1.028098
 30
0.0
 10
4.388607
 20
0.984671
 30
0.0
 10
4.478095
 20
0.419672
 30
0.0
  0
ENDSEC
  0
SECTION
  2
OBJECTS
  0
DICTIONARY
  5
C
330
0
100
AcDbDictionary
  3
ACAD_GROUP
350
D
  3
ACAD_MLINESTYLE
350
17
  0
DICTIONARY
  5
D
330
C
100
AcDbDictionary
  0
DICTIONARY
  5
1A
330
C
100
AcDbDictionary
  0
DICTIONARY
  5
17
330
C
100
AcDbDictionary
  3
STANDARD
350
18
  0
DICTIONARY
  5
19
330
C
100
AcDbDictionary
  0
ENDSEC
  0
EOF
