  0
SECTION
  2
HEADER
  9
$ACADVER
  1
AC1014
  9
$HANDSEED
  5
FFFF
  9
$MEASUREMENT
 70
     1
  0
ENDSEC
  0
SECTION
  2
TABLES
  0
TABLE
  2
VPORT
  5
8
330
0
100
AcDbSymbolTable
 70
     4
  0
VPORT
  5
2E
330
8
100
AcDbSymbolTableRecord
100
AcDbViewportTableRecord
  2
*ACTIVE
 70
     0
 10
0.0
 20
0.0
 11
1.0
 21
1.0
 12
210.0
 22
148.5
 13
0.0
 23
0.0
 14
10.0
 24
10.0
 15
10.0
 25
10.0
 16
0.0
 26
0.0
 36
1.0
 17
0.0
 27
0.0
 37
0.0
 40
341.0
 41
1.24
 42
50.0
 43
0.0
 44
0.0
 50
0.0
 51
0.0
 71
     0
 72
   100
 73
     1
 74
     3
 75
     0
 76
     0
 77
     0
 78
     0
  0
ENDTAB
  0
TABLE
  2
LTYPE
  5
5
330
0
100
AcDbSymbolTable
 70
     1
  0
LTYPE
  5
14
330
5
100
AcDbSymbolTableRecord
100
AcDbLinetypeTableRecord
  2
BYBLOCK
 70
     0
  3

 72
    65
 73
     0
 40
0.0
  0
LTYPE
  5
15
330
5
100
AcDbSymbolTableRecord
100
AcDbLinetypeTableRecord
  2
BYLAYER
 70
     0
  3

 72
    65
 73
     0
 40
0.0
  0
LTYPE
  5
16
330
5
100
AcDbSymbolTableRecord
100
AcDbLinetypeTableRecord
  2
CONTINUOUS
 70
     0
  3
Solid line
 72
    65
 73
     0
 40
0.0
  0
ENDTAB
  0
TABLE
  2
LAYER
  5
2
100
AcDbSymbolTable
 70
2
  0
LAYER
  5
50
100
AcDbSymbolTableRecord
100
AcDbLayerTableRecord
  2
0
 70
0
  6
CONTINUOUS
  0
LAYER
  5
51
100
AcDbSymbolTableRecord
100
AcDbLayerTableRecord
  2
Ebene_1
 70
0
  6
CONTINUOUS
  0
ENDTAB
  0
TABLE
  2
STYLE
  5
3
330
0
100
AcDbSymbolTable
 70
     1
  0
STYLE
  5
11
330
3
100
AcDbSymbolTableRecord
100
AcDbTextStyleTableRecord
  2
STANDARD
 70
     0
 40
0.0
 41
1.0
 50
0.0
 71
     0
 42
2.5
  3
txt
  4

  0
ENDTAB
  0
TABLE
  2
VIEW
  5
6
330
0
100
AcDbSymbolTable
 70
     0
  0
ENDTAB
  0
TABLE
  2
UCS
  5
7
330
0
100
AcDbSymbolTable
 70
     0
  0
ENDTAB
  0
TABLE
  2
APPID
  5
9
330
0
100
AcDbSymbolTable
 70
     2
  0
APPID
  5
12
330
9
100
AcDbSymbolTableRecord
100
AcDbRegAppTableRecord
  2
ACAD
 70
     0
  0
ENDTAB
  0
TABLE
  2
DIMSTYLE
  5
A
330
0
100
AcDbSymbolTable
 70
     1
  0
DIMSTYLE
105
27
330
A
100
AcDbSymbolTableRecord
100
AcDbDimStyleTableRecord
  2
ISO-25
 70
     0
  3

  4

  5

  6

  7

 40
1.0
 41
2.5
 42
0.625
 43
3.75
 44
1.25
 45
0.0
 46
0.0
 47
0.0
 48
0.0
140
2.5
141
2.5
142
0.0
143
0.03937007874016
144
1.0
145
0.0
146
1.0
147
0.625
 71
     0
 72
     0
 73
     0
 74
     0
 75
     0
 76
     0
 77
     1
 78
     8
170
     0
171
     3
172
     1
173
     0
174
     0
175
     0
176
     0
177
     0
178
     0
270
     2
271
     2
272
     2
273
     2
274
     3
340
11
275
     0
280
     0
281
     0
282
     0
283
     0
284
     8
285
     0
286
     0
287
     3
288
     0
  0
ENDTAB
  0
TABLE
  2
BLOCK_RECORD
  5
1
330
0
100
AcDbSymbolTable
 70
     1
  0
BLOCK_RECORD
  5
1F
330
1
100
AcDbSymbolTableRecord
100
AcDbBlockTableRecord
  2
*MODEL_SPACE
  0
BLOCK_RECORD
  5
1B
330
1
100
AcDbSymbolTableRecord
100
AcDbBlockTableRecord
  2
*PAPER_SPACE
  0
ENDTAB
  0
ENDSEC
  0
SECTION
  2
BLOCKS
  0
BLOCK
  5
20
330
1F
100
AcDbEntity
  8
0
100
AcDbBlockBegin
  2
*MODEL_SPACE
 70
     0
 10
0.0
 20
0.0
 30
0.0
  3
*MODEL_SPACE
  1

  0
ENDBLK
  5
21
330
1F
100
AcDbEntity
  8
0
100
AcDbBlockEnd
  0
BLOCK
  5
1C
330
1B
100
AcDbEntity
 67
     1
  8
0
100
AcDbBlockBegin
  2
*PAPER_SPACE
  1

  0
ENDBLK
  5
1D
330
1B
100
AcDbEntity
 67
     1
  8
0
100
AcDbBlockEnd
  0
ENDSEC
  0
SECTION
  2
ENTITIES
  0
LWPOLYLINE
  5
100
100
AcDbEntity
  8
Ebene_1
 62
7
100
AcDbPolyline
 90
193
 70
1
 10
5.479475
 20
0.441249
 30
0.0
 10
5.617115
 20
0.452333
 30
0.0
 10
5.984119
 20
0.392220
 30
0.0
 10
6.494245
 20
0.178774
 30
0.0
 10
6.494245
 20
-0.178774
 30
0.0
 10
5.984119
 20
-0.392220
 30
0.0
 10
5.617115
 20
-0.452333
 30
0.0
 10
5.479475
 20
-0.441249
 30
0.0
 10
5.406970
 20
-0.991978
 30
0.0
 10
5.542789
 20
-1.016896
 30
0.0
 10
5.881729
 20
-1.169948
 30
0.0
 10
6.319230
 20
-1.508151
 30
0.0
 10
6.226689
 20
-1.853517
 30
0.0
 10
5.678701
 20
-1.927659
 30
0.0
 10
5.308644
 20
-1.890736
 30
0.0
 10
5.178563
 20
-1.844406
 30
0.0
 10
4.965989
 20
-2.357604
 30
0.0
 10
5.090731
 20
-2.416825
 30
0.0
 10
5.378509
 20
-2.652387
 30
0.0
 10
5.713569
 20
-3.092299
 30
0.0
 10
5.534794
 20
-3.401945
 30
0.0
 10
4.986289
 20
-3.331731
 30
0.0
 10
4.638398
 20
-3.200289
 30
0.0
 10
4.524740
 20
-3.121870
 30
0.0
 10
4.186584
 20
-3.562563
 30
0.0
 10
4.291748
 20
-3.652052
 30
0.0
 10
4.508753
 20
-3.954069
 30
0.0
 10
4.718538
 20
-4.465712
 30
0.0
 10
4.465713
 20
-4.718537
 30
0.0
 10
3.954070
 20
-4.508752
 30
0.0
 10
3.652053
 20
-4.291747
 30
0.0
 10
3.562564
 20
-4.186583
 30
0.0
 10
3.121871
 20
-4.524739
 30
0.0
 10
3.200290
 20
-4.638397
 30
0.0
 10
3.331732
 20
-4.986288
 30
0.0
 10
3.401946
 20
-5.534793
 30
0.0
 10
3.092300
 20
-5.713568
 30
0.0
 10
2.652388
 20
-5.378508
 30
0.0
 10
2.416826
 20
-5.090730
 30
0.0
 10
2.357605
 20
-4.965988
 30
0.0
 10
1.844407
 20
-5.178562
 30
0.0
 10
1.890737
 20
-5.308643
 30
0.0
 10
1.927660
 20
-5.678700
 30
0.0
 10
1.853518
 20
-6.226688
 30
0.0
 10
1.508152
 20
-6.319229
 30
0.0
 10
1.169949
 20
-5.881728
 30
0.0
 10
1.016897
 20
-5.542788
 30
0.0
 10
0.991979
 20
-5.406969
 30
0.0
 10
0.441250
 20
-5.479474
 30
0.0
 10
0.452334
 20
-5.617114
 30
0.0
 10
0.392221
 20
-5.984118
 30
0.0
 10
0.178775
 20
-6.494244
 30
0.0
 10
-0.178773
 20
-6.494244
 30
0.0
 10
-0.392219
 20
-5.984118
 30
0.0
 10
-0.452332
 20
-5.617114
 30
0.0
 10
-0.441248
 20
-5.479474
 30
0.0
 10
-0.991978
 20
-5.406969
 30
0.0
 10
-1.016895
 20
-5.542788
 30
0.0
 10
-1.169948
 20
-5.881728
 30
0.0
 10
-1.508151
 20
-6.319229
 30
0.0
 10
-1.853516
 20
-6.226688
 30
0.0
 10
-1.927658
 20
-5.678700
 30
0.0
 10
-1.890735
 20
-5.308643
 30
0.0
 10
-1.844405
 20
-5.178562
 30
0.0
 10
-2.357603
 20
-4.965988
 30
0.0
 10
-2.416824
 20
-5.090730
 30
0.0
 10
-2.652386
 20
-5.378508
 30
0.0
 10
-3.092298
 20
-5.713568
 30
0.0
 10
-3.401944
 20
-5.534793
 30
0.0
 10
-3.331731
 20
-4.986288
 30
0.0
 10
-3.200288
 20
-4.638397
 30
0.0
 10
-3.121869
 20
-4.524739
 30
0.0
 10
-3.562562
 20
-4.186583
 30
0.0
 10
-3.652051
 20
-4.291747
 30
0.0
 10
-3.954069
 20
-4.508752
 30
0.0
 10
-4.465711
 20
-4.718537
 30
0.0
 10
-4.718536
 20
-4.465712
 30
0.0
 10
-4.508751
 20
-3.954069
 30
0.0
 10
-4.291746
 20
-3.652052
 30
0.0
 10
-4.186583
 20
-3.562563
 30
0.0
 10
-4.524738
 20
-3.121870
 30
0.0
 10
-4.638396
 20
-3.200289
 30
0.0
 10
-4.986288
 20
-3.331731
 30
0.0
 10
-5.534793
 20
-3.401945
 30
0.0
 10
-5.713567
 20
-3.092299
 30
0.0
 10
-5.378508
 20
-2.652387
 30
0.0
 10
-5.090729
 20
-2.416825
 30
0.0
 10
-4.965987
 20
-2.357604
 30
0.0
 10
-5.178561
 20
-1.844406
 30
0.0
 10
-5.308642
 20
-1.890736
 30
0.0
 10
-5.678699
 20
-1.927659
 30
0.0
 10
-6.226688
 20
-1.853517
 30
0.0
 10
-6.319228
 20
-1.508151
 30
0.0
 10
-5.881728
 20
-1.169948
 30
0.0
 10
-5.542787
 20
-1.016896
 30
0.0
 10
-5.406968
 20
-0.991978
 30
0.0
 10
-5.479473
 20
-0.441249
 30
0.0
 10
-5.617113
 20
-0.452333
 30
0.0
 10
-5.984118
 20
-0.392220
 30
0.0
 10
-6.494244
 20
-0.178774
 30
0.0
 10
-6.494244
 20
0.178774
 30
0.0
 10
-5.984118
 20
0.392220
 30
0.0
 10
-5.617113
 20
0.452333
 30
0.0
 10
-5.479473
 20
0.441249
 30
0.0
 10
-5.406968
 20
0.991979
 30
0.0
 10
-5.542787
 20
1.016896
 30
0.0
 10
-5.881728
 20
1.169949
 30
0.0
 10
-6.319228
 20
1.508152
 30
0.0
 10
-6.226688
 20
1.853517
 30
0.0
 10
-5.678699
 20
1.927659
 30
0.0
 10
-5.308642
 20
1.890736
 30
0.0
 10
-5.178561
 20
1.844406
 30
0.0
 10
-4.965987
 20
2.357604
 30
0.0
 10
-5.090729
 20
2.416825
 30
0.0
 10
-5.378508
 20
2.652387
 30
0.0
 10
-5.713567
 20
3.092299
 30
0.0
 10
-5.534793
 20
3.401945
 30
0.0
 10
-4.986288
 20
3.331732
 30
0.0
 10
-4.638396
 20
3.200289
 30
0.0
 10
-4.524738
 20
3.121870
 30
0.0
 10
-4.186583
 20
3.562563
 30
0.0
 10
-4.291746
 20
3.652052
 30
0.0
 10
-4.508751
 20
3.954069
 30
0.0
 10
-4.718536
 20
4.465712
 30
0.0
 10
-4.465711
 20
4.718537
 30
0.0
 10
-3.954069
 20
4.508752
 30
0.0
 10
-3.652051
 20
4.291747
 30
0.0
 10
-3.562562
 20
4.186584
 30
0.0
 10
-3.121869
 20
4.524739
 30
0.0
 10
-3.200288
 20
4.638397
 30
0.0
 10
-3.331731
 20
4.986289
 30
0.0
 10
-3.401944
 20
5.534794
 30
0.0
 10
-3.092298
 20
5.713568
 30
0.0
 10
-2.652386
 20
5.378509
 30
0.0
 10
-2.416824
 20
5.090730
 30
0.0
 10
-2.357603
 20
4.965988
 30
0.0
 10
-1.844405
 20
5.178562
 30
0.0
 10
-1.890735
 20
5.308643
 30
0.0
 10
-1.927658
 20
5.678700
 30
0.0
 10
-1.853516
 20
6.226688
 30
0.0
 10
-1.508151
 20
6.319229
 30
0.0
 10
-1.169948
 20
5.881729
 30
0.0
 10
-1.016895
 20
5.542788
 30
0.0
 10
-0.991978
 20
5.406969
 30
0.0
 10
-0.441248
 20
5.479474
 30
0.0
 10
-0.452332
 20
5.617114
 30
0.0
 10
-0.392219
 20
5.984118
 30
0.0
 10
-0.178773
 20
6.494245
 30
0.0
 10
0.178775
 20
6.494245
 30
0.0
 10
0.392221
 20
5.984118
 30
0.0
 10
0.452334
 20
5.617114
 30
0.0
 10
0.441250
 20
5.479474
 30
0.0
 10
0.991979
 20
5.406969
 30
0.0
 10
1.016897
 20
5.542788
 30
0.0
 10
1.169949
 20
5.881729
 30
0.0
 10
1.508152
 20
6.319229
 30
0.0
 10
1.853518
 20
6.226688
 30
0.0
 10
1.927660
 20
5.678700
 30
0.0
 10
1.890737
 20
5.308643
 30
0.0
 10
1.844407
 20
5.178562
 30
0.0
 10
2.357605
 20
4.965988
 30
0.0
 10
2.416826
 20
5.090730
 30
0.0
 10
2.652388
 20
5.378509
 30
0.0
 10
3.092300
 20
5.713568
 30
0.0
 10
3.401946
 20
5.534794
 30
0.0
 10
3.331732
 20
4.986289
 30
0.0
 10
3.200290
 20
4.638397
 30
0.0
 10
3.121871
 20
4.524739
 30
0.0
 10
3.562564
 20
4.186584
 30
0.0
 10
3.652053
 20
4.291747
 30
0.0
 10
3.954070
 20
4.508752
 30
0.0
 10
4.465713
 20
4.718537
 30
0.0
 10
4.718538
 20
4.465712
 30
0.0
 10
4.508753
 20
3.954069
 30
0.0
 10
4.291748
 20
3.652052
 30
0.0
 10
4.186584
 20
3.562563
 30
0.0
 10
4.524740
 20
3.121870
 30
0.0
 10
4.638398
 20
3.200289
 30
0.0
 10
4.986289
 20
3.331732
 30
0.0
 10
5.534794
 20
3.401945
 30
0.0
 10
5.713569
 20
3.092299
 30
0.0
 10
5.378509
 20
2.652387
 30
0.0
 10
5.090731
 20
2.416825
 30
0.0
 10
4.965989
 20
2.357604
 30
0.0
 10
5.178563
 20
1.844406
 30
0.0
 10
5.308644
 20
1.890736
 30
0.0
 10
5.678701
 20
1.927659
 30
0.0
 10
6.226689
 20
1.853517
 30
0.0
 10
6.319230
 20
1.508152
 30
0.0
 10
5.881729
 20
1.169949
 30
0.0
 10
5.542789
 20
1.016896
 30
0.0
 10
5.406970
 20
0.991979
 30
0.0
 10
5.479475
 20
0.441249
 30
0.0
  0
ENDSEC
  0
SECTION
  2
OBJECTS
  0
DICTIONARY
  5
C
330
0
100
AcDbDictionary
  3
ACAD_GROUP
350
D
  3
ACAD_MLINESTYLE
350
17
  0
DICTIONARY
  5
D
330
C
100
AcDbDictionary
  0
DICTIONARY
  5
1A
330
C
100
AcDbDictionary
  0
DICTIONARY
  5
17
330
C
100
AcDbDictionary
  3
STANDARD
350
18
  0
DICTIONARY
  5
19
330
C
100
AcDbDictionary
  0
ENDSEC
  0
EOF
