  0
SECTION
  2
HEADER
  9
$ACADVER
  1
AC1014
  9
$HANDSEED
  5
FFFF
  9
$MEASUREMENT
 70
     1
  0
ENDSEC
  0
SECTION
  2
TABLES
  0
TABLE
  2
VPORT
  5
8
330
0
100
AcDbSymbolTable
 70
     4
  0
VPORT
  5
2E
330
8
100
AcDbSymbolTableRecord
100
AcDbViewportTableRecord
  2
*ACTIVE
 70
     0
 10
0.0
 20
0.0
 11
1.0
 21
1.0
 12
210.0
 22
148.5
 13
0.0
 23
0.0
 14
10.0
 24
10.0
 15
10.0
 25
10.0
 16
0.0
 26
0.0
 36
1.0
 17
0.0
 27
0.0
 37
0.0
 40
341.0
 41
1.24
 42
50.0
 43
0.0
 44
0.0
 50
0.0
 51
0.0
 71
     0
 72
   100
 73
     1
 74
     3
 75
     0
 76
     0
 77
     0
 78
     0
  0
ENDTAB
  0
TABLE
  2
LTYPE
  5
5
330
0
100
AcDbSymbolTable
 70
     1
  0
LTYPE
  5
14
330
5
100
AcDbSymbolTableRecord
100
AcDbLinetypeTableRecord
  2
BYBLOCK
 70
     0
  3

 72
    65
 73
     0
 40
0.0
  0
LTYPE
  5
15
330
5
100
AcDbSymbolTableRecord
100
AcDbLinetypeTableRecord
  2
BYLAYER
 70
     0
  3

 72
    65
 73
     0
 40
0.0
  0
LTYPE
  5
16
330
5
100
AcDbSymbolTableRecord
100
AcDbLinetypeTableRecord
  2
CONTINUOUS
 70
     0
  3
Solid line
 72
    65
 73
     0
 40
0.0
  0
ENDTAB
  0
TABLE
  2
LAYER
  5
2
100
AcDbSymbolTable
 70
2
  0
LAYER
  5
50
100
AcDbSymbolTableRecord
100
AcDbLayerTableRecord
  2
0
 70
0
  6
CONTINUOUS
  0
LAYER
  5
51
100
AcDbSymbolTableRecord
100
AcDbLayerTableRecord
  2
Ebene_1
 70
0
  6
CONTINUOUS
  0
ENDTAB
  0
TABLE
  2
STYLE
  5
3
330
0
100
AcDbSymbolTable
 70
     1
  0
STYLE
  5
11
330
3
100
AcDbSymbolTableRecord
100
AcDbTextStyleTableRecord
  2
STANDARD
 70
     0
 40
0.0
 41
1.0
 50
0.0
 71
     0
 42
2.5
  3
txt
  4

  0
ENDTAB
  0
TABLE
  2
VIEW
  5
6
330
0
100
AcDbSymbolTable
 70
     0
  0
ENDTAB
  0
TABLE
  2
UCS
  5
7
330
0
100
AcDbSymbolTable
 70
     0
  0
ENDTAB
  0
TABLE
  2
APPID
  5
9
330
0
100
AcDbSymbolTable
 70
     2
  0
APPID
  5
12
330
9
100
AcDbSymbolTableRecord
100
AcDbRegAppTableRecord
  2
ACAD
 70
     0
  0
ENDTAB
  0
TABLE
  2
DIMSTYLE
  5
A
330
0
100
AcDbSymbolTable
 70
     1
  0
DIMSTYLE
105
27
330
A
100
AcDbSymbolTableRecord
100
AcDbDimStyleTableRecord
  2
ISO-25
 70
     0
  3

  4

  5

  6

  7

 40
1.0
 41
2.5
 42
0.625
 43
3.75
 44
1.25
 45
0.0
 46
0.0
 47
0.0
 48
0.0
140
2.5
141
2.5
142
0.0
143
0.03937007874016
144
1.0
145
0.0
146
1.0
147
0.625
 71
     0
 72
     0
 73
     0
 74
     0
 75
     0
 76
     0
 77
     1
 78
     8
170
     0
171
     3
172
     1
173
     0
174
     0
175
     0
176
     0
177
     0
178
     0
270
     2
271
     2
272
     2
273
     2
274
     3
340
11
275
     0
280
     0
281
     0
282
     0
283
     0
284
     8
285
     0
286
     0
287
     3
288
     0
  0
ENDTAB
  0
TABLE
  2
BLOCK_RECORD
  5
1
330
0
100
AcDbSymbolTable
 70
     1
  0
BLOCK_RECORD
  5
1F
330
1
100
AcDbSymbolTableRecord
100
AcDbBlockTableRecord
  2
*MODEL_SPACE
  0
BLOCK_RECORD
  5
1B
330
1
100
AcDbSymbolTableRecord
100
AcDbBlockTableRecord
  2
*PAPER_SPACE
  0
ENDTAB
  0
ENDSEC
  0
SECTION
  2
BLOCKS
  0
BLOCK
  5
20
330
1F
100
AcDbEntity
  8
0
100
AcDbBlockBegin
  2
*MODEL_SPACE
 70
     0
 10
0.0
 20
0.0
 30
0.0
  3
*MODEL_SPACE
  1

  0
ENDBLK
  5
21
330
1F
100
AcDbEntity
  8
0
100
AcDbBlockEnd
  0
BLOCK
  5
1C
330
1B
100
AcDbEntity
 67
     1
  8
0
100
AcDbBlockBegin
  2
*PAPER_SPACE
  1

  0
ENDBLK
  5
1D
330
1B
100
AcDbEntity
 67
     1
  8
0
100
AcDbBlockEnd
  0
ENDSEC
  0
SECTION
  2
ENTITIES
  0
LWPOLYLINE
  5
100
100
AcDbEntity
  8
Ebene_1
 62
7
100
AcDbPolyline
 90
241
 70
1
 10
6.980662
 20
0.446668
 30
0.0
 10
7.028225
 20
0.449873
 30
0.0
 10
7.485957
 20
0.368733
 30
0.0
 10
7.993854
 20
0.160652
 30
0.0
 10
7.993854
 20
-0.207828
 30
0.0
 10
7.485957
 20
-0.415909
 30
0.0
 10
7.028225
 20
-0.497049
 30
0.0
 10
6.980662
 20
-0.493844
 30
0.0
 10
6.925890
 20
-1.014962
 30
0.0
 10
6.973080
 20
-1.021717
 30
0.0
 10
7.403939
 20
-1.196252
 30
0.0
 10
7.857475
 20
-1.505383
 30
0.0
 10
7.780864
 20
-1.865811
 30
0.0
 10
7.240803
 20
-1.963747
 30
0.0
 10
6.776204
 20
-1.947946
 30
0.0
 10
6.730347
 20
-1.934922
 30
0.0
 10
6.568425
 20
-2.433265
 30
0.0
 10
6.613179
 20
-2.449684
 30
0.0
 10
6.998336
 20
-2.709985
 30
0.0
 10
7.377689
 20
-3.106656
 30
0.0
 10
7.227814
 20
-3.443280
 30
0.0
 10
6.679194
 20
-3.426791
 30
0.0
 10
6.228032
 20
-3.314739
 30
0.0
 10
6.185884
 20
-3.292466
 30
0.0
 10
5.923890
 20
-3.746254
 30
0.0
 10
5.964253
 20
-3.771618
 30
0.0
 10
6.286873
 20
-4.106310
 30
0.0
 10
6.575463
 20
-4.573185
 30
0.0
 10
6.358876
 20
-4.871292
 30
0.0
 10
5.825672
 20
-4.741098
 30
0.0
 10
5.407666
 20
-4.537693
 30
0.0
 10
5.371071
 20
-4.507144
 30
0.0
 10
5.020454
 20
-4.896544
 30
0.0
 10
5.054661
 20
-4.929746
 30
0.0
 10
5.300645
 20
-5.324200
 30
0.0
 10
5.485860
 20
-5.840874
 30
0.0
 10
5.212026
 20
-6.087436
 30
0.0
 10
4.717543
 20
-5.849228
 30
0.0
 10
4.350961
 20
-5.563360
 30
0.0
 10
4.321517
 20
-5.525869
 30
0.0
 10
3.897601
 20
-5.833862
 30
0.0
 10
3.924157
 20
-5.873451
 30
0.0
 10
4.082754
 20
-6.310428
 30
0.0
 10
4.156500
 20
-6.854320
 30
0.0
 10
3.837386
 20
-7.038561
 30
0.0
 10
3.403235
 20
-6.702749
 30
0.0
 10
3.104100
 20
-6.346911
 30
0.0
 10
3.083093
 20
-6.304119
 30
0.0
 10
2.604406
 20
-6.517244
 30
0.0
 10
2.622151
 20
-6.561489
 30
0.0
 10
2.686430
 20
-7.021891
 30
0.0
 10
2.645482
 20
-7.569231
 30
0.0
 10
2.295036
 20
-7.683097
 30
0.0
 10
1.940191
 20
-7.264359
 30
0.0
 10
1.721576
 20
-6.854103
 30
0.0
 10
1.709925
 20
-6.807878
 30
0.0
 10
1.197387
 20
-6.916822
 30
0.0
 10
1.205545
 20
-6.963789
 30
0.0
 10
1.172696
 20
-7.427495
 30
0.0
 10
1.018845
 20
-7.954360
 30
0.0
 10
0.652384
 20
-7.992877
 30
0.0
 10
0.392353
 20
-7.509512
 30
0.0
 10
0.263812
 20
-7.062769
 30
0.0
 10
0.262027
 20
-7.015132
 30
0.0
 10
-0.261962
 20
-7.015132
 30
0.0
 10
-0.263747
 20
-7.062769
 30
0.0
 10
-0.392288
 20
-7.509512
 30
0.0
 10
-0.652319
 20
-7.992877
 30
0.0
 10
-1.018780
 20
-7.954360
 30
0.0
 10
-1.172631
 20
-7.427495
 30
0.0
 10
-1.205480
 20
-6.963789
 30
0.0
 10
-1.197322
 20
-6.916822
 30
0.0
 10
-1.709860
 20
-6.807878
 30
0.0
 10
-1.721511
 20
-6.854103
 30
0.0
 10
-1.940126
 20
-7.264359
 30
0.0
 10
-2.294971
 20
-7.683097
 30
0.0
 10
-2.645417
 20
-7.569231
 30
0.0
 10
-2.686365
 20
-7.021891
 30
0.0
 10
-2.622086
 20
-6.561489
 30
0.0
 10
-2.604341
 20
-6.517244
 30
0.0
 10
-3.083028
 20
-6.304119
 30
0.0
 10
-3.104035
 20
-6.346911
 30
0.0
 10
-3.403170
 20
-6.702749
 30
0.0
 10
-3.837321
 20
-7.038561
 30
0.0
 10
-4.156435
 20
-6.854320
 30
0.0
 10
-4.082689
 20
-6.310428
 30
0.0
 10
-3.924092
 20
-5.873451
 30
0.0
 10
-3.897536
 20
-5.833862
 30
0.0
 10
-4.321452
 20
-5.525869
 30
0.0
 10
-4.350896
 20
-5.563360
 30
0.0
 10
-4.717478
 20
-5.849228
 30
0.0
 10
-5.211961
 20
-6.087436
 30
0.0
 10
-5.485795
 20
-5.840874
 30
0.0
 10
-5.300580
 20
-5.324200
 30
0.0
 10
-5.054596
 20
-4.929746
 30
0.0
 10
-5.020389
 20
-4.896544
 30
0.0
 10
-5.371006
 20
-4.507144
 30
0.0
 10
-5.407601
 20
-4.537693
 30
0.0
 10
-5.825607
 20
-4.741098
 30
0.0
 10
-6.358811
 20
-4.871292
 30
0.0
 10
-6.575398
 20
-4.573185
 30
0.0
 10
-6.286808
 20
-4.106310
 30
0.0
 10
-5.964187
 20
-3.771618
 30
0.0
 10
-5.923825
 20
-3.746254
 30
0.0
 10
-6.185819
 20
-3.292466
 30
0.0
 10
-6.227967
 20
-3.314739
 30
0.0
 10
-6.679129
 20
-3.426791
 30
0.0
 10
-7.227749
 20
-3.443280
 30
0.0
 10
-7.377624
 20
-3.106656
 30
0.0
 10
-6.998271
 20
-2.709985
 30
0.0
 10
-6.613114
 20
-2.449684
 30
0.0
 10
-6.568360
 20
-2.433265
 30
0.0
 10
-6.730282
 20
-1.934922
 30
0.0
 10
-6.776139
 20
-1.947946
 30
0.0
 10
-7.240738
 20
-1.963747
 30
0.0
 10
-7.780799
 20
-1.865811
 30
0.0
 10
-7.857410
 20
-1.505383
 30
0.0
 10
-7.403874
 20
-1.196252
 30
0.0
 10
-6.973015
 20
-1.021717
 30
0.0
 10
-6.925825
 20
-1.014962
 30
0.0
 10
-6.980597
 20
-0.493844
 30
0.0
 10
-7.028160
 20
-0.497049
 30
0.0
 10
-7.485892
 20
-0.415909
 30
0.0
 10
-7.993789
 20
-0.207828
 30
0.0
 10
-7.993789
 20
0.160652
 30
0.0
 10
-7.485892
 20
0.368733
 30
0.0
 10
-7.028160
 20
0.449873
 30
0.0
 10
-6.980597
 20
0.446668
 30
0.0
 10
-6.925825
 20
0.967786
 30
0.0
 10
-6.973015
 20
0.974541
 30
0.0
 10
-7.403874
 20
1.149076
 30
0.0
 10
-7.857410
 20
1.458207
 30
0.0
 10
-7.780799
 20
1.818635
 30
0.0
 10
-7.240738
 20
1.916571
 30
0.0
 10
-6.776139
 20
1.900770
 30
0.0
 10
-6.730282
 20
1.887746
 30
0.0
 10
-6.568360
 20
2.386089
 30
0.0
 10
-6.613114
 20
2.402508
 30
0.0
 10
-6.998271
 20
2.662809
 30
0.0
 10
-7.377624
 20
3.059480
 30
0.0
 10
-7.227749
 20
3.396104
 30
0.0
 10
-6.679129
 20
3.379615
 30
0.0
 10
-6.227967
 20
3.267563
 30
0.0
 10
-6.185819
 20
3.245290
 30
0.0
 10
-5.923825
 20
3.699078
 30
0.0
 10
-5.964187
 20
3.724442
 30
0.0
 10
-6.286808
 20
4.059134
 30
0.0
 10
-6.575398
 20
4.526009
 30
0.0
 10
-6.358811
 20
4.824116
 30
0.0
 10
-5.825607
 20
4.693922
 30
0.0
 10
-5.407601
 20
4.490517
 30
0.0
 10
-5.371006
 20
4.459968
 30
0.0
 10
-5.020389
 20
4.849368
 30
0.0
 10
-5.054596
 20
4.882570
 30
0.0
 10
-5.300580
 20
5.277024
 30
0.0
 10
-5.485795
 20
5.793698
 30
0.0
 10
-5.211961
 20
6.040260
 30
0.0
 10
-4.717478
 20
5.802052
 30
0.0
 10
-4.350896
 20
5.516184
 30
0.0
 10
-4.321452
 20
5.478693
 30
0.0
 10
-3.897536
 20
5.786686
 30
0.0
 10
-3.924092
 20
5.826275
 30
0.0
 10
-4.082689
 20
6.263252
 30
0.0
 10
-4.156435
 20
6.807144
 30
0.0
 10
-3.837321
 20
6.991385
 30
0.0
 10
-3.403170
 20
6.655573
 30
0.0
 10
-3.104035
 20
6.299735
 30
0.0
 10
-3.083028
 20
6.256943
 30
0.0
 10
-2.604341
 20
6.470068
 30
0.0
 10
-2.622086
 20
6.514313
 30
0.0
 10
-2.686365
 20
6.974715
 30
0.0
 10
-2.645417
 20
7.522055
 30
0.0
 10
-2.294971
 20
7.635921
 30
0.0
 10
-1.940126
 20
7.217183
 30
0.0
 10
-1.721511
 20
6.806927
 30
0.0
 10
-1.709860
 20
6.760702
 30
0.0
 10
-1.197322
 20
6.869646
 30
0.0
 10
-1.205480
 20
6.916613
 30
0.0
 10
-1.172631
 20
7.380319
 30
0.0
 10
-1.018780
 20
7.907184
 30
0.0
 10
-0.652319
 20
7.945701
 30
0.0
 10
-0.392288
 20
7.462336
 30
0.0
 10
-0.263747
 20
7.015593
 30
0.0
 10
-0.261962
 20
6.967956
 30
0.0
 10
0.262027
 20
6.967956
 30
0.0
 10
0.263812
 20
7.015593
 30
0.0
 10
0.392353
 20
7.462336
 30
0.0
 10
0.652384
 20
7.945701
 30
0.0
 10
1.018845
 20
7.907184
 30
0.0
 10
1.172696
 20
7.380319
 30
0.0
 10
1.205545
 20
6.916613
 30
0.0
 10
1.197387
 20
6.869646
 30
0.0
 10
1.709925
 20
6.760702
 30
0.0
 10
1.721576
 20
6.806927
 30
0.0
 10
1.940191
 20
7.217183
 30
0.0
 10
2.295036
 20
7.635921
 30
0.0
 10
2.645482
 20
7.522055
 30
0.0
 10
2.686430
 20
6.974715
 30
0.0
 10
2.622151
 20
6.514313
 30
0.0
 10
2.604406
 20
6.470068
 30
0.0
 10
3.083093
 20
6.256943
 30
0.0
 10
3.104100
 20
6.299735
 30
0.0
 10
3.403235
 20
6.655573
 30
0.0
 10
3.837386
 20
6.991385
 30
0.0
 10
4.156500
 20
6.807144
 30
0.0
 10
4.082754
 20
6.263252
 30
0.0
 10
3.924157
 20
5.826275
 30
0.0
 10
3.897601
 20
5.786686
 30
0.0
 10
4.321517
 20
5.478693
 30
0.0
 10
4.350961
 20
5.516184
 30
0.0
 10
4.717543
 20
5.802052
 30
0.0
 10
5.212026
 20
6.040260
 30
0.0
 10
5.485860
 20
5.793698
 30
0.0
 10
5.300645
 20
5.277024
 30
0.0
 10
5.054661
 20
4.882570
 30
0.0
 10
5.020454
 20
4.849368
 30
0.0
 10
5.371071
 20
4.459968
 30
0.0
 10
5.407666
 20
4.490517
 30
0.0
 10
5.825672
 20
4.693922
 30
0.0
 10
6.358876
 20
4.824116
 30
0.0
 10
6.575463
 20
4.526009
 30
0.0
 10
6.286873
 20
4.059134
 30
0.0
 10
5.964253
 20
3.724442
 30
0.0
 10
5.923890
 20
3.699078
 30
0.0
 10
6.185884
 20
3.245290
 30
0.0
 10
6.228032
 20
3.267563
 30
0.0
 10
6.679194
 20
3.379615
 30
0.0
 10
7.227814
 20
3.396104
 30
0.0
 10
7.377689
 20
3.059480
 30
0.0
 10
6.998336
 20
2.662809
 30
0.0
 10
6.613179
 20
2.402508
 30
0.0
 10
6.568425
 20
2.386089
 30
0.0
 10
6.730347
 20
1.887746
 30
0.0
 10
6.776204
 20
1.900770
 30
0.0
 10
7.240803
 20
1.916571
 30
0.0
 10
7.780864
 20
1.818635
 30
0.0
 10
7.857475
 20
1.458207
 30
0.0
 10
7.403939
 20
1.149076
 30
0.0
 10
6.973080
 20
0.974541
 30
0.0
 10
6.925890
 20
0.967786
 30
0.0
 10
6.980662
 20
0.446668
 30
0.0
  0
ENDSEC
  0
SECTION
  2
OBJECTS
  0
DICTIONARY
  5
C
330
0
100
AcDbDictionary
  3
ACAD_GROUP
350
D
  3
ACAD_MLINESTYLE
350
17
  0
DICTIONARY
  5
D
330
C
100
AcDbDictionary
  0
DICTIONARY
  5
1A
330
C
100
AcDbDictionary
  0
DICTIONARY
  5
17
330
C
100
AcDbDictionary
  3
STANDARD
350
18
  0
DICTIONARY
  5
19
330
C
100
AcDbDictionary
  0
ENDSEC
  0
EOF
