  0
SECTION
  2
HEADER
  9
$ACADVER
  1
AC1014
  9
$HANDSEED
  5
FFFF
  9
$MEASUREMENT
 70
     1
  0
ENDSEC
  0
SECTION
  2
TABLES
  0
TABLE
  2
VPORT
  5
8
330
0
100
AcDbSymbolTable
 70
     4
  0
VPORT
  5
2E
330
8
100
AcDbSymbolTableRecord
100
AcDbViewportTableRecord
  2
*ACTIVE
 70
     0
 10
0.0
 20
0.0
 11
1.0
 21
1.0
 12
210.0
 22
148.5
 13
0.0
 23
0.0
 14
10.0
 24
10.0
 15
10.0
 25
10.0
 16
0.0
 26
0.0
 36
1.0
 17
0.0
 27
0.0
 37
0.0
 40
341.0
 41
1.24
 42
50.0
 43
0.0
 44
0.0
 50
0.0
 51
0.0
 71
     0
 72
   100
 73
     1
 74
     3
 75
     0
 76
     0
 77
     0
 78
     0
  0
ENDTAB
  0
TABLE
  2
LTYPE
  5
5
330
0
100
AcDbSymbolTable
 70
     1
  0
LTYPE
  5
14
330
5
100
AcDbSymbolTableRecord
100
AcDbLinetypeTableRecord
  2
BYBLOCK
 70
     0
  3

 72
    65
 73
     0
 40
0.0
  0
LTYPE
  5
15
330
5
100
AcDbSymbolTableRecord
100
AcDbLinetypeTableRecord
  2
BYLAYER
 70
     0
  3

 72
    65
 73
     0
 40
0.0
  0
LTYPE
  5
16
330
5
100
AcDbSymbolTableRecord
100
AcDbLinetypeTableRecord
  2
CONTINUOUS
 70
     0
  3
Solid line
 72
    65
 73
     0
 40
0.0
  0
ENDTAB
  0
TABLE
  2
LAYER
  5
2
100
AcDbSymbolTable
 70
2
  0
LAYER
  5
50
100
AcDbSymbolTableRecord
100
AcDbLayerTableRecord
  2
0
 70
0
  6
CONTINUOUS
  0
LAYER
  5
51
100
AcDbSymbolTableRecord
100
AcDbLayerTableRecord
  2
Ebene_1
 70
0
  6
CONTINUOUS
  0
ENDTAB
  0
TABLE
  2
STYLE
  5
3
330
0
100
AcDbSymbolTable
 70
     1
  0
STYLE
  5
11
330
3
100
AcDbSymbolTableRecord
100
AcDbTextStyleTableRecord
  2
STANDARD
 70
     0
 40
0.0
 41
1.0
 50
0.0
 71
     0
 42
2.5
  3
txt
  4

  0
ENDTAB
  0
TABLE
  2
VIEW
  5
6
330
0
100
AcDbSymbolTable
 70
     0
  0
ENDTAB
  0
TABLE
  2
UCS
  5
7
330
0
100
AcDbSymbolTable
 70
     0
  0
ENDTAB
  0
TABLE
  2
APPID
  5
9
330
0
100
AcDbSymbolTable
 70
     2
  0
APPID
  5
12
330
9
100
AcDbSymbolTableRecord
100
AcDbRegAppTableRecord
  2
ACAD
 70
     0
  0
ENDTAB
  0
TABLE
  2
DIMSTYLE
  5
A
330
0
100
AcDbSymbolTable
 70
     1
  0
DIMSTYLE
105
27
330
A
100
AcDbSymbolTableRecord
100
AcDbDimStyleTableRecord
  2
ISO-25
 70
     0
  3

  4

  5

  6

  7

 40
1.0
 41
2.5
 42
0.625
 43
3.75
 44
1.25
 45
0.0
 46
0.0
 47
0.0
 48
0.0
140
2.5
141
2.5
142
0.0
143
0.03937007874016
144
1.0
145
0.0
146
1.0
147
0.625
 71
     0
 72
     0
 73
     0
 74
     0
 75
     0
 76
     0
 77
     1
 78
     8
170
     0
171
     3
172
     1
173
     0
174
     0
175
     0
176
     0
177
     0
178
     0
270
     2
271
     2
272
     2
273
     2
274
     3
340
11
275
     0
280
     0
281
     0
282
     0
283
     0
284
     8
285
     0
286
     0
287
     3
288
     0
  0
ENDTAB
  0
TABLE
  2
BLOCK_RECORD
  5
1
330
0
100
AcDbSymbolTable
 70
     1
  0
BLOCK_RECORD
  5
1F
330
1
100
AcDbSymbolTableRecord
100
AcDbBlockTableRecord
  2
*MODEL_SPACE
  0
BLOCK_RECORD
  5
1B
330
1
100
AcDbSymbolTableRecord
100
AcDbBlockTableRecord
  2
*PAPER_SPACE
  0
ENDTAB
  0
ENDSEC
  0
SECTION
  2
BLOCKS
  0
BLOCK
  5
20
330
1F
100
AcDbEntity
  8
0
100
AcDbBlockBegin
  2
*MODEL_SPACE
 70
     0
 10
0.0
 20
0.0
 30
0.0
  3
*MODEL_SPACE
  1

  0
ENDBLK
  5
21
330
1F
100
AcDbEntity
  8
0
100
AcDbBlockEnd
  0
BLOCK
  5
1C
330
1B
100
AcDbEntity
 67
     1
  8
0
100
AcDbBlockBegin
  2
*PAPER_SPACE
  1

  0
ENDBLK
  5
1D
330
1B
100
AcDbEntity
 67
     1
  8
0
100
AcDbBlockEnd
  0
ENDSEC
  0
SECTION
  2
ENTITIES
  0
LWPOLYLINE
  5
100
100
AcDbEntity
  8
Ebene_1
 62
7
100
AcDbPolyline
 90
121
 70
1
 10
3.196620
 20
0.387667
 30
0.0
 10
3.468372
 20
0.420331
 30
0.0
 10
3.699048
 20
0.391795
 30
0.0
 10
4.216161
 20
0.163986
 30
0.0
 10
4.216161
 20
-0.163963
 30
0.0
 10
3.699048
 20
-0.391772
 30
0.0
 10
3.468372
 20
-0.420308
 30
0.0
 10
3.196620
 20
-0.387644
 30
0.0
 10
3.075465
 20
-0.957630
 30
0.0
 10
3.337009
 20
-1.038321
 30
0.0
 10
3.536135
 20
-1.158215
 30
0.0
 10
3.915883
 20
-1.576657
 30
0.0
 10
3.782494
 20
-1.876253
 30
0.0
 10
3.217430
 20
-1.874038
 30
0.0
 10
2.995091
 20
-1.806283
 30
0.0
 10
2.760118
 20
-1.665911
 30
0.0
 10
2.417604
 20
-2.137341
 30
0.0
 10
2.623716
 20
-2.317436
 30
0.0
 10
2.756862
 20
-2.507956
 30
0.0
 10
2.933583
 20
-3.044680
 30
0.0
 10
2.689870
 20
-3.264120
 30
0.0
 10
2.174559
 20
-3.032264
 30
0.0
 10
1.999000
 20
-2.879933
 30
0.0
 10
1.841436
 20
-2.656125
 30
0.0
 10
1.336786
 20
-2.947485
 30
0.0
 10
1.451827
 20
-3.195843
 30
0.0
 10
1.495970
 20
-3.424047
 30
0.0
 10
1.439108
 20
-3.986248
 30
0.0
 10
1.127211
 20
-4.087589
 30
0.0
 10
0.750755
 20
-3.666183
 30
0.0
 10
0.652333
 20
-3.455615
 30
0.0
 10
0.599422
 20
-3.187069
 30
0.0
 10
0.019894
 20
-3.247980
 30
0.0
 10
0.023974
 20
-3.521658
 30
0.0
 10
-0.028519
 20
-3.748087
 30
0.0
 10
-0.309133
 20
-4.238555
 30
0.0
 10
-0.635284
 20
-4.204275
 30
0.0
 10
-0.807792
 20
-3.666183
 30
0.0
 10
-0.812060
 20
-3.433787
 30
0.0
 10
-0.751169
 20
-3.166938
 30
0.0
 10
-1.305368
 20
-2.986868
 30
0.0
 10
-1.412957
 20
-3.238544
 30
0.0
 10
-1.553008
 20
-3.424047
 30
0.0
 10
-2.008853
 20
-3.757976
 30
0.0
 10
-2.292864
 20
-3.594002
 30
0.0
 10
-2.231596
 20
-3.032264
 30
0.0
 10
-2.140971
 20
-2.818225
 30
0.0
 10
-1.976807
 20
-2.599213
 30
0.0
 10
-2.409852
 20
-2.209297
 30
0.0
 10
-2.610505
 20
-2.395455
 30
0.0
 10
-2.813899
 20
-2.507956
 30
0.0
 10
-3.366155
 20
-2.627606
 30
0.0
 10
-3.558918
 20
-2.362290
 30
0.0
 10
-3.274468
 20
-1.874038
 30
0.0
 10
-3.104620
 20
-1.715364
 30
0.0
 10
-2.865568
 20
-1.582057
 30
0.0
 10
-3.102582
 20
-1.049717
 30
0.0
 10
-3.361605
 20
-1.138167
 30
0.0
 10
-3.593172
 20
-1.158215
 30
0.0
 10
-4.146349
 20
-1.042898
 30
0.0
 10
-4.214534
 20
-0.722116
 30
0.0
 10
-3.756085
 20
-0.391772
 30
0.0
 10
-3.536383
 20
-0.315899
 30
0.0
 10
-3.263778
 20
-0.291349
 30
0.0
 10
-3.263778
 20
0.291371
 30
0.0
 10
-3.536383
 20
0.315921
 30
0.0
 10
-3.756085
 20
0.391795
 30
0.0
 10
-4.214534
 20
0.722139
 30
0.0
 10
-4.146349
 20
1.042921
 30
0.0
 10
-3.593172
 20
1.158238
 30
0.0
 10
-3.361605
 20
1.138190
 30
0.0
 10
-3.102582
 20
1.049740
 30
0.0
 10
-2.865568
 20
1.582080
 30
0.0
 10
-3.104620
 20
1.715387
 30
0.0
 10
-3.274468
 20
1.874061
 30
0.0
 10
-3.558918
 20
2.362313
 30
0.0
 10
-3.366155
 20
2.627629
 30
0.0
 10
-2.813899
 20
2.507979
 30
0.0
 10
-2.610505
 20
2.395478
 30
0.0
 10
-2.409852
 20
2.209320
 30
0.0
 10
-1.976807
 20
2.599235
 30
0.0
 10
-2.140971
 20
2.818248
 30
0.0
 10
-2.231596
 20
3.032287
 30
0.0
 10
-2.292864
 20
3.594024
 30
0.0
 10
-2.008853
 20
3.757999
 30
0.0
 10
-1.553008
 20
3.424070
 30
0.0
 10
-1.412957
 20
3.238567
 30
0.0
 10
-1.305368
 20
2.986891
 30
0.0
 10
-0.751169
 20
3.166961
 30
0.0
 10
-0.812060
 20
3.433810
 30
0.0
 10
-0.807792
 20
3.666205
 30
0.0
 10
-0.635284
 20
4.204298
 30
0.0
 10
-0.309133
 20
4.238578
 30
0.0
 10
-0.028519
 20
3.748110
 30
0.0
 10
0.023974
 20
3.521681
 30
0.0
 10
0.019894
 20
3.248003
 30
0.0
 10
0.599422
 20
3.187092
 30
0.0
 10
0.652333
 20
3.455638
 30
0.0
 10
0.750755
 20
3.666205
 30
0.0
 10
1.127211
 20
4.087612
 30
0.0
 10
1.439108
 20
3.986270
 30
0.0
 10
1.495970
 20
3.424070
 30
0.0
 10
1.451827
 20
3.195866
 30
0.0
 10
1.336786
 20
2.947508
 30
0.0
 10
1.841436
 20
2.656148
 30
0.0
 10
1.999000
 20
2.879956
 30
0.0
 10
2.174559
 20
3.032287
 30
0.0
 10
2.689870
 20
3.264143
 30
0.0
 10
2.933583
 20
3.044703
 30
0.0
 10
2.756862
 20
2.507979
 30
0.0
 10
2.623716
 20
2.317459
 30
0.0
 10
2.417604
 20
2.137364
 30
0.0
 10
2.760118
 20
1.665934
 30
0.0
 10
2.995091
 20
1.806306
 30
0.0
 10
3.217430
 20
1.874061
 30
0.0
 10
3.782494
 20
1.876276
 30
0.0
 10
3.915883
 20
1.576680
 30
0.0
 10
3.536135
 20
1.158238
 30
0.0
 10
3.337009
 20
1.038344
 30
0.0
 10
3.075465
 20
0.957653
 30
0.0
 10
3.196620
 20
0.387667
 30
0.0
  0
ENDSEC
  0
SECTION
  2
OBJECTS
  0
DICTIONARY
  5
C
330
0
100
AcDbDictionary
  3
ACAD_GROUP
350
D
  3
ACAD_MLINESTYLE
350
17
  0
DICTIONARY
  5
D
330
C
100
AcDbDictionary
  0
DICTIONARY
  5
1A
330
C
100
AcDbDictionary
  0
DICTIONARY
  5
17
330
C
100
AcDbDictionary
  3
STANDARD
350
18
  0
DICTIONARY
  5
19
330
C
100
AcDbDictionary
  0
ENDSEC
  0
EOF
