  0
SECTION
  2
BLOCKS
  0
ENDSEC
  0
SECTION
  2
ENTITIES
  0
LINE
  8
0
 10
1.01855
 20
-7.9541
 11
1.17285
 21
-7.42773
  0
LINE
  8
0
 10
1.17285
 20
-7.42773
 11
1.20508
 21
-6.96387
  0
LINE
  8
0
 10
1.20508
 20
-6.96387
 11
1.19727
 21
-6.91699
  0
LINE
  8
0
 10
1.19727
 20
-6.91699
 11
1.70996
 21
-6.80762
  0
LINE
  8
0
 10
1.70996
 20
-6.80762
 11
1.72168
 21
-6.85449
  0
LINE
  8
0
 10
1.72168
 20
-6.85449
 11
1.94043
 21
-7.26465
  0
LINE
  8
0
 10
1.94043
 20
-7.26465
 11
2.29492
 21
-7.68262
  0
LINE
  8
0
 10
2.29492
 20
-7.68262
 11
2.64551
 21
-7.56934
  0
LINE
  8
0
 10
2.64551
 20
-7.56934
 11
2.68652
 21
-7.02148
  0
LINE
  8
0
 10
2.68652
 20
-7.02148
 11
2.62207
 21
-6.56152
  0
LINE
  8
0
 10
2.62207
 20
-6.56152
 11
2.60449
 21
-6.51758
  0
LINE
  8
0
 10
2.60449
 20
-6.51758
 11
3.08301
 21
-6.30371
  0
LINE
  8
0
 10
3.08301
 20
-6.30371
 11
3.10449
 21
-6.34668
  0
LINE
  8
0
 10
3.10449
 20
-6.34668
 11
3.40332
 21
-6.70312
  0
LINE
  8
0
 10
3.40332
 20
-6.70312
 11
3.83691
 21
-7.03809
  0
LINE
  8
0
 10
3.83691
 20
-7.03809
 11
4.15625
 21
-6.85449
  0
LINE
  8
0
 10
4.15625
 20
-6.85449
 11
4.08301
 21
-6.31055
  0
LINE
  8
0
 10
4.08301
 20
-6.31055
 11
3.92383
 21
-5.87305
  0
LINE
  8
0
 10
3.92383
 20
-5.87305
 11
3.89746
 21
-5.83398
  0
LINE
  8
0
 10
3.89746
 20
-5.83398
 11
4.32129
 21
-5.52539
  0
LINE
  8
0
 10
4.32129
 20
-5.52539
 11
4.35059
 21
-5.56348
  0
LINE
  8
0
 10
4.35059
 20
-5.56348
 11
4.71777
 21
-5.84961
  0
LINE
  8
0
 10
4.71777
 20
-5.84961
 11
5.21191
 21
-6.08789
  0
LINE
  8
0
 10
5.21191
 20
-6.08789
 11
5.48633
 21
-5.84082
  0
LINE
  8
0
 10
5.48633
 20
-5.84082
 11
5.30078
 21
-5.32422
  0
LINE
  8
0
 10
5.30078
 20
-5.32422
 11
5.05469
 21
-4.92969
  0
LINE
  8
0
 10
5.05469
 20
-4.92969
 11
5.02051
 21
-4.89648
  0
LINE
  8
0
 10
5.02051
 20
-4.89648
 11
5.37109
 21
-4.50684
  0
LINE
  8
0
 10
5.37109
 20
-4.50684
 11
5.40723
 21
-4.53809
  0
LINE
  8
0
 10
5.40723
 20
-4.53809
 11
5.8252
 21
-4.74121
  0
LINE
  8
0
 10
5.8252
 20
-4.74121
 11
6.3584
 21
-4.87109
  0
LINE
  8
0
 10
6.3584
 20
-4.87109
 11
6.5752
 21
-4.57324
  0
LINE
  8
0
 10
6.5752
 20
-4.57324
 11
6.28711
 21
-4.10645
  0
LINE
  8
0
 10
6.28711
 20
-4.10645
 11
5.96387
 21
-3.77148
  0
LINE
  8
0
 10
5.96387
 20
-3.77148
 11
5.92383
 21
-3.74609
  0
LINE
  8
0
 10
5.92383
 20
-3.74609
 11
6.18555
 21
-3.29199
  0
LINE
  8
0
 10
6.18555
 20
-3.29199
 11
6.22852
 21
-3.31445
  0
LINE
  8
0
 10
6.22852
 20
-3.31445
 11
6.67871
 21
-3.42676
  0
LINE
  8
0
 10
6.67871
 20
-3.42676
 11
7.22754
 21
-3.44336
  0
LINE
  8
0
 10
7.22754
 20
-3.44336
 11
7.37793
 21
-3.10645
  0
LINE
  8
0
 10
7.37793
 20
-3.10645
 11
6.99805
 21
-2.70996
  0
LINE
  8
0
 10
6.99805
 20
-2.70996
 11
6.61328
 21
-2.44922
  0
LINE
  8
0
 10
6.61328
 20
-2.44922
 11
6.56836
 21
-2.43359
  0
LINE
  8
0
 10
6.56836
 20
-2.43359
 11
6.73047
 21
-1.93457
  0
LINE
  8
0
 10
6.73047
 20
-1.93457
 11
6.77637
 21
-1.94824
  0
LINE
  8
0
 10
6.77637
 20
-1.94824
 11
7.24121
 21
-1.96387
  0
LINE
  8
0
 10
7.24121
 20
-1.96387
 11
7.78125
 21
-1.86621
  0
LINE
  8
0
 10
7.78125
 20
-1.86621
 11
7.85742
 21
-1.50586
  0
LINE
  8
0
 10
7.85742
 20
-1.50586
 11
7.4043
 21
-1.19629
  0
LINE
  8
0
 10
7.4043
 20
-1.19629
 11
6.97266
 21
-1.02148
  0
LINE
  8
0
 10
6.97266
 20
-1.02148
 11
6.92578
 21
-1.01465
  0
LINE
  8
0
 10
6.92578
 20
-1.01465
 11
6.98047
 21
-0.494141
  0
LINE
  8
0
 10
6.98047
 20
-0.494141
 11
7.02832
 21
-0.49707
  0
LINE
  8
0
 10
7.02832
 20
-0.49707
 11
7.48633
 21
-0.416016
  0
LINE
  8
0
 10
7.48633
 20
-0.416016
 11
7.99414
 21
-0.208008
  0
LINE
  8
0
 10
7.99414
 20
-0.208008
 11
7.99414
 21
0.161133
  0
LINE
  8
0
 10
7.99414
 20
0.161133
 11
7.48633
 21
0.369141
  0
LINE
  8
0
 10
7.48633
 20
0.369141
 11
7.02832
 21
0.450195
  0
LINE
  8
0
 10
7.02832
 20
0.450195
 11
6.98047
 21
0.446289
  0
LINE
  8
0
 10
6.98047
 20
0.446289
 11
6.92578
 21
0.967773
  0
LINE
  8
0
 10
6.92578
 20
0.967773
 11
6.97266
 21
0.974609
  0
LINE
  8
0
 10
6.97266
 20
0.974609
 11
7.4043
 21
1.14941
  0
LINE
  8
0
 10
7.4043
 20
1.14941
 11
7.85742
 21
1.45801
  0
LINE
  8
0
 10
7.85742
 20
1.45801
 11
7.78125
 21
1.81836
  0
LINE
  8
0
 10
7.78125
 20
1.81836
 11
7.24121
 21
1.91699
  0
LINE
  8
0
 10
7.24121
 20
1.91699
 11
6.77637
 21
1.90039
  0
LINE
  8
0
 10
6.77637
 20
1.90039
 11
6.73047
 21
1.8877
  0
LINE
  8
0
 10
6.73047
 20
1.8877
 11
6.56836
 21
2.38574
  0
LINE
  8
0
 10
6.56836
 20
2.38574
 11
6.61328
 21
2.40234
  0
LINE
  8
0
 10
6.61328
 20
2.40234
 11
6.99805
 21
2.66309
  0
LINE
  8
0
 10
6.99805
 20
2.66309
 11
7.37793
 21
3.05957
  0
LINE
  8
0
 10
7.37793
 20
3.05957
 11
7.22754
 21
3.39648
  0
LINE
  8
0
 10
7.22754
 20
3.39648
 11
6.67871
 21
3.37988
  0
LINE
  8
0
 10
6.67871
 20
3.37988
 11
6.22852
 21
3.26758
  0
LINE
  8
0
 10
6.22852
 20
3.26758
 11
6.18555
 21
3.24512
  0
LINE
  8
0
 10
6.18555
 20
3.24512
 11
5.92383
 21
3.69922
  0
LINE
  8
0
 10
5.92383
 20
3.69922
 11
5.96387
 21
3.72461
  0
LINE
  8
0
 10
5.96387
 20
3.72461
 11
6.28711
 21
4.05957
  0
LINE
  8
0
 10
6.28711
 20
4.05957
 11
6.5752
 21
4.52637
  0
LINE
  8
0
 10
6.5752
 20
4.52637
 11
6.3584
 21
4.82422
  0
LINE
  8
0
 10
6.3584
 20
4.82422
 11
5.8252
 21
4.69434
  0
LINE
  8
0
 10
5.8252
 20
4.69434
 11
5.40723
 21
4.49023
  0
LINE
  8
0
 10
5.40723
 20
4.49023
 11
5.37109
 21
4.45996
  0
LINE
  8
0
 10
5.37109
 20
4.45996
 11
5.02051
 21
4.84961
  0
LINE
  8
0
 10
5.02051
 20
4.84961
 11
5.05469
 21
4.88281
  0
LINE
  8
0
 10
5.05469
 20
4.88281
 11
5.30078
 21
5.27734
  0
LINE
  8
0
 10
5.30078
 20
5.27734
 11
5.48633
 21
5.79395
  0
LINE
  8
0
 10
5.48633
 20
5.79395
 11
5.21191
 21
6.04004
  0
LINE
  8
0
 10
5.21191
 20
6.04004
 11
4.71777
 21
5.80176
  0
LINE
  8
0
 10
4.71777
 20
5.80176
 11
4.35059
 21
5.5166
  0
LINE
  8
0
 10
4.35059
 20
5.5166
 11
4.32129
 21
5.47852
  0
LINE
  8
0
 10
4.32129
 20
5.47852
 11
3.89746
 21
5.78711
  0
LINE
  8
0
 10
3.89746
 20
5.78711
 11
3.92383
 21
5.82617
  0
LINE
  8
0
 10
3.92383
 20
5.82617
 11
4.08301
 21
6.26367
  0
LINE
  8
0
 10
4.08301
 20
6.26367
 11
4.15625
 21
6.80762
  0
LINE
  8
0
 10
4.15625
 20
6.80762
 11
3.83691
 21
6.99121
  0
LINE
  8
0
 10
3.83691
 20
6.99121
 11
3.40332
 21
6.65527
  0
LINE
  8
0
 10
3.40332
 20
6.65527
 11
3.10449
 21
6.2998
  0
LINE
  8
0
 10
3.10449
 20
6.2998
 11
3.08301
 21
6.25684
  0
LINE
  8
0
 10
3.08301
 20
6.25684
 11
2.60449
 21
6.46973
  0
LINE
  8
0
 10
2.60449
 20
6.46973
 11
2.62207
 21
6.51465
  0
LINE
  8
0
 10
2.62207
 20
6.51465
 11
2.68652
 21
6.97461
  0
LINE
  8
0
 10
2.68652
 20
6.97461
 11
2.64551
 21
7.52246
  0
LINE
  8
0
 10
2.64551
 20
7.52246
 11
2.29492
 21
7.63574
  0
LINE
  8
0
 10
2.29492
 20
7.63574
 11
1.94043
 21
7.2168
  0
LINE
  8
0
 10
1.94043
 20
7.2168
 11
1.72168
 21
6.80664
  0
LINE
  8
0
 10
1.72168
 20
6.80664
 11
1.70996
 21
6.76074
  0
LINE
  8
0
 10
1.70996
 20
6.76074
 11
1.19727
 21
6.87012
  0
LINE
  8
0
 10
1.19727
 20
6.87012
 11
1.20508
 21
6.91699
  0
LINE
  8
0
 10
1.20508
 20
6.91699
 11
1.17285
 21
7.37988
  0
LINE
  8
0
 10
1.17285
 20
7.37988
 11
1.01855
 21
7.90723
  0
LINE
  8
0
 10
1.01855
 20
7.90723
 11
0.652344
 21
7.94531
  0
LINE
  8
0
 10
0.652344
 20
7.94531
 11
0.392578
 21
7.46191
  0
LINE
  8
0
 10
0.392578
 20
7.46191
 11
0.263672
 21
7.01562
  0
LINE
  8
0
 10
0.263672
 20
7.01562
 11
0.261719
 21
6.96777
  0
LINE
  8
0
 10
0.261719
 20
6.96777
 11
-0.261719
 21
6.96777
  0
LINE
  8
0
 10
-0.261719
 20
6.96777
 11
-0.263672
 21
7.01562
  0
LINE
  8
0
 10
-0.263672
 20
7.01562
 11
-0.392578
 21
7.46191
  0
LINE
  8
0
 10
-0.392578
 20
7.46191
 11
-0.652344
 21
7.94531
  0
LINE
  8
0
 10
-0.652344
 20
7.94531
 11
-1.01855
 21
7.90723
  0
LINE
  8
0
 10
-1.01855
 20
7.90723
 11
-1.17285
 21
7.37988
  0
LINE
  8
0
 10
-1.17285
 20
7.37988
 11
-1.20508
 21
6.91699
  0
LINE
  8
0
 10
-1.20508
 20
6.91699
 11
-1.19727
 21
6.87012
  0
LINE
  8
0
 10
-1.19727
 20
6.87012
 11
-1.70996
 21
6.76074
  0
LINE
  8
0
 10
-1.70996
 20
6.76074
 11
-1.72168
 21
6.80664
  0
LINE
  8
0
 10
-1.72168
 20
6.80664
 11
-1.94043
 21
7.2168
  0
LINE
  8
0
 10
-1.94043
 20
7.2168
 11
-2.29492
 21
7.63574
  0
LINE
  8
0
 10
-2.29492
 20
7.63574
 11
-2.64551
 21
7.52246
  0
LINE
  8
0
 10
-2.64551
 20
7.52246
 11
-2.68652
 21
6.97461
  0
LINE
  8
0
 10
-2.68652
 20
6.97461
 11
-2.62207
 21
6.51465
  0
LINE
  8
0
 10
-2.62207
 20
6.51465
 11
-2.60449
 21
6.46973
  0
LINE
  8
0
 10
-2.60449
 20
6.46973
 11
-3.08301
 21
6.25684
  0
LINE
  8
0
 10
-3.08301
 20
6.25684
 11
-3.10449
 21
6.2998
  0
LINE
  8
0
 10
-3.10449
 20
6.2998
 11
-3.40332
 21
6.65527
  0
LINE
  8
0
 10
-3.40332
 20
6.65527
 11
-3.83691
 21
6.99121
  0
LINE
  8
0
 10
-3.83691
 20
6.99121
 11
-4.15625
 21
6.80762
  0
LINE
  8
0
 10
-4.15625
 20
6.80762
 11
-4.08301
 21
6.26367
  0
LINE
  8
0
 10
-4.08301
 20
6.26367
 11
-3.92383
 21
5.82617
  0
LINE
  8
0
 10
-3.92383
 20
5.82617
 11
-3.89746
 21
5.78711
  0
LINE
  8
0
 10
-3.89746
 20
5.78711
 11
-4.32129
 21
5.47852
  0
LINE
  8
0
 10
-4.32129
 20
5.47852
 11
-4.35059
 21
5.5166
  0
LINE
  8
0
 10
-4.35059
 20
5.5166
 11
-4.71777
 21
5.80176
  0
LINE
  8
0
 10
-4.71777
 20
5.80176
 11
-5.21191
 21
6.04004
  0
LINE
  8
0
 10
-5.21191
 20
6.04004
 11
-5.48535
 21
5.79395
  0
LINE
  8
0
 10
-5.48535
 20
5.79395
 11
-5.30078
 21
5.27734
  0
LINE
  8
0
 10
-5.30078
 20
5.27734
 11
-5.05469
 21
4.88281
  0
LINE
  8
0
 10
-5.05469
 20
4.88281
 11
-5.02051
 21
4.84961
  0
LINE
  8
0
 10
-5.02051
 20
4.84961
 11
-5.37109
 21
4.45996
  0
LINE
  8
0
 10
-5.37109
 20
4.45996
 11
-5.40723
 21
4.49023
  0
LINE
  8
0
 10
-5.40723
 20
4.49023
 11
-5.8252
 21
4.69434
  0
LINE
  8
0
 10
-5.8252
 20
4.69434
 11
-6.3584
 21
4.82422
  0
LINE
  8
0
 10
-6.3584
 20
4.82422
 11
-6.5752
 21
4.52637
  0
LINE
  8
0
 10
-6.5752
 20
4.52637
 11
-6.28711
 21
4.05957
  0
LINE
  8
0
 10
-6.28711
 20
4.05957
 11
-5.96387
 21
3.72461
  0
LINE
  8
0
 10
-5.96387
 20
3.72461
 11
-5.92383
 21
3.69922
  0
LINE
  8
0
 10
-5.92383
 20
3.69922
 11
-6.18555
 21
3.24512
  0
LINE
  8
0
 10
-6.18555
 20
3.24512
 11
-6.22754
 21
3.26758
  0
LINE
  8
0
 10
-6.22754
 20
3.26758
 11
-6.67871
 21
3.37988
  0
LINE
  8
0
 10
-6.67871
 20
3.37988
 11
-7.22754
 21
3.39648
  0
LINE
  8
0
 10
-7.22754
 20
3.39648
 11
-7.37793
 21
3.05957
  0
LINE
  8
0
 10
-7.37793
 20
3.05957
 11
-6.99805
 21
2.66309
  0
LINE
  8
0
 10
-6.99805
 20
2.66309
 11
-6.61328
 21
2.40234
  0
LINE
  8
0
 10
-6.61328
 20
2.40234
 11
-6.56836
 21
2.38574
  0
LINE
  8
0
 10
-6.56836
 20
2.38574
 11
-6.73047
 21
1.8877
  0
LINE
  8
0
 10
-6.73047
 20
1.8877
 11
-6.77637
 21
1.90039
  0
LINE
  8
0
 10
-6.77637
 20
1.90039
 11
-7.24121
 21
1.91699
  0
LINE
  8
0
 10
-7.24121
 20
1.91699
 11
-7.78125
 21
1.81836
  0
LINE
  8
0
 10
-7.78125
 20
1.81836
 11
-7.85742
 21
1.45801
  0
LINE
  8
0
 10
-7.85742
 20
1.45801
 11
-7.4043
 21
1.14941
  0
LINE
  8
0
 10
-7.4043
 20
1.14941
 11
-6.97266
 21
0.974609
  0
LINE
  8
0
 10
-6.97266
 20
0.974609
 11
-6.92578
 21
0.967773
  0
LINE
  8
0
 10
-6.92578
 20
0.967773
 11
-6.98047
 21
0.446289
  0
LINE
  8
0
 10
-6.98047
 20
0.446289
 11
-7.02832
 21
0.450195
  0
LINE
  8
0
 10
-7.02832
 20
0.450195
 11
-7.48633
 21
0.369141
  0
LINE
  8
0
 10
-7.48633
 20
0.369141
 11
-7.99414
 21
0.161133
  0
LINE
  8
0
 10
-7.99414
 20
0.161133
 11
-7.99414
 21
-0.208008
  0
LINE
  8
0
 10
-7.99414
 20
-0.208008
 11
-7.48633
 21
-0.416016
  0
LINE
  8
0
 10
-7.48633
 20
-0.416016
 11
-7.02832
 21
-0.49707
  0
LINE
  8
0
 10
-7.02832
 20
-0.49707
 11
-6.98047
 21
-0.494141
  0
LINE
  8
0
 10
-6.98047
 20
-0.494141
 11
-6.92578
 21
-1.01465
  0
LINE
  8
0
 10
-6.92578
 20
-1.01465
 11
-6.97266
 21
-1.02148
  0
LINE
  8
0
 10
-6.97266
 20
-1.02148
 11
-7.4043
 21
-1.19629
  0
LINE
  8
0
 10
-7.4043
 20
-1.19629
 11
-7.85742
 21
-1.50586
  0
LINE
  8
0
 10
-7.85742
 20
-1.50586
 11
-7.78125
 21
-1.86621
  0
LINE
  8
0
 10
-7.78125
 20
-1.86621
 11
-7.24121
 21
-1.96387
  0
LINE
  8
0
 10
-7.24121
 20
-1.96387
 11
-6.77637
 21
-1.94824
  0
LINE
  8
0
 10
-6.77637
 20
-1.94824
 11
-6.73047
 21
-1.93457
  0
LINE
  8
0
 10
-6.73047
 20
-1.93457
 11
-6.56836
 21
-2.43359
  0
LINE
  8
0
 10
-6.56836
 20
-2.43359
 11
-6.61328
 21
-2.44922
  0
LINE
  8
0
 10
-6.61328
 20
-2.44922
 11
-6.99805
 21
-2.70996
  0
LINE
  8
0
 10
-6.99805
 20
-2.70996
 11
-7.37793
 21
-3.10645
  0
LINE
  8
0
 10
-7.37793
 20
-3.10645
 11
-7.22754
 21
-3.44336
  0
LINE
  8
0
 10
-7.22754
 20
-3.44336
 11
-6.67871
 21
-3.42676
  0
LINE
  8
0
 10
-6.67871
 20
-3.42676
 11
-6.22754
 21
-3.31445
  0
LINE
  8
0
 10
-6.22754
 20
-3.31445
 11
-6.18555
 21
-3.29199
  0
LINE
  8
0
 10
-6.18555
 20
-3.29199
 11
-5.92383
 21
-3.74609
  0
LINE
  8
0
 10
-5.92383
 20
-3.74609
 11
-5.96387
 21
-3.77148
  0
LINE
  8
0
 10
-5.96387
 20
-3.77148
 11
-6.28711
 21
-4.10645
  0
LINE
  8
0
 10
-6.28711
 20
-4.10645
 11
-6.5752
 21
-4.57324
  0
LINE
  8
0
 10
-6.5752
 20
-4.57324
 11
-6.3584
 21
-4.87109
  0
LINE
  8
0
 10
-6.3584
 20
-4.87109
 11
-5.8252
 21
-4.74121
  0
LINE
  8
0
 10
-5.8252
 20
-4.74121
 11
-5.40723
 21
-4.53809
  0
LINE
  8
0
 10
-5.40723
 20
-4.53809
 11
-5.37109
 21
-4.50684
  0
LINE
  8
0
 10
-5.37109
 20
-4.50684
 11
-5.02051
 21
-4.89648
  0
LINE
  8
0
 10
-5.02051
 20
-4.89648
 11
-5.05469
 21
-4.92969
  0
LINE
  8
0
 10
-5.05469
 20
-4.92969
 11
-5.30078
 21
-5.32422
  0
LINE
  8
0
 10
-5.30078
 20
-5.32422
 11
-5.48535
 21
-5.84082
  0
LINE
  8
0
 10
-5.48535
 20
-5.84082
 11
-5.21191
 21
-6.08789
  0
LINE
  8
0
 10
-5.21191
 20
-6.08789
 11
-4.71777
 21
-5.84961
  0
LINE
  8
0
 10
-4.71777
 20
-5.84961
 11
-4.35059
 21
-5.56348
  0
LINE
  8
0
 10
-4.35059
 20
-5.56348
 11
-4.32129
 21
-5.52539
  0
LINE
  8
0
 10
-4.32129
 20
-5.52539
 11
-3.89746
 21
-5.83398
  0
LINE
  8
0
 10
-3.89746
 20
-5.83398
 11
-3.92383
 21
-5.87305
  0
LINE
  8
0
 10
-3.92383
 20
-5.87305
 11
-4.08301
 21
-6.31055
  0
LINE
  8
0
 10
-4.08301
 20
-6.31055
 11
-4.15625
 21
-6.85449
  0
LINE
  8
0
 10
-4.15625
 20
-6.85449
 11
-3.83691
 21
-7.03809
  0
LINE
  8
0
 10
-3.83691
 20
-7.03809
 11
-3.40332
 21
-6.70312
  0
LINE
  8
0
 10
-3.40332
 20
-6.70312
 11
-3.10449
 21
-6.34668
  0
LINE
  8
0
 10
-3.10449
 20
-6.34668
 11
-3.08301
 21
-6.30371
  0
LINE
  8
0
 10
-3.08301
 20
-6.30371
 11
-2.60449
 21
-6.51758
  0
LINE
  8
0
 10
-2.60449
 20
-6.51758
 11
-2.62207
 21
-6.56152
  0
LINE
  8
0
 10
-2.62207
 20
-6.56152
 11
-2.68652
 21
-7.02148
  0
LINE
  8
0
 10
-2.68652
 20
-7.02148
 11
-2.64551
 21
-7.56934
  0
LINE
  8
0
 10
-2.64551
 20
-7.56934
 11
-2.29492
 21
-7.68262
  0
LINE
  8
0
 10
-2.29492
 20
-7.68262
 11
-1.94043
 21
-7.26465
  0
LINE
  8
0
 10
-1.94043
 20
-7.26465
 11
-1.72168
 21
-6.85449
  0
LINE
  8
0
 10
-1.72168
 20
-6.85449
 11
-1.70996
 21
-6.80762
  0
LINE
  8
0
 10
-1.70996
 20
-6.80762
 11
-1.19727
 21
-6.91699
  0
LINE
  8
0
 10
-1.19727
 20
-6.91699
 11
-1.20508
 21
-6.96387
  0
LINE
  8
0
 10
-1.20508
 20
-6.96387
 11
-1.17285
 21
-7.42773
  0
LINE
  8
0
 10
-1.17285
 20
-7.42773
 11
-1.01855
 21
-7.9541
  0
LINE
  8
0
 10
-1.01855
 20
-7.9541
 11
-0.652344
 21
-7.99316
  0
LINE
  8
0
 10
-0.652344
 20
-7.99316
 11
-0.392578
 21
-7.50977
  0
LINE
  8
0
 10
-0.392578
 20
-7.50977
 11
-0.263672
 21
-7.0625
  0
LINE
  8
0
 10
-0.263672
 20
-7.0625
 11
-0.261719
 21
-7.01465
  0
LINE
  8
0
 10
-0.261719
 20
-7.01465
 11
0.261719
 21
-7.01465
  0
LINE
  8
0
 10
0.261719
 20
-7.01465
 11
0.263672
 21
-7.0625
  0
LINE
  8
0
 10
0.263672
 20
-7.0625
 11
0.392578
 21
-7.50977
  0
LINE
  8
0
 10
0.392578
 20
-7.50977
 11
0.652344
 21
-7.99316
  0
LINE
  8
0
 10
0.652344
 20
-7.99316
 11
1.01855
 21
-7.9541
  0
LINE
  8
0
 10
-1.72751
 20
4.43129
 11
-1.7832
 21
4.43518
  0
LINE
  8
0
 10
-1.7832
 20
4.43518
 11
-1.8385
 21
4.44296
  0
LINE
  8
0
 10
-1.8385
 20
4.44296
 11
-1.89313
 21
4.45456
  0
LINE
  8
0
 10
-1.89313
 20
4.45456
 11
-1.94679
 21
4.46996
  0
LINE
  8
0
 10
-1.94679
 20
4.46996
 11
-1.99927
 21
4.48906
  0
LINE
  8
0
 10
-1.99927
 20
4.48906
 11
-2.05028
 21
4.51176
  0
LINE
  8
0
 10
-2.05028
 20
4.51176
 11
-2.09958
 21
4.53798
  0
LINE
  8
0
 10
-2.09958
 20
4.53798
 11
-2.14694
 21
4.56757
  0
LINE
  8
0
 10
-2.14694
 20
4.56757
 11
-2.19211
 21
4.60039
  0
LINE
  8
0
 10
-2.19211
 20
4.60039
 11
-2.23489
 21
4.63629
  0
LINE
  8
0
 10
-2.23489
 20
4.63629
 11
-2.27505
 21
4.67508
  0
LINE
  8
0
 10
-2.27505
 20
4.67508
 11
-2.31242
 21
4.71657
  0
LINE
  8
0
 10
-2.31242
 20
4.71657
 11
-2.3468
 21
4.76057
  0
LINE
  8
0
 10
-2.3468
 20
4.76057
 11
-2.37802
 21
4.80687
  0
LINE
  8
0
 10
-2.37802
 20
4.80687
 11
-2.40594
 21
4.85522
  0
LINE
  8
0
 10
-2.40594
 20
4.85522
 11
-2.43042
 21
4.90541
  0
LINE
  8
0
 10
-2.43042
 20
4.90541
 11
-2.45134
 21
4.95718
  0
LINE
  8
0
 10
-2.45134
 20
4.95718
 11
-2.4686
 21
5.0103
  0
LINE
  8
0
 10
-2.4686
 20
5.0103
 11
-2.4821
 21
5.06447
  0
LINE
  8
0
 10
-2.4821
 20
5.06447
 11
-2.49181
 21
5.11946
  0
LINE
  8
0
 10
-2.49181
 20
5.11946
 11
-2.49763
 21
5.175
  0
LINE
  8
0
 10
-2.49763
 20
5.175
 11
-2.49959
 21
5.2308
  0
LINE
  8
0
 10
-2.49959
 20
5.2308
 11
-2.49763
 21
5.28661
  0
LINE
  8
0
 10
-2.49763
 20
5.28661
 11
-2.49181
 21
5.34215
  0
LINE
  8
0
 10
-2.49181
 20
5.34215
 11
-2.4821
 21
5.39713
  0
LINE
  8
0
 10
-2.4821
 20
5.39713
 11
-2.4686
 21
5.45131
  0
LINE
  8
0
 10
-2.4686
 20
5.45131
 11
-2.45134
 21
5.50443
  0
LINE
  8
0
 10
-2.45134
 20
5.50443
 11
-2.43042
 21
5.5562
  0
LINE
  8
0
 10
-2.43042
 20
5.5562
 11
-2.40594
 21
5.60638
  0
LINE
  8
0
 10
-2.40594
 20
5.60638
 11
-2.37802
 21
5.65474
  0
LINE
  8
0
 10
-2.37802
 20
5.65474
 11
-2.3468
 21
5.70103
  0
LINE
  8
0
 10
-2.3468
 20
5.70103
 11
-2.31242
 21
5.74504
  0
LINE
  8
0
 10
-2.31242
 20
5.74504
 11
-2.27505
 21
5.78653
  0
LINE
  8
0
 10
-2.27505
 20
5.78653
 11
-2.23489
 21
5.82532
  0
LINE
  8
0
 10
-2.23489
 20
5.82532
 11
-2.19211
 21
5.86121
  0
LINE
  8
0
 10
-2.19211
 20
5.86121
 11
-2.14694
 21
5.89403
  0
LINE
  8
0
 10
-2.14694
 20
5.89403
 11
-2.09958
 21
5.92363
  0
LINE
  8
0
 10
-2.09958
 20
5.92363
 11
-2.05028
 21
5.94984
  0
LINE
  8
0
 10
-2.05028
 20
5.94984
 11
-1.99927
 21
5.97255
  0
LINE
  8
0
 10
-1.99927
 20
5.97255
 11
-1.94679
 21
5.99165
  0
LINE
  8
0
 10
-1.94679
 20
5.99165
 11
-1.89313
 21
6.00703
  0
LINE
  8
0
 10
-1.89313
 20
6.00703
 11
-1.8385
 21
6.01865
  0
LINE
  8
0
 10
-1.8385
 20
6.01865
 11
-1.7832
 21
6.02643
  0
LINE
  8
0
 10
-1.7832
 20
6.02643
 11
-1.72751
 21
6.03032
  0
LINE
  8
0
 10
-1.72751
 20
6.03032
 11
-1.67166
 21
6.03032
  0
LINE
  8
0
 10
-1.67166
 20
6.03032
 11
-1.61597
 21
6.02643
  0
LINE
  8
0
 10
-1.61597
 20
6.02643
 11
-1.56067
 21
6.01865
  0
LINE
  8
0
 10
-1.56067
 20
6.01865
 11
-1.50604
 21
6.00703
  0
LINE
  8
0
 10
-1.50604
 20
6.00703
 11
-1.45238
 21
5.99165
  0
LINE
  8
0
 10
-1.45238
 20
5.99165
 11
-1.3999
 21
5.97255
  0
LINE
  8
0
 10
-1.3999
 20
5.97255
 11
-1.34889
 21
5.94984
  0
LINE
  8
0
 10
-1.34889
 20
5.94984
 11
-1.29959
 21
5.92363
  0
LINE
  8
0
 10
-1.29959
 20
5.92363
 11
-1.25223
 21
5.89403
  0
LINE
  8
0
 10
-1.25223
 20
5.89403
 11
-1.20706
 21
5.86121
  0
LINE
  8
0
 10
-1.20706
 20
5.86121
 11
-1.16428
 21
5.82532
  0
LINE
  8
0
 10
-1.16428
 20
5.82532
 11
-1.12411
 21
5.78653
  0
LINE
  8
0
 10
-1.12411
 20
5.78653
 11
-1.08675
 21
5.74504
  0
LINE
  8
0
 10
-1.08675
 20
5.74504
 11
-1.05237
 21
5.70103
  0
LINE
  8
0
 10
-1.05237
 20
5.70103
 11
-1.02115
 21
5.65474
  0
LINE
  8
0
 10
-1.02115
 20
5.65474
 11
-0.993225
 21
5.60638
  0
LINE
  8
0
 10
-0.993225
 20
5.60638
 11
-0.96875
 21
5.5562
  0
LINE
  8
0
 10
-0.96875
 20
5.5562
 11
-0.94783
 21
5.50443
  0
LINE
  8
0
 10
-0.94783
 20
5.50443
 11
-0.930573
 21
5.45131
  0
LINE
  8
0
 10
-0.930573
 20
5.45131
 11
-0.917068
 21
5.39713
  0
LINE
  8
0
 10
-0.917068
 20
5.39713
 11
-0.907364
 21
5.34215
  0
LINE
  8
0
 10
-0.907364
 20
5.34215
 11
-0.901535
 21
5.28661
  0
LINE
  8
0
 10
-0.901535
 20
5.28661
 11
-0.899582
 21
5.2308
  0
LINE
  8
0
 10
-0.899582
 20
5.2308
 11
-0.901535
 21
5.175
  0
LINE
  8
0
 10
-0.901535
 20
5.175
 11
-0.907364
 21
5.11946
  0
LINE
  8
0
 10
-0.907364
 20
5.11946
 11
-0.917068
 21
5.06447
  0
LINE
  8
0
 10
-0.917068
 20
5.06447
 11
-0.930573
 21
5.0103
  0
LINE
  8
0
 10
-0.930573
 20
5.0103
 11
-0.94783
 21
4.95718
  0
LINE
  8
0
 10
-0.94783
 20
4.95718
 11
-0.96875
 21
4.90541
  0
LINE
  8
0
 10
-0.96875
 20
4.90541
 11
-0.993225
 21
4.85522
  0
LINE
  8
0
 10
-0.993225
 20
4.85522
 11
-1.02115
 21
4.80687
  0
LINE
  8
0
 10
-1.02115
 20
4.80687
 11
-1.05237
 21
4.76057
  0
LINE
  8
0
 10
-1.05237
 20
4.76057
 11
-1.08675
 21
4.71657
  0
LINE
  8
0
 10
-1.08675
 20
4.71657
 11
-1.12411
 21
4.67508
  0
LINE
  8
0
 10
-1.12411
 20
4.67508
 11
-1.16428
 21
4.63629
  0
LINE
  8
0
 10
-1.16428
 20
4.63629
 11
-1.20706
 21
4.60039
  0
LINE
  8
0
 10
-1.20706
 20
4.60039
 11
-1.25223
 21
4.56757
  0
LINE
  8
0
 10
-1.25223
 20
4.56757
 11
-1.29959
 21
4.53798
  0
LINE
  8
0
 10
-1.29959
 20
4.53798
 11
-1.34889
 21
4.51176
  0
LINE
  8
0
 10
-1.34889
 20
4.51176
 11
-1.3999
 21
4.48906
  0
LINE
  8
0
 10
-1.3999
 20
4.48906
 11
-1.45238
 21
4.46996
  0
LINE
  8
0
 10
-1.45238
 20
4.46996
 11
-1.50604
 21
4.45456
  0
LINE
  8
0
 10
-1.50604
 20
4.45456
 11
-1.56067
 21
4.44296
  0
LINE
  8
0
 10
-1.56067
 20
4.44296
 11
-1.61597
 21
4.43518
  0
LINE
  8
0
 10
-1.61597
 20
4.43518
 11
-1.67166
 21
4.43129
  0
LINE
  8
0
 10
-1.67166
 20
4.43129
 11
-1.72751
 21
4.43129
  0
LINE
  8
0
 10
1.67166
 20
4.43129
 11
1.61597
 21
4.43518
  0
LINE
  8
0
 10
1.61597
 20
4.43518
 11
1.56067
 21
4.44296
  0
LINE
  8
0
 10
1.56067
 20
4.44296
 11
1.50604
 21
4.45456
  0
LINE
  8
0
 10
1.50604
 20
4.45456
 11
1.45238
 21
4.46996
  0
LINE
  8
0
 10
1.45238
 20
4.46996
 11
1.3999
 21
4.48906
  0
LINE
  8
0
 10
1.3999
 20
4.48906
 11
1.34889
 21
4.51176
  0
LINE
  8
0
 10
1.34889
 20
4.51176
 11
1.29959
 21
4.53798
  0
LINE
  8
0
 10
1.29959
 20
4.53798
 11
1.25223
 21
4.56757
  0
LINE
  8
0
 10
1.25223
 20
4.56757
 11
1.20706
 21
4.60039
  0
LINE
  8
0
 10
1.20706
 20
4.60039
 11
1.16428
 21
4.63629
  0
LINE
  8
0
 10
1.16428
 20
4.63629
 11
1.12411
 21
4.67508
  0
LINE
  8
0
 10
1.12411
 20
4.67508
 11
1.08675
 21
4.71657
  0
LINE
  8
0
 10
1.08675
 20
4.71657
 11
1.05237
 21
4.76057
  0
LINE
  8
0
 10
1.05237
 20
4.76057
 11
1.02115
 21
4.80687
  0
LINE
  8
0
 10
1.02115
 20
4.80687
 11
0.993225
 21
4.85522
  0
LINE
  8
0
 10
0.993225
 20
4.85522
 11
0.96875
 21
4.90541
  0
LINE
  8
0
 10
0.96875
 20
4.90541
 11
0.94783
 21
4.95718
  0
LINE
  8
0
 10
0.94783
 20
4.95718
 11
0.930573
 21
5.0103
  0
LINE
  8
0
 10
0.930573
 20
5.0103
 11
0.917068
 21
5.06447
  0
LINE
  8
0
 10
0.917068
 20
5.06447
 11
0.907364
 21
5.11946
  0
LINE
  8
0
 10
0.907364
 20
5.11946
 11
0.901535
 21
5.175
  0
LINE
  8
0
 10
0.901535
 20
5.175
 11
0.899582
 21
5.2308
  0
LINE
  8
0
 10
0.899582
 20
5.2308
 11
0.901535
 21
5.28661
  0
LINE
  8
0
 10
0.901535
 20
5.28661
 11
0.907364
 21
5.34215
  0
LINE
  8
0
 10
0.907364
 20
5.34215
 11
0.917068
 21
5.39713
  0
LINE
  8
0
 10
0.917068
 20
5.39713
 11
0.930573
 21
5.45131
  0
LINE
  8
0
 10
0.930573
 20
5.45131
 11
0.94783
 21
5.50443
  0
LINE
  8
0
 10
0.94783
 20
5.50443
 11
0.96875
 21
5.5562
  0
LINE
  8
0
 10
0.96875
 20
5.5562
 11
0.993225
 21
5.60638
  0
LINE
  8
0
 10
0.993225
 20
5.60638
 11
1.02115
 21
5.65474
  0
LINE
  8
0
 10
1.02115
 20
5.65474
 11
1.05237
 21
5.70103
  0
LINE
  8
0
 10
1.05237
 20
5.70103
 11
1.08675
 21
5.74504
  0
LINE
  8
0
 10
1.08675
 20
5.74504
 11
1.12411
 21
5.78653
  0
LINE
  8
0
 10
1.12411
 20
5.78653
 11
1.16428
 21
5.82532
  0
LINE
  8
0
 10
1.16428
 20
5.82532
 11
1.20706
 21
5.86121
  0
LINE
  8
0
 10
1.20706
 20
5.86121
 11
1.25223
 21
5.89403
  0
LINE
  8
0
 10
1.25223
 20
5.89403
 11
1.29959
 21
5.92363
  0
LINE
  8
0
 10
1.29959
 20
5.92363
 11
1.34889
 21
5.94984
  0
LINE
  8
0
 10
1.34889
 20
5.94984
 11
1.3999
 21
5.97255
  0
LINE
  8
0
 10
1.3999
 20
5.97255
 11
1.45238
 21
5.99165
  0
LINE
  8
0
 10
1.45238
 20
5.99165
 11
1.50604
 21
6.00703
  0
LINE
  8
0
 10
1.50604
 20
6.00703
 11
1.56067
 21
6.01865
  0
LINE
  8
0
 10
1.56067
 20
6.01865
 11
1.61597
 21
6.02643
  0
LINE
  8
0
 10
1.61597
 20
6.02643
 11
1.67166
 21
6.03032
  0
LINE
  8
0
 10
1.67166
 20
6.03032
 11
1.72751
 21
6.03032
  0
LINE
  8
0
 10
1.72751
 20
6.03032
 11
1.7832
 21
6.02643
  0
LINE
  8
0
 10
1.7832
 20
6.02643
 11
1.8385
 21
6.01865
  0
LINE
  8
0
 10
1.8385
 20
6.01865
 11
1.89313
 21
6.00703
  0
LINE
  8
0
 10
1.89313
 20
6.00703
 11
1.94679
 21
5.99165
  0
LINE
  8
0
 10
1.94679
 20
5.99165
 11
1.99927
 21
5.97255
  0
LINE
  8
0
 10
1.99927
 20
5.97255
 11
2.05028
 21
5.94984
  0
LINE
  8
0
 10
2.05028
 20
5.94984
 11
2.09958
 21
5.92363
  0
LINE
  8
0
 10
2.09958
 20
5.92363
 11
2.14694
 21
5.89403
  0
LINE
  8
0
 10
2.14694
 20
5.89403
 11
2.19211
 21
5.86121
  0
LINE
  8
0
 10
2.19211
 20
5.86121
 11
2.23489
 21
5.82532
  0
LINE
  8
0
 10
2.23489
 20
5.82532
 11
2.27505
 21
5.78653
  0
LINE
  8
0
 10
2.27505
 20
5.78653
 11
2.31242
 21
5.74504
  0
LINE
  8
0
 10
2.31242
 20
5.74504
 11
2.3468
 21
5.70103
  0
LINE
  8
0
 10
2.3468
 20
5.70103
 11
2.37802
 21
5.65474
  0
LINE
  8
0
 10
2.37802
 20
5.65474
 11
2.40594
 21
5.60638
  0
LINE
  8
0
 10
2.40594
 20
5.60638
 11
2.43042
 21
5.5562
  0
LINE
  8
0
 10
2.43042
 20
5.5562
 11
2.45134
 21
5.50443
  0
LINE
  8
0
 10
2.45134
 20
5.50443
 11
2.4686
 21
5.45131
  0
LINE
  8
0
 10
2.4686
 20
5.45131
 11
2.4821
 21
5.39713
  0
LINE
  8
0
 10
2.4821
 20
5.39713
 11
2.49181
 21
5.34215
  0
LINE
  8
0
 10
2.49181
 20
5.34215
 11
2.49763
 21
5.28661
  0
LINE
  8
0
 10
2.49763
 20
5.28661
 11
2.49959
 21
5.2308
  0
LINE
  8
0
 10
2.49959
 20
5.2308
 11
2.49763
 21
5.175
  0
LINE
  8
0
 10
2.49763
 20
5.175
 11
2.49181
 21
5.11946
  0
LINE
  8
0
 10
2.49181
 20
5.11946
 11
2.4821
 21
5.06447
  0
LINE
  8
0
 10
2.4821
 20
5.06447
 11
2.4686
 21
5.0103
  0
LINE
  8
0
 10
2.4686
 20
5.0103
 11
2.45134
 21
4.95718
  0
LINE
  8
0
 10
2.45134
 20
4.95718
 11
2.43042
 21
4.90541
  0
LINE
  8
0
 10
2.43042
 20
4.90541
 11
2.40594
 21
4.85522
  0
LINE
  8
0
 10
2.40594
 20
4.85522
 11
2.37802
 21
4.80687
  0
LINE
  8
0
 10
2.37802
 20
4.80687
 11
2.3468
 21
4.76057
  0
LINE
  8
0
 10
2.3468
 20
4.76057
 11
2.31242
 21
4.71657
  0
LINE
  8
0
 10
2.31242
 20
4.71657
 11
2.27505
 21
4.67508
  0
LINE
  8
0
 10
2.27505
 20
4.67508
 11
2.23489
 21
4.63629
  0
LINE
  8
0
 10
2.23489
 20
4.63629
 11
2.19211
 21
4.60039
  0
LINE
  8
0
 10
2.19211
 20
4.60039
 11
2.14694
 21
4.56757
  0
LINE
  8
0
 10
2.14694
 20
4.56757
 11
2.09958
 21
4.53798
  0
LINE
  8
0
 10
2.09958
 20
4.53798
 11
2.05028
 21
4.51176
  0
LINE
  8
0
 10
2.05028
 20
4.51176
 11
1.99927
 21
4.48906
  0
LINE
  8
0
 10
1.99927
 20
4.48906
 11
1.94679
 21
4.46996
  0
LINE
  8
0
 10
1.94679
 20
4.46996
 11
1.89313
 21
4.45456
  0
LINE
  8
0
 10
1.89313
 20
4.45456
 11
1.8385
 21
4.44296
  0
LINE
  8
0
 10
1.8385
 20
4.44296
 11
1.7832
 21
4.43518
  0
LINE
  8
0
 10
1.7832
 20
4.43518
 11
1.72751
 21
4.43129
  0
LINE
  8
0
 10
1.72751
 20
4.43129
 11
1.67166
 21
4.43129
  0
LINE
  8
0
 10
-4.47751
 20
2.4333
 11
-4.5332
 21
2.43719
  0
LINE
  8
0
 10
-4.5332
 20
2.43719
 11
-4.5885
 21
2.44496
  0
LINE
  8
0
 10
-4.5885
 20
2.44496
 11
-4.64313
 21
2.45657
  0
LINE
  8
0
 10
-4.64313
 20
2.45657
 11
-4.69679
 21
2.47197
  0
LINE
  8
0
 10
-4.69679
 20
2.47197
 11
-4.74927
 21
2.49106
  0
LINE
  8
0
 10
-4.74927
 20
2.49106
 11
-4.80028
 21
2.51378
  0
LINE
  8
0
 10
-4.80028
 20
2.51378
 11
-4.84958
 21
2.53999
  0
LINE
  8
0
 10
-4.84958
 20
2.53999
 11
-4.89694
 21
2.56958
  0
LINE
  8
0
 10
-4.89694
 20
2.56958
 11
-4.94211
 21
2.6024
  0
LINE
  8
0
 10
-4.94211
 20
2.6024
 11
-4.98489
 21
2.63829
  0
LINE
  8
0
 10
-4.98489
 20
2.63829
 11
-5.02505
 21
2.67708
  0
LINE
  8
0
 10
-5.02505
 20
2.67708
 11
-5.06242
 21
2.71858
  0
LINE
  8
0
 10
-5.06242
 20
2.71858
 11
-5.0968
 21
2.76259
  0
LINE
  8
0
 10
-5.0968
 20
2.76259
 11
-5.12802
 21
2.80887
  0
LINE
  8
0
 10
-5.12802
 20
2.80887
 11
-5.15594
 21
2.85724
  0
LINE
  8
0
 10
-5.15594
 20
2.85724
 11
-5.18042
 21
2.90742
  0
LINE
  8
0
 10
-5.18042
 20
2.90742
 11
-5.20134
 21
2.9592
  0
LINE
  8
0
 10
-5.20134
 20
2.9592
 11
-5.2186
 21
3.0123
  0
LINE
  8
0
 10
-5.2186
 20
3.0123
 11
-5.2321
 21
3.06648
  0
LINE
  8
0
 10
-5.2321
 20
3.06648
 11
-5.24181
 21
3.12148
  0
LINE
  8
0
 10
-5.24181
 20
3.12148
 11
-5.24763
 21
3.177
  0
LINE
  8
0
 10
-5.24763
 20
3.177
 11
-5.24959
 21
3.23282
  0
LINE
  8
0
 10
-5.24959
 20
3.23282
 11
-5.24763
 21
3.28862
  0
LINE
  8
0
 10
-5.24763
 20
3.28862
 11
-5.24181
 21
3.34415
  0
LINE
  8
0
 10
-5.24181
 20
3.34415
 11
-5.2321
 21
3.39914
  0
LINE
  8
0
 10
-5.2321
 20
3.39914
 11
-5.2186
 21
3.45332
  0
LINE
  8
0
 10
-5.2186
 20
3.45332
 11
-5.20134
 21
3.50642
  0
LINE
  8
0
 10
-5.20134
 20
3.50642
 11
-5.18042
 21
3.5582
  0
LINE
  8
0
 10
-5.18042
 20
3.5582
 11
-5.15594
 21
3.60838
  0
LINE
  8
0
 10
-5.15594
 20
3.60838
 11
-5.12802
 21
3.65675
  0
LINE
  8
0
 10
-5.12802
 20
3.65675
 11
-5.0968
 21
3.70303
  0
LINE
  8
0
 10
-5.0968
 20
3.70303
 11
-5.06242
 21
3.74704
  0
LINE
  8
0
 10
-5.06242
 20
3.74704
 11
-5.02505
 21
3.78854
  0
LINE
  8
0
 10
-5.02505
 20
3.78854
 11
-4.98489
 21
3.82733
  0
LINE
  8
0
 10
-4.98489
 20
3.82733
 11
-4.94211
 21
3.86322
  0
LINE
  8
0
 10
-4.94211
 20
3.86322
 11
-4.89694
 21
3.89604
  0
LINE
  8
0
 10
-4.89694
 20
3.89604
 11
-4.84958
 21
3.92563
  0
LINE
  8
0
 10
-4.84958
 20
3.92563
 11
-4.80028
 21
3.95184
  0
LINE
  8
0
 10
-4.80028
 20
3.95184
 11
-4.74927
 21
3.97456
  0
LINE
  8
0
 10
-4.74927
 20
3.97456
 11
-4.69679
 21
3.99365
  0
LINE
  8
0
 10
-4.69679
 20
3.99365
 11
-4.64313
 21
4.00905
  0
LINE
  8
0
 10
-4.64313
 20
4.00905
 11
-4.5885
 21
4.02066
  0
LINE
  8
0
 10
-4.5885
 20
4.02066
 11
-4.5332
 21
4.02843
  0
LINE
  8
0
 10
-4.5332
 20
4.02843
 11
-4.47751
 21
4.03232
  0
LINE
  8
0
 10
-4.47751
 20
4.03232
 11
-4.42166
 21
4.03232
  0
LINE
  8
0
 10
-4.42166
 20
4.03232
 11
-4.36597
 21
4.02843
  0
LINE
  8
0
 10
-4.36597
 20
4.02843
 11
-4.31067
 21
4.02066
  0
LINE
  8
0
 10
-4.31067
 20
4.02066
 11
-4.25604
 21
4.00905
  0
LINE
  8
0
 10
-4.25604
 20
4.00905
 11
-4.20238
 21
3.99365
  0
LINE
  8
0
 10
-4.20238
 20
3.99365
 11
-4.1499
 21
3.97456
  0
LINE
  8
0
 10
-4.1499
 20
3.97456
 11
-4.09889
 21
3.95184
  0
LINE
  8
0
 10
-4.09889
 20
3.95184
 11
-4.04959
 21
3.92563
  0
LINE
  8
0
 10
-4.04959
 20
3.92563
 11
-4.00223
 21
3.89604
  0
LINE
  8
0
 10
-4.00223
 20
3.89604
 11
-3.95706
 21
3.86322
  0
LINE
  8
0
 10
-3.95706
 20
3.86322
 11
-3.91428
 21
3.82733
  0
LINE
  8
0
 10
-3.91428
 20
3.82733
 11
-3.87411
 21
3.78854
  0
LINE
  8
0
 10
-3.87411
 20
3.78854
 11
-3.83675
 21
3.74704
  0
LINE
  8
0
 10
-3.83675
 20
3.74704
 11
-3.80237
 21
3.70303
  0
LINE
  8
0
 10
-3.80237
 20
3.70303
 11
-3.77115
 21
3.65675
  0
LINE
  8
0
 10
-3.77115
 20
3.65675
 11
-3.74323
 21
3.60838
  0
LINE
  8
0
 10
-3.74323
 20
3.60838
 11
-3.71875
 21
3.5582
  0
LINE
  8
0
 10
-3.71875
 20
3.5582
 11
-3.69783
 21
3.50642
  0
LINE
  8
0
 10
-3.69783
 20
3.50642
 11
-3.68057
 21
3.45332
  0
LINE
  8
0
 10
-3.68057
 20
3.45332
 11
-3.66707
 21
3.39914
  0
LINE
  8
0
 10
-3.66707
 20
3.39914
 11
-3.65736
 21
3.34415
  0
LINE
  8
0
 10
-3.65736
 20
3.34415
 11
-3.65154
 21
3.28862
  0
LINE
  8
0
 10
-3.65154
 20
3.28862
 11
-3.64958
 21
3.23282
  0
LINE
  8
0
 10
-3.64958
 20
3.23282
 11
-3.65154
 21
3.177
  0
LINE
  8
0
 10
-3.65154
 20
3.177
 11
-3.65736
 21
3.12148
  0
LINE
  8
0
 10
-3.65736
 20
3.12148
 11
-3.66707
 21
3.06648
  0
LINE
  8
0
 10
-3.66707
 20
3.06648
 11
-3.68057
 21
3.0123
  0
LINE
  8
0
 10
-3.68057
 20
3.0123
 11
-3.69783
 21
2.9592
  0
LINE
  8
0
 10
-3.69783
 20
2.9592
 11
-3.71875
 21
2.90742
  0
LINE
  8
0
 10
-3.71875
 20
2.90742
 11
-3.74323
 21
2.85724
  0
LINE
  8
0
 10
-3.74323
 20
2.85724
 11
-3.77115
 21
2.80887
  0
LINE
  8
0
 10
-3.77115
 20
2.80887
 11
-3.80237
 21
2.76259
  0
LINE
  8
0
 10
-3.80237
 20
2.76259
 11
-3.83675
 21
2.71858
  0
LINE
  8
0
 10
-3.83675
 20
2.71858
 11
-3.87411
 21
2.67708
  0
LINE
  8
0
 10
-3.87411
 20
2.67708
 11
-3.91428
 21
2.63829
  0
LINE
  8
0
 10
-3.91428
 20
2.63829
 11
-3.95706
 21
2.6024
  0
LINE
  8
0
 10
-3.95706
 20
2.6024
 11
-4.00223
 21
2.56958
  0
LINE
  8
0
 10
-4.00223
 20
2.56958
 11
-4.04959
 21
2.53999
  0
LINE
  8
0
 10
-4.04959
 20
2.53999
 11
-4.09889
 21
2.51378
  0
LINE
  8
0
 10
-4.09889
 20
2.51378
 11
-4.1499
 21
2.49106
  0
LINE
  8
0
 10
-4.1499
 20
2.49106
 11
-4.20238
 21
2.47197
  0
LINE
  8
0
 10
-4.20238
 20
2.47197
 11
-4.25604
 21
2.45657
  0
LINE
  8
0
 10
-4.25604
 20
2.45657
 11
-4.31067
 21
2.44496
  0
LINE
  8
0
 10
-4.31067
 20
2.44496
 11
-4.36597
 21
2.43719
  0
LINE
  8
0
 10
-4.36597
 20
2.43719
 11
-4.42166
 21
2.4333
  0
LINE
  8
0
 10
-4.42166
 20
2.4333
 11
-4.47751
 21
2.4333
  0
LINE
  8
0
 10
4.42166
 20
2.4333
 11
4.36597
 21
2.43719
  0
LINE
  8
0
 10
4.36597
 20
2.43719
 11
4.31067
 21
2.44496
  0
LINE
  8
0
 10
4.31067
 20
2.44496
 11
4.25604
 21
2.45657
  0
LINE
  8
0
 10
4.25604
 20
2.45657
 11
4.20238
 21
2.47197
  0
LINE
  8
0
 10
4.20238
 20
2.47197
 11
4.1499
 21
2.49106
  0
LINE
  8
0
 10
4.1499
 20
2.49106
 11
4.09889
 21
2.51378
  0
LINE
  8
0
 10
4.09889
 20
2.51378
 11
4.04959
 21
2.53999
  0
LINE
  8
0
 10
4.04959
 20
2.53999
 11
4.00223
 21
2.56958
  0
LINE
  8
0
 10
4.00223
 20
2.56958
 11
3.95706
 21
2.6024
  0
LINE
  8
0
 10
3.95706
 20
2.6024
 11
3.91428
 21
2.63829
  0
LINE
  8
0
 10
3.91428
 20
2.63829
 11
3.87411
 21
2.67708
  0
LINE
  8
0
 10
3.87411
 20
2.67708
 11
3.83675
 21
2.71858
  0
LINE
  8
0
 10
3.83675
 20
2.71858
 11
3.80237
 21
2.76259
  0
LINE
  8
0
 10
3.80237
 20
2.76259
 11
3.77115
 21
2.80887
  0
LINE
  8
0
 10
3.77115
 20
2.80887
 11
3.74323
 21
2.85724
  0
LINE
  8
0
 10
3.74323
 20
2.85724
 11
3.71875
 21
2.90742
  0
LINE
  8
0
 10
3.71875
 20
2.90742
 11
3.69783
 21
2.9592
  0
LINE
  8
0
 10
3.69783
 20
2.9592
 11
3.68057
 21
3.0123
  0
LINE
  8
0
 10
3.68057
 20
3.0123
 11
3.66707
 21
3.06648
  0
LINE
  8
0
 10
3.66707
 20
3.06648
 11
3.65736
 21
3.12148
  0
LINE
  8
0
 10
3.65736
 20
3.12148
 11
3.65154
 21
3.177
  0
LINE
  8
0
 10
3.65154
 20
3.177
 11
3.64958
 21
3.23282
  0
LINE
  8
0
 10
3.64958
 20
3.23282
 11
3.65154
 21
3.28862
  0
LINE
  8
0
 10
3.65154
 20
3.28862
 11
3.65736
 21
3.34415
  0
LINE
  8
0
 10
3.65736
 20
3.34415
 11
3.66707
 21
3.39914
  0
LINE
  8
0
 10
3.66707
 20
3.39914
 11
3.68057
 21
3.45332
  0
LINE
  8
0
 10
3.68057
 20
3.45332
 11
3.69783
 21
3.50642
  0
LINE
  8
0
 10
3.69783
 20
3.50642
 11
3.71875
 21
3.5582
  0
LINE
  8
0
 10
3.71875
 20
3.5582
 11
3.74323
 21
3.60838
  0
LINE
  8
0
 10
3.74323
 20
3.60838
 11
3.77115
 21
3.65675
  0
LINE
  8
0
 10
3.77115
 20
3.65675
 11
3.80237
 21
3.70303
  0
LINE
  8
0
 10
3.80237
 20
3.70303
 11
3.83675
 21
3.74704
  0
LINE
  8
0
 10
3.83675
 20
3.74704
 11
3.87411
 21
3.78854
  0
LINE
  8
0
 10
3.87411
 20
3.78854
 11
3.91428
 21
3.82733
  0
LINE
  8
0
 10
3.91428
 20
3.82733
 11
3.95706
 21
3.86322
  0
LINE
  8
0
 10
3.95706
 20
3.86322
 11
4.00223
 21
3.89604
  0
LINE
  8
0
 10
4.00223
 20
3.89604
 11
4.04959
 21
3.92563
  0
LINE
  8
0
 10
4.04959
 20
3.92563
 11
4.09889
 21
3.95184
  0
LINE
  8
0
 10
4.09889
 20
3.95184
 11
4.1499
 21
3.97456
  0
LINE
  8
0
 10
4.1499
 20
3.97456
 11
4.20238
 21
3.99365
  0
LINE
  8
0
 10
4.20238
 20
3.99365
 11
4.25604
 21
4.00905
  0
LINE
  8
0
 10
4.25604
 20
4.00905
 11
4.31067
 21
4.02066
  0
LINE
  8
0
 10
4.31067
 20
4.02066
 11
4.36597
 21
4.02843
  0
LINE
  8
0
 10
4.36597
 20
4.02843
 11
4.42166
 21
4.03232
  0
LINE
  8
0
 10
4.42166
 20
4.03232
 11
4.47751
 21
4.03232
  0
LINE
  8
0
 10
4.47751
 20
4.03232
 11
4.5332
 21
4.02843
  0
LINE
  8
0
 10
4.5332
 20
4.02843
 11
4.5885
 21
4.02066
  0
LINE
  8
0
 10
4.5885
 20
4.02066
 11
4.64313
 21
4.00905
  0
LINE
  8
0
 10
4.64313
 20
4.00905
 11
4.69679
 21
3.99365
  0
LINE
  8
0
 10
4.69679
 20
3.99365
 11
4.74927
 21
3.97456
  0
LINE
  8
0
 10
4.74927
 20
3.97456
 11
4.80028
 21
3.95184
  0
LINE
  8
0
 10
4.80028
 20
3.95184
 11
4.84958
 21
3.92563
  0
LINE
  8
0
 10
4.84958
 20
3.92563
 11
4.89694
 21
3.89604
  0
LINE
  8
0
 10
4.89694
 20
3.89604
 11
4.94211
 21
3.86322
  0
LINE
  8
0
 10
4.94211
 20
3.86322
 11
4.98489
 21
3.82733
  0
LINE
  8
0
 10
4.98489
 20
3.82733
 11
5.02505
 21
3.78854
  0
LINE
  8
0
 10
5.02505
 20
3.78854
 11
5.06242
 21
3.74704
  0
LINE
  8
0
 10
5.06242
 20
3.74704
 11
5.0968
 21
3.70303
  0
LINE
  8
0
 10
5.0968
 20
3.70303
 11
5.12802
 21
3.65675
  0
LINE
  8
0
 10
5.12802
 20
3.65675
 11
5.15594
 21
3.60838
  0
LINE
  8
0
 10
5.15594
 20
3.60838
 11
5.18042
 21
3.5582
  0
LINE
  8
0
 10
5.18042
 20
3.5582
 11
5.20134
 21
3.50642
  0
LINE
  8
0
 10
5.20134
 20
3.50642
 11
5.2186
 21
3.45332
  0
LINE
  8
0
 10
5.2186
 20
3.45332
 11
5.2321
 21
3.39914
  0
LINE
  8
0
 10
5.2321
 20
3.39914
 11
5.24181
 21
3.34415
  0
LINE
  8
0
 10
5.24181
 20
3.34415
 11
5.24763
 21
3.28862
  0
LINE
  8
0
 10
5.24763
 20
3.28862
 11
5.24959
 21
3.23282
  0
LINE
  8
0
 10
5.24959
 20
3.23282
 11
5.24763
 21
3.177
  0
LINE
  8
0
 10
5.24763
 20
3.177
 11
5.24181
 21
3.12148
  0
LINE
  8
0
 10
5.24181
 20
3.12148
 11
5.2321
 21
3.06648
  0
LINE
  8
0
 10
5.2321
 20
3.06648
 11
5.2186
 21
3.0123
  0
LINE
  8
0
 10
5.2186
 20
3.0123
 11
5.20134
 21
2.9592
  0
LINE
  8
0
 10
5.20134
 20
2.9592
 11
5.18042
 21
2.90742
  0
LINE
  8
0
 10
5.18042
 20
2.90742
 11
5.15594
 21
2.85724
  0
LINE
  8
0
 10
5.15594
 20
2.85724
 11
5.12802
 21
2.80887
  0
LINE
  8
0
 10
5.12802
 20
2.80887
 11
5.0968
 21
2.76259
  0
LINE
  8
0
 10
5.0968
 20
2.76259
 11
5.06242
 21
2.71858
  0
LINE
  8
0
 10
5.06242
 20
2.71858
 11
5.02505
 21
2.67708
  0
LINE
  8
0
 10
5.02505
 20
2.67708
 11
4.98489
 21
2.63829
  0
LINE
  8
0
 10
4.98489
 20
2.63829
 11
4.94211
 21
2.6024
  0
LINE
  8
0
 10
4.94211
 20
2.6024
 11
4.89694
 21
2.56958
  0
LINE
  8
0
 10
4.89694
 20
2.56958
 11
4.84958
 21
2.53999
  0
LINE
  8
0
 10
4.84958
 20
2.53999
 11
4.80028
 21
2.51378
  0
LINE
  8
0
 10
4.80028
 20
2.51378
 11
4.74927
 21
2.49106
  0
LINE
  8
0
 10
4.74927
 20
2.49106
 11
4.69679
 21
2.47197
  0
LINE
  8
0
 10
4.69679
 20
2.47197
 11
4.64313
 21
2.45657
  0
LINE
  8
0
 10
4.64313
 20
2.45657
 11
4.5885
 21
2.44496
  0
LINE
  8
0
 10
4.5885
 20
2.44496
 11
4.5332
 21
2.43719
  0
LINE
  8
0
 10
4.5332
 20
2.43719
 11
4.47751
 21
2.4333
  0
LINE
  8
0
 10
4.47751
 20
2.4333
 11
4.42166
 21
2.4333
  0
LINE
  8
0
 10
-3.57365
 20
1.79202
 11
-3.53178
 21
1.87788
  0
LINE
  8
0
 10
-3.53178
 20
1.87788
 11
-3.39218
 21
2.11967
  0
LINE
  8
0
 10
-3.39218
 20
2.11967
 11
-3.23605
 21
2.35114
  0
LINE
  8
0
 10
-3.23605
 20
2.35114
 11
-3.06416
 21
2.57114
  0
LINE
  8
0
 10
-3.06416
 20
2.57114
 11
-2.87735
 21
2.77863
  0
LINE
  8
0
 10
-2.87735
 20
2.77863
 11
-2.67651
 21
2.97256
  0
LINE
  8
0
 10
-2.67651
 20
2.97256
 11
-2.46263
 21
3.15204
  0
LINE
  8
0
 10
-2.46263
 20
3.15204
 11
-2.23677
 21
3.31615
  0
LINE
  8
0
 10
-2.23677
 20
3.31615
 11
-1.99998
 21
3.4641
  0
LINE
  8
0
 10
-1.99998
 20
3.4641
 11
-1.75348
 21
3.59517
  0
LINE
  8
0
 10
-1.75348
 20
3.59517
 11
-1.49841
 21
3.70872
  0
LINE
  8
0
 10
-1.49841
 20
3.70872
 11
-1.23605
 21
3.80421
  0
LINE
  8
0
 10
-1.23605
 20
3.80421
 11
-0.967682
 21
3.88118
  0
LINE
  8
0
 10
-0.967682
 20
3.88118
 11
-0.69458
 21
3.93922
  0
LINE
  8
0
 10
-0.69458
 20
3.93922
 11
-0.599991
 21
3.95251
  0
LINE
  8
0
 10
-0.599991
 20
3.95251
 11
-0.599991
 21
1.37381
  0
LINE
  8
0
 10
-0.599991
 20
1.37381
 11
-0.657547
 21
1.34819
  0
LINE
  8
0
 10
-0.657547
 20
1.34819
 11
-0.749985
 21
1.29903
  0
LINE
  8
0
 10
-0.749985
 20
1.29903
 11
-0.838776
 21
1.24355
  0
LINE
  8
0
 10
-0.838776
 20
1.24355
 11
-0.923477
 21
1.18201
  0
LINE
  8
0
 10
-0.923477
 20
1.18201
 11
-1.00369
 21
1.11472
  0
LINE
  8
0
 10
-1.00369
 20
1.11472
 11
-1.07899
 21
1.04198
  0
LINE
  8
0
 10
-1.07899
 20
1.04198
 11
-1.12115
 21
0.995163
  0
LINE
  8
0
 10
-1.12115
 20
0.995163
 11
-3.57365
 21
1.79202
  0
LINE
  8
0
 10
1.07899
 20
1.04198
 11
1.00369
 21
1.11472
  0
LINE
  8
0
 10
1.00369
 20
1.11472
 11
0.923477
 21
1.18201
  0
LINE
  8
0
 10
0.923477
 20
1.18201
 11
0.838776
 21
1.24355
  0
LINE
  8
0
 10
0.838776
 20
1.24355
 11
0.75
 21
1.29903
  0
LINE
  8
0
 10
0.75
 20
1.29903
 11
0.657547
 21
1.34819
  0
LINE
  8
0
 10
0.657547
 20
1.34819
 11
0.599991
 21
1.37381
  0
LINE
  8
0
 10
0.599991
 20
1.37381
 11
0.599991
 21
3.95251
  0
LINE
  8
0
 10
0.599991
 20
3.95251
 11
0.69458
 21
3.93922
  0
LINE
  8
0
 10
0.69458
 20
3.93922
 11
0.967682
 21
3.88118
  0
LINE
  8
0
 10
0.967682
 20
3.88118
 11
1.23605
 21
3.80421
  0
LINE
  8
0
 10
1.23605
 20
3.80421
 11
1.49841
 21
3.70872
  0
LINE
  8
0
 10
1.49841
 20
3.70872
 11
1.75348
 21
3.59517
  0
LINE
  8
0
 10
1.75348
 20
3.59517
 11
2
 21
3.4641
  0
LINE
  8
0
 10
2
 20
3.4641
 11
2.23677
 21
3.31615
  0
LINE
  8
0
 10
2.23677
 20
3.31615
 11
2.46263
 21
3.15204
  0
LINE
  8
0
 10
2.46263
 20
3.15204
 11
2.67651
 21
2.97256
  0
LINE
  8
0
 10
2.67651
 20
2.97256
 11
2.87735
 21
2.77863
  0
LINE
  8
0
 10
2.87735
 20
2.77863
 11
3.06416
 21
2.57114
  0
LINE
  8
0
 10
3.06416
 20
2.57114
 11
3.23605
 21
2.35114
  0
LINE
  8
0
 10
3.23605
 20
2.35114
 11
3.39218
 21
2.11967
  0
LINE
  8
0
 10
3.39218
 20
2.11967
 11
3.53178
 21
1.87788
  0
LINE
  8
0
 10
3.53178
 20
1.87788
 11
3.57365
 21
1.79202
  0
LINE
  8
0
 10
3.57365
 20
1.79202
 11
1.12115
 21
0.995163
  0
LINE
  8
0
 10
1.12115
 20
0.995163
 11
1.07899
 21
1.04198
  0
LINE
  8
0
 10
5.47208
 20
-0.7995
 11
5.41637
 21
-0.795609
  0
LINE
  8
0
 10
5.41637
 20
-0.795609
 11
5.36107
 21
-0.787842
  0
LINE
  8
0
 10
5.36107
 20
-0.787842
 11
5.30646
 21
-0.77623
  0
LINE
  8
0
 10
5.30646
 20
-0.77623
 11
5.25278
 21
-0.760834
  0
LINE
  8
0
 10
5.25278
 20
-0.760834
 11
5.2003
 21
-0.741745
  0
LINE
  8
0
 10
5.2003
 20
-0.741745
 11
5.14929
 21
-0.719025
  0
LINE
  8
0
 10
5.14929
 20
-0.719025
 11
5.09999
 21
-0.69281
  0
LINE
  8
0
 10
5.09999
 20
-0.69281
 11
5.05264
 21
-0.663223
  0
LINE
  8
0
 10
5.05264
 20
-0.663223
 11
5.00746
 21
-0.630402
  0
LINE
  8
0
 10
5.00746
 20
-0.630402
 11
4.96469
 21
-0.594513
  0
LINE
  8
0
 10
4.96469
 20
-0.594513
 11
4.92451
 21
-0.555725
  0
LINE
  8
0
 10
4.92451
 20
-0.555725
 11
4.88716
 21
-0.514221
  0
LINE
  8
0
 10
4.88716
 20
-0.514221
 11
4.85278
 21
-0.470215
  0
LINE
  8
0
 10
4.85278
 20
-0.470215
 11
4.82155
 21
-0.423935
  0
LINE
  8
0
 10
4.82155
 20
-0.423935
 11
4.79364
 21
-0.375565
  0
LINE
  8
0
 10
4.79364
 20
-0.375565
 11
4.76915
 21
-0.325378
  0
LINE
  8
0
 10
4.76915
 20
-0.325378
 11
4.74825
 21
-0.273605
  0
LINE
  8
0
 10
4.74825
 20
-0.273605
 11
4.73099
 21
-0.220505
  0
LINE
  8
0
 10
4.73099
 20
-0.220505
 11
4.71747
 21
-0.166321
  0
LINE
  8
0
 10
4.71747
 20
-0.166321
 11
4.70778
 21
-0.111328
  0
LINE
  8
0
 10
4.70778
 20
-0.111328
 11
4.70193
 21
-0.0558014
  0
LINE
  8
0
 10
4.70193
 20
-0.0558014
 11
4.7
 21
0
  0
LINE
  8
0
 10
4.7
 20
0
 11
4.70193
 21
0.0558014
  0
LINE
  8
0
 10
4.70193
 20
0.0558014
 11
4.70778
 21
0.111328
  0
LINE
  8
0
 10
4.70778
 20
0.111328
 11
4.71747
 21
0.166321
  0
LINE
  8
0
 10
4.71747
 20
0.166321
 11
4.73099
 21
0.220505
  0
LINE
  8
0
 10
4.73099
 20
0.220505
 11
4.74825
 21
0.273605
  0
LINE
  8
0
 10
4.74825
 20
0.273605
 11
4.76915
 21
0.325378
  0
LINE
  8
0
 10
4.76915
 20
0.325378
 11
4.79364
 21
0.375565
  0
LINE
  8
0
 10
4.79364
 20
0.375565
 11
4.82155
 21
0.423935
  0
LINE
  8
0
 10
4.82155
 20
0.423935
 11
4.85278
 21
0.470215
  0
LINE
  8
0
 10
4.85278
 20
0.470215
 11
4.88716
 21
0.514221
  0
LINE
  8
0
 10
4.88716
 20
0.514221
 11
4.92451
 21
0.555725
  0
LINE
  8
0
 10
4.92451
 20
0.555725
 11
4.96469
 21
0.594513
  0
LINE
  8
0
 10
4.96469
 20
0.594513
 11
5.00746
 21
0.630402
  0
LINE
  8
0
 10
5.00746
 20
0.630402
 11
5.05264
 21
0.663223
  0
LINE
  8
0
 10
5.05264
 20
0.663223
 11
5.09999
 21
0.69281
  0
LINE
  8
0
 10
5.09999
 20
0.69281
 11
5.14929
 21
0.719025
  0
LINE
  8
0
 10
5.14929
 20
0.719025
 11
5.2003
 21
0.741745
  0
LINE
  8
0
 10
5.2003
 20
0.741745
 11
5.25278
 21
0.760834
  0
LINE
  8
0
 10
5.25278
 20
0.760834
 11
5.30646
 21
0.77623
  0
LINE
  8
0
 10
5.30646
 20
0.77623
 11
5.36107
 21
0.787842
  0
LINE
  8
0
 10
5.36107
 20
0.787842
 11
5.41637
 21
0.795609
  0
LINE
  8
0
 10
5.41637
 20
0.795609
 11
5.47208
 21
0.7995
  0
LINE
  8
0
 10
5.47208
 20
0.7995
 11
5.52791
 21
0.7995
  0
LINE
  8
0
 10
5.52791
 20
0.7995
 11
5.58362
 21
0.795609
  0
LINE
  8
0
 10
5.58362
 20
0.795609
 11
5.63892
 21
0.787842
  0
LINE
  8
0
 10
5.63892
 20
0.787842
 11
5.69353
 21
0.77623
  0
LINE
  8
0
 10
5.69353
 20
0.77623
 11
5.74721
 21
0.760834
  0
LINE
  8
0
 10
5.74721
 20
0.760834
 11
5.79968
 21
0.741745
  0
LINE
  8
0
 10
5.79968
 20
0.741745
 11
5.85069
 21
0.719025
  0
LINE
  8
0
 10
5.85069
 20
0.719025
 11
5.89999
 21
0.69281
  0
LINE
  8
0
 10
5.89999
 20
0.69281
 11
5.94734
 21
0.663223
  0
LINE
  8
0
 10
5.94734
 20
0.663223
 11
5.99252
 21
0.630402
  0
LINE
  8
0
 10
5.99252
 20
0.630402
 11
6.03529
 21
0.594513
  0
LINE
  8
0
 10
6.03529
 20
0.594513
 11
6.07547
 21
0.555725
  0
LINE
  8
0
 10
6.07547
 20
0.555725
 11
6.11282
 21
0.514221
  0
LINE
  8
0
 10
6.11282
 20
0.514221
 11
6.1472
 21
0.470215
  0
LINE
  8
0
 10
6.1472
 20
0.470215
 11
6.17844
 21
0.423935
  0
LINE
  8
0
 10
6.17844
 20
0.423935
 11
6.20634
 21
0.375565
  0
LINE
  8
0
 10
6.20634
 20
0.375565
 11
6.23083
 21
0.325378
  0
LINE
  8
0
 10
6.23083
 20
0.325378
 11
6.25174
 21
0.273605
  0
LINE
  8
0
 10
6.25174
 20
0.273605
 11
6.269
 21
0.220505
  0
LINE
  8
0
 10
6.269
 20
0.220505
 11
6.28252
 21
0.166321
  0
LINE
  8
0
 10
6.28252
 20
0.166321
 11
6.29221
 21
0.111328
  0
LINE
  8
0
 10
6.29221
 20
0.111328
 11
6.29805
 21
0.0558014
  0
LINE
  8
0
 10
6.29805
 20
0.0558014
 11
6.29999
 21
0
  0
LINE
  8
0
 10
6.29999
 20
0
 11
6.29805
 21
-0.0558014
  0
LINE
  8
0
 10
6.29805
 20
-0.0558014
 11
6.29221
 21
-0.111328
  0
LINE
  8
0
 10
6.29221
 20
-0.111328
 11
6.28252
 21
-0.166321
  0
LINE
  8
0
 10
6.28252
 20
-0.166321
 11
6.269
 21
-0.220505
  0
LINE
  8
0
 10
6.269
 20
-0.220505
 11
6.25174
 21
-0.273605
  0
LINE
  8
0
 10
6.25174
 20
-0.273605
 11
6.23083
 21
-0.325378
  0
LINE
  8
0
 10
6.23083
 20
-0.325378
 11
6.20634
 21
-0.375565
  0
LINE
  8
0
 10
6.20634
 20
-0.375565
 11
6.17844
 21
-0.423935
  0
LINE
  8
0
 10
6.17844
 20
-0.423935
 11
6.1472
 21
-0.470215
  0
LINE
  8
0
 10
6.1472
 20
-0.470215
 11
6.11282
 21
-0.514221
  0
LINE
  8
0
 10
6.11282
 20
-0.514221
 11
6.07547
 21
-0.555725
  0
LINE
  8
0
 10
6.07547
 20
-0.555725
 11
6.03529
 21
-0.594513
  0
LINE
  8
0
 10
6.03529
 20
-0.594513
 11
5.99252
 21
-0.630402
  0
LINE
  8
0
 10
5.99252
 20
-0.630402
 11
5.94734
 21
-0.663223
  0
LINE
  8
0
 10
5.94734
 20
-0.663223
 11
5.89999
 21
-0.69281
  0
LINE
  8
0
 10
5.89999
 20
-0.69281
 11
5.85069
 21
-0.719025
  0
LINE
  8
0
 10
5.85069
 20
-0.719025
 11
5.79968
 21
-0.741745
  0
LINE
  8
0
 10
5.79968
 20
-0.741745
 11
5.74721
 21
-0.760834
  0
LINE
  8
0
 10
5.74721
 20
-0.760834
 11
5.69353
 21
-0.77623
  0
LINE
  8
0
 10
5.69353
 20
-0.77623
 11
5.63892
 21
-0.787842
  0
LINE
  8
0
 10
5.63892
 20
-0.787842
 11
5.58362
 21
-0.795609
  0
LINE
  8
0
 10
5.58362
 20
-0.795609
 11
5.52791
 21
-0.7995
  0
LINE
  8
0
 10
5.52791
 20
-0.7995
 11
5.47208
 21
-0.7995
  0
LINE
  8
0
 10
-5.52791
 20
-0.7995
 11
-5.58362
 21
-0.795609
  0
LINE
  8
0
 10
-5.58362
 20
-0.795609
 11
-5.63892
 21
-0.787842
  0
LINE
  8
0
 10
-5.63892
 20
-0.787842
 11
-5.69353
 21
-0.77623
  0
LINE
  8
0
 10
-5.69353
 20
-0.77623
 11
-5.74721
 21
-0.760834
  0
LINE
  8
0
 10
-5.74721
 20
-0.760834
 11
-5.79968
 21
-0.741745
  0
LINE
  8
0
 10
-5.79968
 20
-0.741745
 11
-5.85069
 21
-0.719025
  0
LINE
  8
0
 10
-5.85069
 20
-0.719025
 11
-5.89999
 21
-0.69281
  0
LINE
  8
0
 10
-5.89999
 20
-0.69281
 11
-5.94734
 21
-0.663223
  0
LINE
  8
0
 10
-5.94734
 20
-0.663223
 11
-5.99252
 21
-0.630402
  0
LINE
  8
0
 10
-5.99252
 20
-0.630402
 11
-6.03529
 21
-0.594513
  0
LINE
  8
0
 10
-6.03529
 20
-0.594513
 11
-6.07547
 21
-0.555725
  0
LINE
  8
0
 10
-6.07547
 20
-0.555725
 11
-6.11282
 21
-0.514221
  0
LINE
  8
0
 10
-6.11282
 20
-0.514221
 11
-6.1472
 21
-0.470215
  0
LINE
  8
0
 10
-6.1472
 20
-0.470215
 11
-6.17844
 21
-0.423935
  0
LINE
  8
0
 10
-6.17844
 20
-0.423935
 11
-6.20634
 21
-0.375565
  0
LINE
  8
0
 10
-6.20634
 20
-0.375565
 11
-6.23083
 21
-0.325378
  0
LINE
  8
0
 10
-6.23083
 20
-0.325378
 11
-6.25174
 21
-0.273605
  0
LINE
  8
0
 10
-6.25174
 20
-0.273605
 11
-6.269
 21
-0.220505
  0
LINE
  8
0
 10
-6.269
 20
-0.220505
 11
-6.28252
 21
-0.166321
  0
LINE
  8
0
 10
-6.28252
 20
-0.166321
 11
-6.29221
 21
-0.111328
  0
LINE
  8
0
 10
-6.29221
 20
-0.111328
 11
-6.29805
 21
-0.0558014
  0
LINE
  8
0
 10
-6.29805
 20
-0.0558014
 11
-6.29999
 21
0
  0
LINE
  8
0
 10
-6.29999
 20
0
 11
-6.29805
 21
0.0558014
  0
LINE
  8
0
 10
-6.29805
 20
0.0558014
 11
-6.29221
 21
0.111328
  0
LINE
  8
0
 10
-6.29221
 20
0.111328
 11
-6.28252
 21
0.166321
  0
LINE
  8
0
 10
-6.28252
 20
0.166321
 11
-6.269
 21
0.220505
  0
LINE
  8
0
 10
-6.269
 20
0.220505
 11
-6.25174
 21
0.273605
  0
LINE
  8
0
 10
-6.25174
 20
0.273605
 11
-6.23083
 21
0.325378
  0
LINE
  8
0
 10
-6.23083
 20
0.325378
 11
-6.20634
 21
0.375565
  0
LINE
  8
0
 10
-6.20634
 20
0.375565
 11
-6.17844
 21
0.423935
  0
LINE
  8
0
 10
-6.17844
 20
0.423935
 11
-6.1472
 21
0.470215
  0
LINE
  8
0
 10
-6.1472
 20
0.470215
 11
-6.11282
 21
0.514221
  0
LINE
  8
0
 10
-6.11282
 20
0.514221
 11
-6.07547
 21
0.555725
  0
LINE
  8
0
 10
-6.07547
 20
0.555725
 11
-6.03529
 21
0.594513
  0
LINE
  8
0
 10
-6.03529
 20
0.594513
 11
-5.99252
 21
0.630402
  0
LINE
  8
0
 10
-5.99252
 20
0.630402
 11
-5.94734
 21
0.663223
  0
LINE
  8
0
 10
-5.94734
 20
0.663223
 11
-5.89999
 21
0.69281
  0
LINE
  8
0
 10
-5.89999
 20
0.69281
 11
-5.85069
 21
0.719025
  0
LINE
  8
0
 10
-5.85069
 20
0.719025
 11
-5.79968
 21
0.741745
  0
LINE
  8
0
 10
-5.79968
 20
0.741745
 11
-5.74721
 21
0.760834
  0
LINE
  8
0
 10
-5.74721
 20
0.760834
 11
-5.69353
 21
0.77623
  0
LINE
  8
0
 10
-5.69353
 20
0.77623
 11
-5.63892
 21
0.787842
  0
LINE
  8
0
 10
-5.63892
 20
0.787842
 11
-5.58362
 21
0.795609
  0
LINE
  8
0
 10
-5.58362
 20
0.795609
 11
-5.52791
 21
0.7995
  0
LINE
  8
0
 10
-5.52791
 20
0.7995
 11
-5.47208
 21
0.7995
  0
LINE
  8
0
 10
-5.47208
 20
0.7995
 11
-5.41637
 21
0.795609
  0
LINE
  8
0
 10
-5.41637
 20
0.795609
 11
-5.36107
 21
0.787842
  0
LINE
  8
0
 10
-5.36107
 20
0.787842
 11
-5.30646
 21
0.77623
  0
LINE
  8
0
 10
-5.30646
 20
0.77623
 11
-5.25278
 21
0.760834
  0
LINE
  8
0
 10
-5.25278
 20
0.760834
 11
-5.2003
 21
0.741745
  0
LINE
  8
0
 10
-5.2003
 20
0.741745
 11
-5.14929
 21
0.719025
  0
LINE
  8
0
 10
-5.14929
 20
0.719025
 11
-5.09999
 21
0.69281
  0
LINE
  8
0
 10
-5.09999
 20
0.69281
 11
-5.05264
 21
0.663223
  0
LINE
  8
0
 10
-5.05264
 20
0.663223
 11
-5.00746
 21
0.630402
  0
LINE
  8
0
 10
-5.00746
 20
0.630402
 11
-4.96469
 21
0.594513
  0
LINE
  8
0
 10
-4.96469
 20
0.594513
 11
-4.92451
 21
0.555725
  0
LINE
  8
0
 10
-4.92451
 20
0.555725
 11
-4.88716
 21
0.514221
  0
LINE
  8
0
 10
-4.88716
 20
0.514221
 11
-4.85278
 21
0.470215
  0
LINE
  8
0
 10
-4.85278
 20
0.470215
 11
-4.82155
 21
0.423935
  0
LINE
  8
0
 10
-4.82155
 20
0.423935
 11
-4.79364
 21
0.375565
  0
LINE
  8
0
 10
-4.79364
 20
0.375565
 11
-4.76915
 21
0.325378
  0
LINE
  8
0
 10
-4.76915
 20
0.325378
 11
-4.74825
 21
0.273605
  0
LINE
  8
0
 10
-4.74825
 20
0.273605
 11
-4.73099
 21
0.220505
  0
LINE
  8
0
 10
-4.73099
 20
0.220505
 11
-4.71747
 21
0.166321
  0
LINE
  8
0
 10
-4.71747
 20
0.166321
 11
-4.70778
 21
0.111328
  0
LINE
  8
0
 10
-4.70778
 20
0.111328
 11
-4.70193
 21
0.0558014
  0
LINE
  8
0
 10
-4.70193
 20
0.0558014
 11
-4.7
 21
0
  0
LINE
  8
0
 10
-4.7
 20
0
 11
-4.70193
 21
-0.0558014
  0
LINE
  8
0
 10
-4.70193
 20
-0.0558014
 11
-4.70778
 21
-0.111328
  0
LINE
  8
0
 10
-4.70778
 20
-0.111328
 11
-4.71747
 21
-0.166321
  0
LINE
  8
0
 10
-4.71747
 20
-0.166321
 11
-4.73099
 21
-0.220505
  0
LINE
  8
0
 10
-4.73099
 20
-0.220505
 11
-4.74825
 21
-0.273605
  0
LINE
  8
0
 10
-4.74825
 20
-0.273605
 11
-4.76915
 21
-0.325378
  0
LINE
  8
0
 10
-4.76915
 20
-0.325378
 11
-4.79364
 21
-0.375565
  0
LINE
  8
0
 10
-4.79364
 20
-0.375565
 11
-4.82155
 21
-0.423935
  0
LINE
  8
0
 10
-4.82155
 20
-0.423935
 11
-4.85278
 21
-0.470215
  0
LINE
  8
0
 10
-4.85278
 20
-0.470215
 11
-4.88716
 21
-0.514221
  0
LINE
  8
0
 10
-4.88716
 20
-0.514221
 11
-4.92451
 21
-0.555725
  0
LINE
  8
0
 10
-4.92451
 20
-0.555725
 11
-4.96469
 21
-0.594513
  0
LINE
  8
0
 10
-4.96469
 20
-0.594513
 11
-5.00746
 21
-0.630402
  0
LINE
  8
0
 10
-5.00746
 20
-0.630402
 11
-5.05264
 21
-0.663223
  0
LINE
  8
0
 10
-5.05264
 20
-0.663223
 11
-5.09999
 21
-0.69281
  0
LINE
  8
0
 10
-5.09999
 20
-0.69281
 11
-5.14929
 21
-0.719025
  0
LINE
  8
0
 10
-5.14929
 20
-0.719025
 11
-5.2003
 21
-0.741745
  0
LINE
  8
0
 10
-5.2003
 20
-0.741745
 11
-5.25278
 21
-0.760834
  0
LINE
  8
0
 10
-5.25278
 20
-0.760834
 11
-5.30646
 21
-0.77623
  0
LINE
  8
0
 10
-5.30646
 20
-0.77623
 11
-5.36107
 21
-0.787842
  0
LINE
  8
0
 10
-5.36107
 20
-0.787842
 11
-5.41637
 21
-0.795609
  0
LINE
  8
0
 10
-5.41637
 20
-0.795609
 11
-5.47208
 21
-0.7995
  0
LINE
  8
0
 10
-5.47208
 20
-0.7995
 11
-5.52791
 21
-0.7995
  0
LINE
  8
0
 10
-2.87735
 20
-2.77863
 11
-3.06416
 21
-2.57114
  0
LINE
  8
0
 10
-3.06416
 20
-2.57114
 11
-3.23605
 21
-2.35114
  0
LINE
  8
0
 10
-3.23605
 20
-2.35114
 11
-3.39218
 21
-2.11967
  0
LINE
  8
0
 10
-3.39218
 20
-2.11967
 11
-3.53178
 21
-1.87788
  0
LINE
  8
0
 10
-3.53178
 20
-1.87788
 11
-3.65417
 21
-1.62694
  0
LINE
  8
0
 10
-3.65417
 20
-1.62694
 11
-3.75876
 21
-1.36807
  0
LINE
  8
0
 10
-3.75876
 20
-1.36807
 11
-3.84503
 21
-1.10254
  0
LINE
  8
0
 10
-3.84503
 20
-1.10254
 11
-3.91258
 21
-0.831635
  0
LINE
  8
0
 10
-3.91258
 20
-0.831635
 11
-3.96106
 21
-0.556686
  0
LINE
  8
0
 10
-3.96106
 20
-0.556686
 11
-3.99025
 21
-0.279022
  0
LINE
  8
0
 10
-3.99025
 20
-0.279022
 11
-4
 21
0
  0
LINE
  8
0
 10
-4
 20
0
 11
-3.99025
 21
0.279022
  0
LINE
  8
0
 10
-3.99025
 20
0.279022
 11
-3.96106
 21
0.556686
  0
LINE
  8
0
 10
-3.96106
 20
0.556686
 11
-3.94447
 21
0.650757
  0
LINE
  8
0
 10
-3.94447
 20
0.650757
 11
-1.49199
 21
-0.146088
  0
LINE
  8
0
 10
-1.49199
 20
-0.146088
 11
-1.4854
 21
-0.208755
  0
LINE
  8
0
 10
-1.4854
 20
-0.208755
 11
-1.46721
 21
-0.311859
  0
LINE
  8
0
 10
-1.46721
 20
-0.311859
 11
-1.44188
 21
-0.413452
  0
LINE
  8
0
 10
-1.44188
 20
-0.413452
 11
-1.40953
 21
-0.513016
  0
LINE
  8
0
 10
-1.40953
 20
-0.513016
 11
-1.37032
 21
-0.610092
  0
LINE
  8
0
 10
-1.37032
 20
-0.610092
 11
-1.32442
 21
-0.704193
  0
LINE
  8
0
 10
-1.32442
 20
-0.704193
 11
-1.29291
 21
-0.758759
  0
LINE
  8
0
 10
-1.29291
 20
-0.758759
 11
-2.80864
 21
-2.84499
  0
LINE
  8
0
 10
-2.80864
 20
-2.84499
 11
-2.87735
 21
-2.77863
  0
LINE
  8
0
 10
1.29291
 20
-0.758759
 11
1.32442
 21
-0.704193
  0
LINE
  8
0
 10
1.32442
 20
-0.704193
 11
1.37032
 21
-0.610092
  0
LINE
  8
0
 10
1.37032
 20
-0.610092
 11
1.40953
 21
-0.513016
  0
LINE
  8
0
 10
1.40953
 20
-0.513016
 11
1.44188
 21
-0.413452
  0
LINE
  8
0
 10
1.44188
 20
-0.413452
 11
1.46721
 21
-0.311859
  0
LINE
  8
0
 10
1.46721
 20
-0.311859
 11
1.4854
 21
-0.208755
  0
LINE
  8
0
 10
1.4854
 20
-0.208755
 11
1.49199
 21
-0.146088
  0
LINE
  8
0
 10
1.49199
 20
-0.146088
 11
3.94447
 21
0.650757
  0
LINE
  8
0
 10
3.94447
 20
0.650757
 11
3.96106
 21
0.556686
  0
LINE
  8
0
 10
3.96106
 20
0.556686
 11
3.99025
 21
0.279022
  0
LINE
  8
0
 10
3.99025
 20
0.279022
 11
4
 21
0
  0
LINE
  8
0
 10
4
 20
0
 11
3.99025
 21
-0.279022
  0
LINE
  8
0
 10
3.99025
 20
-0.279022
 11
3.96106
 21
-0.556686
  0
LINE
  8
0
 10
3.96106
 20
-0.556686
 11
3.91258
 21
-0.831635
  0
LINE
  8
0
 10
3.91258
 20
-0.831635
 11
3.84503
 21
-1.10254
  0
LINE
  8
0
 10
3.84503
 20
-1.10254
 11
3.75876
 21
-1.36807
  0
LINE
  8
0
 10
3.75876
 20
-1.36807
 11
3.65417
 21
-1.62694
  0
LINE
  8
0
 10
3.65417
 20
-1.62694
 11
3.53178
 21
-1.87788
  0
LINE
  8
0
 10
3.53178
 20
-1.87788
 11
3.39218
 21
-2.11967
  0
LINE
  8
0
 10
3.39218
 20
-2.11967
 11
3.23605
 21
-2.35114
  0
LINE
  8
0
 10
3.23605
 20
-2.35114
 11
3.06416
 21
-2.57114
  0
LINE
  8
0
 10
3.06416
 20
-2.57114
 11
2.87735
 21
-2.77863
  0
LINE
  8
0
 10
2.87735
 20
-2.77863
 11
2.80864
 21
-2.84499
  0
LINE
  8
0
 10
2.80864
 20
-2.84499
 11
1.29291
 21
-0.758759
  0
LINE
  8
0
 10
-0.0313568
 20
-0.298355
 11
-0.0725708
 21
-0.291077
  0
LINE
  8
0
 10
-0.0725708
 20
-0.291077
 11
-0.112381
 21
-0.278152
  0
LINE
  8
0
 10
-0.112381
 20
-0.278152
 11
-0.149994
 21
-0.259796
  0
LINE
  8
0
 10
-0.149994
 20
-0.259796
 11
-0.184692
 21
-0.236389
  0
LINE
  8
0
 10
-0.184692
 20
-0.236389
 11
-0.21579
 21
-0.208389
  0
LINE
  8
0
 10
-0.21579
 20
-0.208389
 11
-0.242691
 21
-0.176331
  0
LINE
  8
0
 10
-0.242691
 20
-0.176331
 11
-0.264877
 21
-0.140839
  0
LINE
  8
0
 10
-0.264877
 20
-0.140839
 11
-0.281906
 21
-0.1026
  0
LINE
  8
0
 10
-0.281906
 20
-0.1026
 11
-0.293442
 21
-0.0623627
  0
LINE
  8
0
 10
-0.293442
 20
-0.0623627
 11
-0.299255
 21
-0.0209198
  0
LINE
  8
0
 10
-0.299255
 20
-0.0209198
 11
-0.299255
 21
0.0209198
  0
LINE
  8
0
 10
-0.299255
 20
0.0209198
 11
-0.293442
 21
0.0623627
  0
LINE
  8
0
 10
-0.293442
 20
0.0623627
 11
-0.281906
 21
0.1026
  0
LINE
  8
0
 10
-0.281906
 20
0.1026
 11
-0.264877
 21
0.140839
  0
LINE
  8
0
 10
-0.264877
 20
0.140839
 11
-0.242691
 21
0.176331
  0
LINE
  8
0
 10
-0.242691
 20
0.176331
 11
-0.21579
 21
0.208389
  0
LINE
  8
0
 10
-0.21579
 20
0.208389
 11
-0.184692
 21
0.236389
  0
LINE
  8
0
 10
-0.184692
 20
0.236389
 11
-0.149994
 21
0.259796
  0
LINE
  8
0
 10
-0.149994
 20
0.259796
 11
-0.112381
 21
0.278152
  0
LINE
  8
0
 10
-0.112381
 20
0.278152
 11
-0.0725708
 21
0.291077
  0
LINE
  8
0
 10
-0.0725708
 20
0.291077
 11
-0.0313568
 21
0.298355
  0
LINE
  8
0
 10
-0.0313568
 20
0.298355
 11
0.0104675
 21
0.299805
  0
LINE
  8
0
 10
0.0104675
 20
0.299805
 11
0.0520935
 21
0.295441
  0
LINE
  8
0
 10
0.0520935
 20
0.295441
 11
0.0926971
 21
0.285309
  0
LINE
  8
0
 10
0.0926971
 20
0.285309
 11
0.1315
 21
0.269638
  0
LINE
  8
0
 10
0.1315
 20
0.269638
 11
0.167755
 21
0.248703
  0
LINE
  8
0
 10
0.167755
 20
0.248703
 11
0.200729
 21
0.222931
  0
LINE
  8
0
 10
0.200729
 20
0.222931
 11
0.229813
 21
0.192825
  0
LINE
  8
0
 10
0.229813
 20
0.192825
 11
0.25441
 21
0.158966
  0
LINE
  8
0
 10
0.25441
 20
0.158966
 11
0.274063
 21
0.122009
  0
LINE
  8
0
 10
0.274063
 20
0.122009
 11
0.288376
 21
0.0826874
  0
LINE
  8
0
 10
0.288376
 20
0.0826874
 11
0.297073
 21
0.041748
  0
LINE
  8
0
 10
0.297073
 20
0.041748
 11
0.299988
 21
0
  0
LINE
  8
0
 10
0.299988
 20
0
 11
0.297073
 21
-0.041748
  0
LINE
  8
0
 10
0.297073
 20
-0.041748
 11
0.288376
 21
-0.0826874
  0
LINE
  8
0
 10
0.288376
 20
-0.0826874
 11
0.274063
 21
-0.122009
  0
LINE
  8
0
 10
0.274063
 20
-0.122009
 11
0.25441
 21
-0.158966
  0
LINE
  8
0
 10
0.25441
 20
-0.158966
 11
0.229813
 21
-0.192825
  0
LINE
  8
0
 10
0.229813
 20
-0.192825
 11
0.200729
 21
-0.222931
  0
LINE
  8
0
 10
0.200729
 20
-0.222931
 11
0.167755
 21
-0.248703
  0
LINE
  8
0
 10
0.167755
 20
-0.248703
 11
0.1315
 21
-0.269638
  0
LINE
  8
0
 10
0.1315
 20
-0.269638
 11
0.0926971
 21
-0.285309
  0
LINE
  8
0
 10
0.0926971
 20
-0.285309
 11
0.0520935
 21
-0.295441
  0
LINE
  8
0
 10
0.0520935
 20
-0.295441
 11
0.0104675
 21
-0.299805
  0
LINE
  8
0
 10
0.0104675
 20
-0.299805
 11
-0.0313568
 21
-0.298355
  0
LINE
  8
0
 10
-0.139587
 20
-3.99756
 11
-0.418106
 21
-3.97807
  0
LINE
  8
0
 10
-0.418106
 20
-3.97807
 11
-0.69458
 21
-3.93922
  0
LINE
  8
0
 10
-0.69458
 20
-3.93922
 11
-0.967682
 21
-3.88118
  0
LINE
  8
0
 10
-0.967682
 20
-3.88118
 11
-1.23605
 21
-3.80421
  0
LINE
  8
0
 10
-1.23605
 20
-3.80421
 11
-1.49841
 21
-3.70872
  0
LINE
  8
0
 10
-1.49841
 20
-3.70872
 11
-1.75348
 21
-3.59517
  0
LINE
  8
0
 10
-1.75348
 20
-3.59517
 11
-1.83781
 21
-3.55032
  0
LINE
  8
0
 10
-1.83781
 20
-3.55032
 11
-0.322083
 21
-1.4641
  0
LINE
  8
0
 10
-0.322083
 20
-1.4641
 11
-0.260468
 21
-1.4772
  0
LINE
  8
0
 10
-0.260468
 20
-1.4772
 11
-0.156784
 21
-1.49178
  0
LINE
  8
0
 10
-0.156784
 20
-1.49178
 11
-0.0523376
 21
-1.49908
  0
LINE
  8
0
 10
-0.0523376
 20
-1.49908
 11
0.0523376
 21
-1.49908
  0
LINE
  8
0
 10
0.0523376
 20
-1.49908
 11
0.156784
 21
-1.49178
  0
LINE
  8
0
 10
0.156784
 20
-1.49178
 11
0.260468
 21
-1.4772
  0
LINE
  8
0
 10
0.260468
 20
-1.4772
 11
0.322083
 21
-1.4641
  0
LINE
  8
0
 10
0.322083
 20
-1.4641
 11
1.83781
 21
-3.55032
  0
LINE
  8
0
 10
1.83781
 20
-3.55032
 11
1.75348
 21
-3.59517
  0
LINE
  8
0
 10
1.75348
 20
-3.59517
 11
1.49841
 21
-3.70872
  0
LINE
  8
0
 10
1.49841
 20
-3.70872
 11
1.23605
 21
-3.80421
  0
LINE
  8
0
 10
1.23605
 20
-3.80421
 11
0.967682
 21
-3.88118
  0
LINE
  8
0
 10
0.967682
 20
-3.88118
 11
0.69458
 21
-3.93922
  0
LINE
  8
0
 10
0.69458
 20
-3.93922
 11
0.418106
 21
-3.97807
  0
LINE
  8
0
 10
0.418106
 20
-3.97807
 11
0.139587
 21
-3.99756
  0
LINE
  8
0
 10
0.139587
 20
-3.99756
 11
-0.139587
 21
-3.99756
  0
LINE
  8
0
 10
4.42166
 20
-4.03232
 11
4.36597
 21
-4.02843
  0
LINE
  8
0
 10
4.36597
 20
-4.02843
 11
4.31067
 21
-4.02066
  0
LINE
  8
0
 10
4.31067
 20
-4.02066
 11
4.25604
 21
-4.00905
  0
LINE
  8
0
 10
4.25604
 20
-4.00905
 11
4.20238
 21
-3.99365
  0
LINE
  8
0
 10
4.20238
 20
-3.99365
 11
4.1499
 21
-3.97456
  0
LINE
  8
0
 10
4.1499
 20
-3.97456
 11
4.09889
 21
-3.95184
  0
LINE
  8
0
 10
4.09889
 20
-3.95184
 11
4.04959
 21
-3.92563
  0
LINE
  8
0
 10
4.04959
 20
-3.92563
 11
4.00223
 21
-3.89604
  0
LINE
  8
0
 10
4.00223
 20
-3.89604
 11
3.95706
 21
-3.86322
  0
LINE
  8
0
 10
3.95706
 20
-3.86322
 11
3.91428
 21
-3.82733
  0
LINE
  8
0
 10
3.91428
 20
-3.82733
 11
3.87411
 21
-3.78854
  0
LINE
  8
0
 10
3.87411
 20
-3.78854
 11
3.83675
 21
-3.74704
  0
LINE
  8
0
 10
3.83675
 20
-3.74704
 11
3.80237
 21
-3.70303
  0
LINE
  8
0
 10
3.80237
 20
-3.70303
 11
3.77115
 21
-3.65675
  0
LINE
  8
0
 10
3.77115
 20
-3.65675
 11
3.74323
 21
-3.60838
  0
LINE
  8
0
 10
3.74323
 20
-3.60838
 11
3.71875
 21
-3.5582
  0
LINE
  8
0
 10
3.71875
 20
-3.5582
 11
3.69783
 21
-3.50642
  0
LINE
  8
0
 10
3.69783
 20
-3.50642
 11
3.68057
 21
-3.45332
  0
LINE
  8
0
 10
3.68057
 20
-3.45332
 11
3.66707
 21
-3.39914
  0
LINE
  8
0
 10
3.66707
 20
-3.39914
 11
3.65736
 21
-3.34415
  0
LINE
  8
0
 10
3.65736
 20
-3.34415
 11
3.65154
 21
-3.28862
  0
LINE
  8
0
 10
3.65154
 20
-3.28862
 11
3.64958
 21
-3.23282
  0
LINE
  8
0
 10
3.64958
 20
-3.23282
 11
3.65154
 21
-3.177
  0
LINE
  8
0
 10
3.65154
 20
-3.177
 11
3.65736
 21
-3.12148
  0
LINE
  8
0
 10
3.65736
 20
-3.12148
 11
3.66707
 21
-3.06648
  0
LINE
  8
0
 10
3.66707
 20
-3.06648
 11
3.68057
 21
-3.0123
  0
LINE
  8
0
 10
3.68057
 20
-3.0123
 11
3.69783
 21
-2.9592
  0
LINE
  8
0
 10
3.69783
 20
-2.9592
 11
3.71875
 21
-2.90742
  0
LINE
  8
0
 10
3.71875
 20
-2.90742
 11
3.74323
 21
-2.85724
  0
LINE
  8
0
 10
3.74323
 20
-2.85724
 11
3.77115
 21
-2.80887
  0
LINE
  8
0
 10
3.77115
 20
-2.80887
 11
3.80237
 21
-2.76259
  0
LINE
  8
0
 10
3.80237
 20
-2.76259
 11
3.83675
 21
-2.71858
  0
LINE
  8
0
 10
3.83675
 20
-2.71858
 11
3.87411
 21
-2.67708
  0
LINE
  8
0
 10
3.87411
 20
-2.67708
 11
3.91428
 21
-2.63829
  0
LINE
  8
0
 10
3.91428
 20
-2.63829
 11
3.95706
 21
-2.6024
  0
LINE
  8
0
 10
3.95706
 20
-2.6024
 11
4.00223
 21
-2.56958
  0
LINE
  8
0
 10
4.00223
 20
-2.56958
 11
4.04959
 21
-2.53999
  0
LINE
  8
0
 10
4.04959
 20
-2.53999
 11
4.09889
 21
-2.51378
  0
LINE
  8
0
 10
4.09889
 20
-2.51378
 11
4.1499
 21
-2.49106
  0
LINE
  8
0
 10
4.1499
 20
-2.49106
 11
4.20238
 21
-2.47197
  0
LINE
  8
0
 10
4.20238
 20
-2.47197
 11
4.25604
 21
-2.45657
  0
LINE
  8
0
 10
4.25604
 20
-2.45657
 11
4.31067
 21
-2.44496
  0
LINE
  8
0
 10
4.31067
 20
-2.44496
 11
4.36597
 21
-2.43719
  0
LINE
  8
0
 10
4.36597
 20
-2.43719
 11
4.42166
 21
-2.4333
  0
LINE
  8
0
 10
4.42166
 20
-2.4333
 11
4.47751
 21
-2.4333
  0
LINE
  8
0
 10
4.47751
 20
-2.4333
 11
4.5332
 21
-2.43719
  0
LINE
  8
0
 10
4.5332
 20
-2.43719
 11
4.5885
 21
-2.44496
  0
LINE
  8
0
 10
4.5885
 20
-2.44496
 11
4.64313
 21
-2.45657
  0
LINE
  8
0
 10
4.64313
 20
-2.45657
 11
4.69679
 21
-2.47197
  0
LINE
  8
0
 10
4.69679
 20
-2.47197
 11
4.74927
 21
-2.49106
  0
LINE
  8
0
 10
4.74927
 20
-2.49106
 11
4.80028
 21
-2.51378
  0
LINE
  8
0
 10
4.80028
 20
-2.51378
 11
4.84958
 21
-2.53999
  0
LINE
  8
0
 10
4.84958
 20
-2.53999
 11
4.89694
 21
-2.56958
  0
LINE
  8
0
 10
4.89694
 20
-2.56958
 11
4.94211
 21
-2.6024
  0
LINE
  8
0
 10
4.94211
 20
-2.6024
 11
4.98489
 21
-2.63829
  0
LINE
  8
0
 10
4.98489
 20
-2.63829
 11
5.02505
 21
-2.67708
  0
LINE
  8
0
 10
5.02505
 20
-2.67708
 11
5.06242
 21
-2.71858
  0
LINE
  8
0
 10
5.06242
 20
-2.71858
 11
5.0968
 21
-2.76259
  0
LINE
  8
0
 10
5.0968
 20
-2.76259
 11
5.12802
 21
-2.80887
  0
LINE
  8
0
 10
5.12802
 20
-2.80887
 11
5.15594
 21
-2.85724
  0
LINE
  8
0
 10
5.15594
 20
-2.85724
 11
5.18042
 21
-2.90742
  0
LINE
  8
0
 10
5.18042
 20
-2.90742
 11
5.20134
 21
-2.9592
  0
LINE
  8
0
 10
5.20134
 20
-2.9592
 11
5.2186
 21
-3.0123
  0
LINE
  8
0
 10
5.2186
 20
-3.0123
 11
5.2321
 21
-3.06648
  0
LINE
  8
0
 10
5.2321
 20
-3.06648
 11
5.24181
 21
-3.12148
  0
LINE
  8
0
 10
5.24181
 20
-3.12148
 11
5.24763
 21
-3.177
  0
LINE
  8
0
 10
5.24763
 20
-3.177
 11
5.24959
 21
-3.23282
  0
LINE
  8
0
 10
5.24959
 20
-3.23282
 11
5.24763
 21
-3.28862
  0
LINE
  8
0
 10
5.24763
 20
-3.28862
 11
5.24181
 21
-3.34415
  0
LINE
  8
0
 10
5.24181
 20
-3.34415
 11
5.2321
 21
-3.39914
  0
LINE
  8
0
 10
5.2321
 20
-3.39914
 11
5.2186
 21
-3.45332
  0
LINE
  8
0
 10
5.2186
 20
-3.45332
 11
5.20134
 21
-3.50642
  0
LINE
  8
0
 10
5.20134
 20
-3.50642
 11
5.18042
 21
-3.5582
  0
LINE
  8
0
 10
5.18042
 20
-3.5582
 11
5.15594
 21
-3.60838
  0
LINE
  8
0
 10
5.15594
 20
-3.60838
 11
5.12802
 21
-3.65675
  0
LINE
  8
0
 10
5.12802
 20
-3.65675
 11
5.0968
 21
-3.70303
  0
LINE
  8
0
 10
5.0968
 20
-3.70303
 11
5.06242
 21
-3.74704
  0
LINE
  8
0
 10
5.06242
 20
-3.74704
 11
5.02505
 21
-3.78854
  0
LINE
  8
0
 10
5.02505
 20
-3.78854
 11
4.98489
 21
-3.82733
  0
LINE
  8
0
 10
4.98489
 20
-3.82733
 11
4.94211
 21
-3.86322
  0
LINE
  8
0
 10
4.94211
 20
-3.86322
 11
4.89694
 21
-3.89604
  0
LINE
  8
0
 10
4.89694
 20
-3.89604
 11
4.84958
 21
-3.92563
  0
LINE
  8
0
 10
4.84958
 20
-3.92563
 11
4.80028
 21
-3.95184
  0
LINE
  8
0
 10
4.80028
 20
-3.95184
 11
4.74927
 21
-3.97456
  0
LINE
  8
0
 10
4.74927
 20
-3.97456
 11
4.69679
 21
-3.99365
  0
LINE
  8
0
 10
4.69679
 20
-3.99365
 11
4.64313
 21
-4.00905
  0
LINE
  8
0
 10
4.64313
 20
-4.00905
 11
4.5885
 21
-4.02066
  0
LINE
  8
0
 10
4.5885
 20
-4.02066
 11
4.5332
 21
-4.02843
  0
LINE
  8
0
 10
4.5332
 20
-4.02843
 11
4.47751
 21
-4.03232
  0
LINE
  8
0
 10
4.47751
 20
-4.03232
 11
4.42166
 21
-4.03232
  0
LINE
  8
0
 10
-4.47751
 20
-4.03232
 11
-4.5332
 21
-4.02843
  0
LINE
  8
0
 10
-4.5332
 20
-4.02843
 11
-4.5885
 21
-4.02066
  0
LINE
  8
0
 10
-4.5885
 20
-4.02066
 11
-4.64313
 21
-4.00905
  0
LINE
  8
0
 10
-4.64313
 20
-4.00905
 11
-4.69679
 21
-3.99365
  0
LINE
  8
0
 10
-4.69679
 20
-3.99365
 11
-4.74927
 21
-3.97456
  0
LINE
  8
0
 10
-4.74927
 20
-3.97456
 11
-4.80028
 21
-3.95184
  0
LINE
  8
0
 10
-4.80028
 20
-3.95184
 11
-4.84958
 21
-3.92563
  0
LINE
  8
0
 10
-4.84958
 20
-3.92563
 11
-4.89694
 21
-3.89604
  0
LINE
  8
0
 10
-4.89694
 20
-3.89604
 11
-4.94211
 21
-3.86322
  0
LINE
  8
0
 10
-4.94211
 20
-3.86322
 11
-4.98489
 21
-3.82733
  0
LINE
  8
0
 10
-4.98489
 20
-3.82733
 11
-5.02505
 21
-3.78854
  0
LINE
  8
0
 10
-5.02505
 20
-3.78854
 11
-5.06242
 21
-3.74704
  0
LINE
  8
0
 10
-5.06242
 20
-3.74704
 11
-5.0968
 21
-3.70303
  0
LINE
  8
0
 10
-5.0968
 20
-3.70303
 11
-5.12802
 21
-3.65675
  0
LINE
  8
0
 10
-5.12802
 20
-3.65675
 11
-5.15594
 21
-3.60838
  0
LINE
  8
0
 10
-5.15594
 20
-3.60838
 11
-5.18042
 21
-3.5582
  0
LINE
  8
0
 10
-5.18042
 20
-3.5582
 11
-5.20134
 21
-3.50642
  0
LINE
  8
0
 10
-5.20134
 20
-3.50642
 11
-5.2186
 21
-3.45332
  0
LINE
  8
0
 10
-5.2186
 20
-3.45332
 11
-5.2321
 21
-3.39914
  0
LINE
  8
0
 10
-5.2321
 20
-3.39914
 11
-5.24181
 21
-3.34415
  0
LINE
  8
0
 10
-5.24181
 20
-3.34415
 11
-5.24763
 21
-3.28862
  0
LINE
  8
0
 10
-5.24763
 20
-3.28862
 11
-5.24959
 21
-3.23282
  0
LINE
  8
0
 10
-5.24959
 20
-3.23282
 11
-5.24763
 21
-3.177
  0
LINE
  8
0
 10
-5.24763
 20
-3.177
 11
-5.24181
 21
-3.12148
  0
LINE
  8
0
 10
-5.24181
 20
-3.12148
 11
-5.2321
 21
-3.06648
  0
LINE
  8
0
 10
-5.2321
 20
-3.06648
 11
-5.2186
 21
-3.0123
  0
LINE
  8
0
 10
-5.2186
 20
-3.0123
 11
-5.20134
 21
-2.9592
  0
LINE
  8
0
 10
-5.20134
 20
-2.9592
 11
-5.18042
 21
-2.90742
  0
LINE
  8
0
 10
-5.18042
 20
-2.90742
 11
-5.15594
 21
-2.85724
  0
LINE
  8
0
 10
-5.15594
 20
-2.85724
 11
-5.12802
 21
-2.80887
  0
LINE
  8
0
 10
-5.12802
 20
-2.80887
 11
-5.0968
 21
-2.76259
  0
LINE
  8
0
 10
-5.0968
 20
-2.76259
 11
-5.06242
 21
-2.71858
  0
LINE
  8
0
 10
-5.06242
 20
-2.71858
 11
-5.02505
 21
-2.67708
  0
LINE
  8
0
 10
-5.02505
 20
-2.67708
 11
-4.98489
 21
-2.63829
  0
LINE
  8
0
 10
-4.98489
 20
-2.63829
 11
-4.94211
 21
-2.6024
  0
LINE
  8
0
 10
-4.94211
 20
-2.6024
 11
-4.89694
 21
-2.56958
  0
LINE
  8
0
 10
-4.89694
 20
-2.56958
 11
-4.84958
 21
-2.53999
  0
LINE
  8
0
 10
-4.84958
 20
-2.53999
 11
-4.80028
 21
-2.51378
  0
LINE
  8
0
 10
-4.80028
 20
-2.51378
 11
-4.74927
 21
-2.49106
  0
LINE
  8
0
 10
-4.74927
 20
-2.49106
 11
-4.69679
 21
-2.47197
  0
LINE
  8
0
 10
-4.69679
 20
-2.47197
 11
-4.64313
 21
-2.45657
  0
LINE
  8
0
 10
-4.64313
 20
-2.45657
 11
-4.5885
 21
-2.44496
  0
LINE
  8
0
 10
-4.5885
 20
-2.44496
 11
-4.5332
 21
-2.43719
  0
LINE
  8
0
 10
-4.5332
 20
-2.43719
 11
-4.47751
 21
-2.4333
  0
LINE
  8
0
 10
-4.47751
 20
-2.4333
 11
-4.42166
 21
-2.4333
  0
LINE
  8
0
 10
-4.42166
 20
-2.4333
 11
-4.36597
 21
-2.43719
  0
LINE
  8
0
 10
-4.36597
 20
-2.43719
 11
-4.31067
 21
-2.44496
  0
LINE
  8
0
 10
-4.31067
 20
-2.44496
 11
-4.25604
 21
-2.45657
  0
LINE
  8
0
 10
-4.25604
 20
-2.45657
 11
-4.20238
 21
-2.47197
  0
LINE
  8
0
 10
-4.20238
 20
-2.47197
 11
-4.1499
 21
-2.49106
  0
LINE
  8
0
 10
-4.1499
 20
-2.49106
 11
-4.09889
 21
-2.51378
  0
LINE
  8
0
 10
-4.09889
 20
-2.51378
 11
-4.04959
 21
-2.53999
  0
LINE
  8
0
 10
-4.04959
 20
-2.53999
 11
-4.00223
 21
-2.56958
  0
LINE
  8
0
 10
-4.00223
 20
-2.56958
 11
-3.95706
 21
-2.6024
  0
LINE
  8
0
 10
-3.95706
 20
-2.6024
 11
-3.91428
 21
-2.63829
  0
LINE
  8
0
 10
-3.91428
 20
-2.63829
 11
-3.87411
 21
-2.67708
  0
LINE
  8
0
 10
-3.87411
 20
-2.67708
 11
-3.83675
 21
-2.71858
  0
LINE
  8
0
 10
-3.83675
 20
-2.71858
 11
-3.80237
 21
-2.76259
  0
LINE
  8
0
 10
-3.80237
 20
-2.76259
 11
-3.77115
 21
-2.80887
  0
LINE
  8
0
 10
-3.77115
 20
-2.80887
 11
-3.74323
 21
-2.85724
  0
LINE
  8
0
 10
-3.74323
 20
-2.85724
 11
-3.71875
 21
-2.90742
  0
LINE
  8
0
 10
-3.71875
 20
-2.90742
 11
-3.69783
 21
-2.9592
  0
LINE
  8
0
 10
-3.69783
 20
-2.9592
 11
-3.68057
 21
-3.0123
  0
LINE
  8
0
 10
-3.68057
 20
-3.0123
 11
-3.66707
 21
-3.06648
  0
LINE
  8
0
 10
-3.66707
 20
-3.06648
 11
-3.65736
 21
-3.12148
  0
LINE
  8
0
 10
-3.65736
 20
-3.12148
 11
-3.65154
 21
-3.177
  0
LINE
  8
0
 10
-3.65154
 20
-3.177
 11
-3.64958
 21
-3.23282
  0
LINE
  8
0
 10
-3.64958
 20
-3.23282
 11
-3.65154
 21
-3.28862
  0
LINE
  8
0
 10
-3.65154
 20
-3.28862
 11
-3.65736
 21
-3.34415
  0
LINE
  8
0
 10
-3.65736
 20
-3.34415
 11
-3.66707
 21
-3.39914
  0
LINE
  8
0
 10
-3.66707
 20
-3.39914
 11
-3.68057
 21
-3.45332
  0
LINE
  8
0
 10
-3.68057
 20
-3.45332
 11
-3.69783
 21
-3.50642
  0
LINE
  8
0
 10
-3.69783
 20
-3.50642
 11
-3.71875
 21
-3.5582
  0
LINE
  8
0
 10
-3.71875
 20
-3.5582
 11
-3.74323
 21
-3.60838
  0
LINE
  8
0
 10
-3.74323
 20
-3.60838
 11
-3.77115
 21
-3.65675
  0
LINE
  8
0
 10
-3.77115
 20
-3.65675
 11
-3.80237
 21
-3.70303
  0
LINE
  8
0
 10
-3.80237
 20
-3.70303
 11
-3.83675
 21
-3.74704
  0
LINE
  8
0
 10
-3.83675
 20
-3.74704
 11
-3.87411
 21
-3.78854
  0
LINE
  8
0
 10
-3.87411
 20
-3.78854
 11
-3.91428
 21
-3.82733
  0
LINE
  8
0
 10
-3.91428
 20
-3.82733
 11
-3.95706
 21
-3.86322
  0
LINE
  8
0
 10
-3.95706
 20
-3.86322
 11
-4.00223
 21
-3.89604
  0
LINE
  8
0
 10
-4.00223
 20
-3.89604
 11
-4.04959
 21
-3.92563
  0
LINE
  8
0
 10
-4.04959
 20
-3.92563
 11
-4.09889
 21
-3.95184
  0
LINE
  8
0
 10
-4.09889
 20
-3.95184
 11
-4.1499
 21
-3.97456
  0
LINE
  8
0
 10
-4.1499
 20
-3.97456
 11
-4.20238
 21
-3.99365
  0
LINE
  8
0
 10
-4.20238
 20
-3.99365
 11
-4.25604
 21
-4.00905
  0
LINE
  8
0
 10
-4.25604
 20
-4.00905
 11
-4.31067
 21
-4.02066
  0
LINE
  8
0
 10
-4.31067
 20
-4.02066
 11
-4.36597
 21
-4.02843
  0
LINE
  8
0
 10
-4.36597
 20
-4.02843
 11
-4.42166
 21
-4.03232
  0
LINE
  8
0
 10
-4.42166
 20
-4.03232
 11
-4.47751
 21
-4.03232
  0
LINE
  8
0
 10
-1.72751
 20
-6.03032
 11
-1.7832
 21
-6.02643
  0
LINE
  8
0
 10
-1.7832
 20
-6.02643
 11
-1.8385
 21
-6.01865
  0
LINE
  8
0
 10
-1.8385
 20
-6.01865
 11
-1.89313
 21
-6.00703
  0
LINE
  8
0
 10
-1.89313
 20
-6.00703
 11
-1.94679
 21
-5.99165
  0
LINE
  8
0
 10
-1.94679
 20
-5.99165
 11
-1.99927
 21
-5.97255
  0
LINE
  8
0
 10
-1.99927
 20
-5.97255
 11
-2.05028
 21
-5.94984
  0
LINE
  8
0
 10
-2.05028
 20
-5.94984
 11
-2.09958
 21
-5.92363
  0
LINE
  8
0
 10
-2.09958
 20
-5.92363
 11
-2.14694
 21
-5.89403
  0
LINE
  8
0
 10
-2.14694
 20
-5.89403
 11
-2.19211
 21
-5.86121
  0
LINE
  8
0
 10
-2.19211
 20
-5.86121
 11
-2.23489
 21
-5.82532
  0
LINE
  8
0
 10
-2.23489
 20
-5.82532
 11
-2.27505
 21
-5.78653
  0
LINE
  8
0
 10
-2.27505
 20
-5.78653
 11
-2.31242
 21
-5.74504
  0
LINE
  8
0
 10
-2.31242
 20
-5.74504
 11
-2.3468
 21
-5.70103
  0
LINE
  8
0
 10
-2.3468
 20
-5.70103
 11
-2.37802
 21
-5.65474
  0
LINE
  8
0
 10
-2.37802
 20
-5.65474
 11
-2.40594
 21
-5.60638
  0
LINE
  8
0
 10
-2.40594
 20
-5.60638
 11
-2.43042
 21
-5.5562
  0
LINE
  8
0
 10
-2.43042
 20
-5.5562
 11
-2.45134
 21
-5.50443
  0
LINE
  8
0
 10
-2.45134
 20
-5.50443
 11
-2.4686
 21
-5.45131
  0
LINE
  8
0
 10
-2.4686
 20
-5.45131
 11
-2.4821
 21
-5.39713
  0
LINE
  8
0
 10
-2.4821
 20
-5.39713
 11
-2.49181
 21
-5.34215
  0
LINE
  8
0
 10
-2.49181
 20
-5.34215
 11
-2.49763
 21
-5.28661
  0
LINE
  8
0
 10
-2.49763
 20
-5.28661
 11
-2.49959
 21
-5.2308
  0
LINE
  8
0
 10
-2.49959
 20
-5.2308
 11
-2.49763
 21
-5.175
  0
LINE
  8
0
 10
-2.49763
 20
-5.175
 11
-2.49181
 21
-5.11946
  0
LINE
  8
0
 10
-2.49181
 20
-5.11946
 11
-2.4821
 21
-5.06447
  0
LINE
  8
0
 10
-2.4821
 20
-5.06447
 11
-2.4686
 21
-5.0103
  0
LINE
  8
0
 10
-2.4686
 20
-5.0103
 11
-2.45134
 21
-4.95718
  0
LINE
  8
0
 10
-2.45134
 20
-4.95718
 11
-2.43042
 21
-4.90541
  0
LINE
  8
0
 10
-2.43042
 20
-4.90541
 11
-2.40594
 21
-4.85522
  0
LINE
  8
0
 10
-2.40594
 20
-4.85522
 11
-2.37802
 21
-4.80687
  0
LINE
  8
0
 10
-2.37802
 20
-4.80687
 11
-2.3468
 21
-4.76057
  0
LINE
  8
0
 10
-2.3468
 20
-4.76057
 11
-2.31242
 21
-4.71657
  0
LINE
  8
0
 10
-2.31242
 20
-4.71657
 11
-2.27505
 21
-4.67508
  0
LINE
  8
0
 10
-2.27505
 20
-4.67508
 11
-2.23489
 21
-4.63629
  0
LINE
  8
0
 10
-2.23489
 20
-4.63629
 11
-2.19211
 21
-4.60039
  0
LINE
  8
0
 10
-2.19211
 20
-4.60039
 11
-2.14694
 21
-4.56757
  0
LINE
  8
0
 10
-2.14694
 20
-4.56757
 11
-2.09958
 21
-4.53798
  0
LINE
  8
0
 10
-2.09958
 20
-4.53798
 11
-2.05028
 21
-4.51176
  0
LINE
  8
0
 10
-2.05028
 20
-4.51176
 11
-1.99927
 21
-4.48906
  0
LINE
  8
0
 10
-1.99927
 20
-4.48906
 11
-1.94679
 21
-4.46996
  0
LINE
  8
0
 10
-1.94679
 20
-4.46996
 11
-1.89313
 21
-4.45456
  0
LINE
  8
0
 10
-1.89313
 20
-4.45456
 11
-1.8385
 21
-4.44296
  0
LINE
  8
0
 10
-1.8385
 20
-4.44296
 11
-1.7832
 21
-4.43518
  0
LINE
  8
0
 10
-1.7832
 20
-4.43518
 11
-1.72751
 21
-4.43129
  0
LINE
  8
0
 10
-1.72751
 20
-4.43129
 11
-1.67166
 21
-4.43129
  0
LINE
  8
0
 10
-1.67166
 20
-4.43129
 11
-1.61597
 21
-4.43518
  0
LINE
  8
0
 10
-1.61597
 20
-4.43518
 11
-1.56067
 21
-4.44296
  0
LINE
  8
0
 10
-1.56067
 20
-4.44296
 11
-1.50604
 21
-4.45456
  0
LINE
  8
0
 10
-1.50604
 20
-4.45456
 11
-1.45238
 21
-4.46996
  0
LINE
  8
0
 10
-1.45238
 20
-4.46996
 11
-1.3999
 21
-4.48906
  0
LINE
  8
0
 10
-1.3999
 20
-4.48906
 11
-1.34889
 21
-4.51176
  0
LINE
  8
0
 10
-1.34889
 20
-4.51176
 11
-1.29959
 21
-4.53798
  0
LINE
  8
0
 10
-1.29959
 20
-4.53798
 11
-1.25223
 21
-4.56757
  0
LINE
  8
0
 10
-1.25223
 20
-4.56757
 11
-1.20706
 21
-4.60039
  0
LINE
  8
0
 10
-1.20706
 20
-4.60039
 11
-1.16428
 21
-4.63629
  0
LINE
  8
0
 10
-1.16428
 20
-4.63629
 11
-1.12411
 21
-4.67508
  0
LINE
  8
0
 10
-1.12411
 20
-4.67508
 11
-1.08675
 21
-4.71657
  0
LINE
  8
0
 10
-1.08675
 20
-4.71657
 11
-1.05237
 21
-4.76057
  0
LINE
  8
0
 10
-1.05237
 20
-4.76057
 11
-1.02115
 21
-4.80687
  0
LINE
  8
0
 10
-1.02115
 20
-4.80687
 11
-0.993225
 21
-4.85522
  0
LINE
  8
0
 10
-0.993225
 20
-4.85522
 11
-0.96875
 21
-4.90541
  0
LINE
  8
0
 10
-0.96875
 20
-4.90541
 11
-0.94783
 21
-4.95718
  0
LINE
  8
0
 10
-0.94783
 20
-4.95718
 11
-0.930573
 21
-5.0103
  0
LINE
  8
0
 10
-0.930573
 20
-5.0103
 11
-0.917068
 21
-5.06447
  0
LINE
  8
0
 10
-0.917068
 20
-5.06447
 11
-0.907364
 21
-5.11946
  0
LINE
  8
0
 10
-0.907364
 20
-5.11946
 11
-0.901535
 21
-5.175
  0
LINE
  8
0
 10
-0.901535
 20
-5.175
 11
-0.899582
 21
-5.2308
  0
LINE
  8
0
 10
-0.899582
 20
-5.2308
 11
-0.901535
 21
-5.28661
  0
LINE
  8
0
 10
-0.901535
 20
-5.28661
 11
-0.907364
 21
-5.34215
  0
LINE
  8
0
 10
-0.907364
 20
-5.34215
 11
-0.917068
 21
-5.39713
  0
LINE
  8
0
 10
-0.917068
 20
-5.39713
 11
-0.930573
 21
-5.45131
  0
LINE
  8
0
 10
-0.930573
 20
-5.45131
 11
-0.94783
 21
-5.50443
  0
LINE
  8
0
 10
-0.94783
 20
-5.50443
 11
-0.96875
 21
-5.5562
  0
LINE
  8
0
 10
-0.96875
 20
-5.5562
 11
-0.993225
 21
-5.60638
  0
LINE
  8
0
 10
-0.993225
 20
-5.60638
 11
-1.02115
 21
-5.65474
  0
LINE
  8
0
 10
-1.02115
 20
-5.65474
 11
-1.05237
 21
-5.70103
  0
LINE
  8
0
 10
-1.05237
 20
-5.70103
 11
-1.08675
 21
-5.74504
  0
LINE
  8
0
 10
-1.08675
 20
-5.74504
 11
-1.12411
 21
-5.78653
  0
LINE
  8
0
 10
-1.12411
 20
-5.78653
 11
-1.16428
 21
-5.82532
  0
LINE
  8
0
 10
-1.16428
 20
-5.82532
 11
-1.20706
 21
-5.86121
  0
LINE
  8
0
 10
-1.20706
 20
-5.86121
 11
-1.25223
 21
-5.89403
  0
LINE
  8
0
 10
-1.25223
 20
-5.89403
 11
-1.29959
 21
-5.92363
  0
LINE
  8
0
 10
-1.29959
 20
-5.92363
 11
-1.34889
 21
-5.94984
  0
LINE
  8
0
 10
-1.34889
 20
-5.94984
 11
-1.3999
 21
-5.97255
  0
LINE
  8
0
 10
-1.3999
 20
-5.97255
 11
-1.45238
 21
-5.99165
  0
LINE
  8
0
 10
-1.45238
 20
-5.99165
 11
-1.50604
 21
-6.00703
  0
LINE
  8
0
 10
-1.50604
 20
-6.00703
 11
-1.56067
 21
-6.01865
  0
LINE
  8
0
 10
-1.56067
 20
-6.01865
 11
-1.61597
 21
-6.02643
  0
LINE
  8
0
 10
-1.61597
 20
-6.02643
 11
-1.67166
 21
-6.03032
  0
LINE
  8
0
 10
-1.67166
 20
-6.03032
 11
-1.72751
 21
-6.03032
  0
LINE
  8
0
 10
1.67166
 20
-6.03032
 11
1.61597
 21
-6.02643
  0
LINE
  8
0
 10
1.61597
 20
-6.02643
 11
1.56067
 21
-6.01865
  0
LINE
  8
0
 10
1.56067
 20
-6.01865
 11
1.50604
 21
-6.00703
  0
LINE
  8
0
 10
1.50604
 20
-6.00703
 11
1.45238
 21
-5.99165
  0
LINE
  8
0
 10
1.45238
 20
-5.99165
 11
1.3999
 21
-5.97255
  0
LINE
  8
0
 10
1.3999
 20
-5.97255
 11
1.34889
 21
-5.94984
  0
LINE
  8
0
 10
1.34889
 20
-5.94984
 11
1.29959
 21
-5.92363
  0
LINE
  8
0
 10
1.29959
 20
-5.92363
 11
1.25223
 21
-5.89403
  0
LINE
  8
0
 10
1.25223
 20
-5.89403
 11
1.20706
 21
-5.86121
  0
LINE
  8
0
 10
1.20706
 20
-5.86121
 11
1.16428
 21
-5.82532
  0
LINE
  8
0
 10
1.16428
 20
-5.82532
 11
1.12411
 21
-5.78653
  0
LINE
  8
0
 10
1.12411
 20
-5.78653
 11
1.08675
 21
-5.74504
  0
LINE
  8
0
 10
1.08675
 20
-5.74504
 11
1.05237
 21
-5.70103
  0
LINE
  8
0
 10
1.05237
 20
-5.70103
 11
1.02115
 21
-5.65474
  0
LINE
  8
0
 10
1.02115
 20
-5.65474
 11
0.993225
 21
-5.60638
  0
LINE
  8
0
 10
0.993225
 20
-5.60638
 11
0.96875
 21
-5.5562
  0
LINE
  8
0
 10
0.96875
 20
-5.5562
 11
0.94783
 21
-5.50443
  0
LINE
  8
0
 10
0.94783
 20
-5.50443
 11
0.930573
 21
-5.45131
  0
LINE
  8
0
 10
0.930573
 20
-5.45131
 11
0.917068
 21
-5.39713
  0
LINE
  8
0
 10
0.917068
 20
-5.39713
 11
0.907364
 21
-5.34215
  0
LINE
  8
0
 10
0.907364
 20
-5.34215
 11
0.901535
 21
-5.28661
  0
LINE
  8
0
 10
0.901535
 20
-5.28661
 11
0.899582
 21
-5.2308
  0
LINE
  8
0
 10
0.899582
 20
-5.2308
 11
0.901535
 21
-5.175
  0
LINE
  8
0
 10
0.901535
 20
-5.175
 11
0.907364
 21
-5.11946
  0
LINE
  8
0
 10
0.907364
 20
-5.11946
 11
0.917068
 21
-5.06447
  0
LINE
  8
0
 10
0.917068
 20
-5.06447
 11
0.930573
 21
-5.0103
  0
LINE
  8
0
 10
0.930573
 20
-5.0103
 11
0.94783
 21
-4.95718
  0
LINE
  8
0
 10
0.94783
 20
-4.95718
 11
0.96875
 21
-4.90541
  0
LINE
  8
0
 10
0.96875
 20
-4.90541
 11
0.993225
 21
-4.85522
  0
LINE
  8
0
 10
0.993225
 20
-4.85522
 11
1.02115
 21
-4.80687
  0
LINE
  8
0
 10
1.02115
 20
-4.80687
 11
1.05237
 21
-4.76057
  0
LINE
  8
0
 10
1.05237
 20
-4.76057
 11
1.08675
 21
-4.71657
  0
LINE
  8
0
 10
1.08675
 20
-4.71657
 11
1.12411
 21
-4.67508
  0
LINE
  8
0
 10
1.12411
 20
-4.67508
 11
1.16428
 21
-4.63629
  0
LINE
  8
0
 10
1.16428
 20
-4.63629
 11
1.20706
 21
-4.60039
  0
LINE
  8
0
 10
1.20706
 20
-4.60039
 11
1.25223
 21
-4.56757
  0
LINE
  8
0
 10
1.25223
 20
-4.56757
 11
1.29959
 21
-4.53798
  0
LINE
  8
0
 10
1.29959
 20
-4.53798
 11
1.34889
 21
-4.51176
  0
LINE
  8
0
 10
1.34889
 20
-4.51176
 11
1.3999
 21
-4.48906
  0
LINE
  8
0
 10
1.3999
 20
-4.48906
 11
1.45238
 21
-4.46996
  0
LINE
  8
0
 10
1.45238
 20
-4.46996
 11
1.50604
 21
-4.45456
  0
LINE
  8
0
 10
1.50604
 20
-4.45456
 11
1.56067
 21
-4.44296
  0
LINE
  8
0
 10
1.56067
 20
-4.44296
 11
1.61597
 21
-4.43518
  0
LINE
  8
0
 10
1.61597
 20
-4.43518
 11
1.67166
 21
-4.43129
  0
LINE
  8
0
 10
1.67166
 20
-4.43129
 11
1.72751
 21
-4.43129
  0
LINE
  8
0
 10
1.72751
 20
-4.43129
 11
1.7832
 21
-4.43518
  0
LINE
  8
0
 10
1.7832
 20
-4.43518
 11
1.8385
 21
-4.44296
  0
LINE
  8
0
 10
1.8385
 20
-4.44296
 11
1.89313
 21
-4.45456
  0
LINE
  8
0
 10
1.89313
 20
-4.45456
 11
1.94679
 21
-4.46996
  0
LINE
  8
0
 10
1.94679
 20
-4.46996
 11
1.99927
 21
-4.48906
  0
LINE
  8
0
 10
1.99927
 20
-4.48906
 11
2.05028
 21
-4.51176
  0
LINE
  8
0
 10
2.05028
 20
-4.51176
 11
2.09958
 21
-4.53798
  0
LINE
  8
0
 10
2.09958
 20
-4.53798
 11
2.14694
 21
-4.56757
  0
LINE
  8
0
 10
2.14694
 20
-4.56757
 11
2.19211
 21
-4.60039
  0
LINE
  8
0
 10
2.19211
 20
-4.60039
 11
2.23489
 21
-4.63629
  0
LINE
  8
0
 10
2.23489
 20
-4.63629
 11
2.27505
 21
-4.67508
  0
LINE
  8
0
 10
2.27505
 20
-4.67508
 11
2.31242
 21
-4.71657
  0
LINE
  8
0
 10
2.31242
 20
-4.71657
 11
2.3468
 21
-4.76057
  0
LINE
  8
0
 10
2.3468
 20
-4.76057
 11
2.37802
 21
-4.80687
  0
LINE
  8
0
 10
2.37802
 20
-4.80687
 11
2.40594
 21
-4.85522
  0
LINE
  8
0
 10
2.40594
 20
-4.85522
 11
2.43042
 21
-4.90541
  0
LINE
  8
0
 10
2.43042
 20
-4.90541
 11
2.45134
 21
-4.95718
  0
LINE
  8
0
 10
2.45134
 20
-4.95718
 11
2.4686
 21
-5.0103
  0
LINE
  8
0
 10
2.4686
 20
-5.0103
 11
2.4821
 21
-5.06447
  0
LINE
  8
0
 10
2.4821
 20
-5.06447
 11
2.49181
 21
-5.11946
  0
LINE
  8
0
 10
2.49181
 20
-5.11946
 11
2.49763
 21
-5.175
  0
LINE
  8
0
 10
2.49763
 20
-5.175
 11
2.49959
 21
-5.2308
  0
LINE
  8
0
 10
2.49959
 20
-5.2308
 11
2.49763
 21
-5.28661
  0
LINE
  8
0
 10
2.49763
 20
-5.28661
 11
2.49181
 21
-5.34215
  0
LINE
  8
0
 10
2.49181
 20
-5.34215
 11
2.4821
 21
-5.39713
  0
LINE
  8
0
 10
2.4821
 20
-5.39713
 11
2.4686
 21
-5.45131
  0
LINE
  8
0
 10
2.4686
 20
-5.45131
 11
2.45134
 21
-5.50443
  0
LINE
  8
0
 10
2.45134
 20
-5.50443
 11
2.43042
 21
-5.5562
  0
LINE
  8
0
 10
2.43042
 20
-5.5562
 11
2.40594
 21
-5.60638
  0
LINE
  8
0
 10
2.40594
 20
-5.60638
 11
2.37802
 21
-5.65474
  0
LINE
  8
0
 10
2.37802
 20
-5.65474
 11
2.3468
 21
-5.70103
  0
LINE
  8
0
 10
2.3468
 20
-5.70103
 11
2.31242
 21
-5.74504
  0
LINE
  8
0
 10
2.31242
 20
-5.74504
 11
2.27505
 21
-5.78653
  0
LINE
  8
0
 10
2.27505
 20
-5.78653
 11
2.23489
 21
-5.82532
  0
LINE
  8
0
 10
2.23489
 20
-5.82532
 11
2.19211
 21
-5.86121
  0
LINE
  8
0
 10
2.19211
 20
-5.86121
 11
2.14694
 21
-5.89403
  0
LINE
  8
0
 10
2.14694
 20
-5.89403
 11
2.09958
 21
-5.92363
  0
LINE
  8
0
 10
2.09958
 20
-5.92363
 11
2.05028
 21
-5.94984
  0
LINE
  8
0
 10
2.05028
 20
-5.94984
 11
1.99927
 21
-5.97255
  0
LINE
  8
0
 10
1.99927
 20
-5.97255
 11
1.94679
 21
-5.99165
  0
LINE
  8
0
 10
1.94679
 20
-5.99165
 11
1.89313
 21
-6.00703
  0
LINE
  8
0
 10
1.89313
 20
-6.00703
 11
1.8385
 21
-6.01865
  0
LINE
  8
0
 10
1.8385
 20
-6.01865
 11
1.7832
 21
-6.02643
  0
LINE
  8
0
 10
1.7832
 20
-6.02643
 11
1.72751
 21
-6.03032
  0
LINE
  8
0
 10
1.72751
 20
-6.03032
 11
1.67166
 21
-6.03032
  0
ENDSEC
  0
SECTION
  2
OBJECTS
  0
DICTIONARY
  0
ENDSEC
  0
EOF
